<?xml version="1.0" encoding="utf-8"?>
<!-- Generator: Adobe Illustrator 25.2.3, SVG Export Plug-In . SVG Version: 6.00 Build 0)  -->
<svg version="1.0" id="Layer_1" xmlns="http://www.w3.org/2000/svg" xmlns:xlink="http://www.w3.org/1999/xlink" x="0px" y="0px"
	 viewBox="0 0 1024 1024" style="enable-background:new 0 0 1024 1024;" xml:space="preserve">
<style type="text/css">
	.st0{fill:#FFFFFF;}
	.st1{fill:none;stroke:#FFFFFF;stroke-width:6;stroke-miterlimit:10;}
</style>
<g>
	<g>
		<path class="st0" d="M244.7,350.5c3.8-1.3,7.5-2,11.1-2.2c-1.7-4.1-3.5-8.3-5.2-12.5c-7.9-0.3-15.8,2.2-22.2,7l4.9,13.2
			C236.6,353.7,240.4,351.9,244.7,350.5z"/>
		<path class="st0" d="M248.8,331.6c-1.6-3.8-3.3-7.7-4.9-11.6c-7.7-0.3-15.3,2.1-21.5,6.6l4.5,12
			C233.2,334.2,240.9,331.7,248.8,331.6z"/>
		<path class="st0" d="M242.1,315.8c-1.5-3.6-3.1-7.2-4.6-10.8c0-0.1-0.1-0.2-0.1-0.3c-7.4-0.3-14.7,1.9-20.9,6.1l4.4,11.7
			C227.1,318.3,234.5,316,242.1,315.8z"/>
		<path class="st0" d="M263.9,400.1c4.2-1.4,8.2-2.1,12-2.3c-0.1-0.3-0.2-0.6-0.3-0.9c-1.5-3.9-3.1-7.8-4.7-11.7c0,0-0.1,0-0.1,0.1
			c-0.3,0.1-0.5,0.1-0.8,0.1c-8.1-0.3-16,2.2-22.5,7.2c-0.1,0.1-0.2,0.1-0.3,0.2l4.9,13.2C255.5,403.5,259.5,401.5,263.9,400.1z"/>
		<path class="st0" d="M269.3,381.2c-1.6-3.9-3.2-7.9-4.8-11.8c-0.1,0-0.2,0.1-0.3,0.1c-0.3,0.1-0.5,0.1-0.8,0.1
			c-8-0.3-15.9,2.2-22.3,7l4.5,12C252.4,383.7,260.7,381,269.3,381.2z"/>
		<path class="st0" d="M262.9,365.4c-1.8-4.3-3.6-8.7-5.4-13c-3.6,0-7.5,0.8-11.6,2.2c-4.2,1.4-7.9,3.3-11,5.5l4.7,12.5
			C246.3,367.7,254.5,365.2,262.9,365.4z"/>
		<path class="st0" d="M228.4,284.6c0,0,0-0.1-0.1-0.1c-0.5-1-0.9-2.1-1.4-3.1c-1.6-3.7-3.3-7.5-5.3-10.8c-1.8-3-4.1-5.9-6.2-8.7
			c-0.4-0.6-0.9-1.2-1.3-1.7l-0.4-0.6c-1.9-2.5-3.9-5.1-6.3-7c-2-1.5-3.2-1.1-3.9-0.6c-2.1,1.3-3.5,4.8-4.1,8c0.1,0.4,0,0.8-0.2,1.1
			c-0.1,1.1-0.1,2.1,0,2.9l0.5,1.4l-0.4,0.1l9.5,25.4C214.7,287.1,221.5,285,228.4,284.6z"/>
		<path class="st0" d="M128.4,341.1l41.8,115.2c0.1-0.3,0.4-0.7,0.7-0.9c2-1.5,4.2-2.8,6.7-4.1c4.4-2.2,9-4,13.9-5.1
			c4.5-1.1,8.5-1.5,12.5-1.5l-6.7-17.9c-0.2,0.4-0.6,0.6-1,0.8c-0.3,0.1-0.6,0.2-0.9,0.1c-10.3-0.7-20.6,2.4-29,8.6
			c-0.9,0.7-2.2,0.5-2.9-0.5c-0.7-1-0.5-2.2,0.4-2.9c2-1.5,4.2-2.8,6.4-4c7.8-4.1,16.6-5.9,25.5-5.4l0,0c0.1,0,0.2,0,0.3,0
			l-44.9-119.8c-0.2,0.3-0.6,0.5-0.9,0.7c-0.3,0.1-0.6,0.2-0.9,0.1c-10.3-0.7-20.6,2.4-29,8.6c-0.5,0.4-1.2,0.5-1.8,0.3
			c1.7,6.6,3.7,12.3,6.1,17.7c1.1,2.4,2,5,2.9,7.5C127.8,339.4,128.1,340.3,128.4,341.1z"/>
		<path class="st0" d="M235.5,300.5c-1.7-3.9-3.4-7.8-5.2-11.8c-7.1,0-14,2.1-19.8,6.2l4.4,11.9C221,302.9,228.1,300.7,235.5,300.5z
			"/>
		<path class="st0" d="M124.3,305.8c7.8-4.1,16.6-5.9,25.5-5.4l0,0c0,0,0.1,0,0.1,0l-7.9-21.1c-0.4-0.6-0.9-1.1-1.3-1.6
			c-4.4-5.2-8.3-9.1-12.3-12.4c-2.8-2.3-9.2-7.6-12.8-5.2c-2.6,1.7-2.8,7.2-2.9,10.5l0,0.5c-0.2,7.2,0.7,14.5,1.5,20
			c1,7,2.2,13.3,3.6,18.9c0.1-0.1,0.1-0.1,0.2-0.2C119.9,308.3,122,307,124.3,305.8z"/>
		<path class="st0" d="M219.8,555.3c-1.9,0.7-3.5,1.3-5,2.2c-1.3,0.8-2.7,1.7-4.1,2.9c-3.2,2.6-6.2,5.7-9,9.2
			c0.9,1.1,2.1,1.8,3.7,2.2c4.4,1.1,10.4,0.8,17.3-0.8c5.6-1.3,10.6-3.6,14.8-6.7c3.9-2.8,8.2-7,7.9-11.5c-4.8-0.6-9.1-0.7-13.3-0.3
			C228.2,552.8,224,553.8,219.8,555.3z"/>
		<path class="st0" d="M213.3,552c-6.2,3.4-11,7.8-14.2,12.7c0.1,0.3,0.2,0.5,0.3,0.8c0.5-0.6,1.1-1.3,1.8-2c2.8-3.1,5.4-5.5,8-7.5
			c1.6-1.2,3.1-2.2,4.7-3c2.1-1,4.3-1.7,6.3-2.4c4.5-1.4,8.9-2.3,13.2-2.6c3.3-0.2,6.7-0.2,10.4,0.2l-0.2-0.4
			c-3.6-0.9-7.2-1.3-10.8-1.3C226.3,546.7,219.7,548.6,213.3,552z"/>
		<path class="st0" d="M283.4,416.7c-2-5-3.9-9.9-5.8-14.8c-3.8-0.1-8,0.6-12.5,2.1c-4.4,1.5-8.3,3.5-11.5,5.9l5.4,14.4
			C266,419.2,274.6,416.5,283.4,416.7z"/>
		<path class="st0" d="M221.4,491.3l-0.9-2.4c0,0.1-0.1,0.2-0.2,0.3c-0.3,0.4-0.6,0.7-1,0.8c-0.3,0.1-0.6,0.2-0.9,0.1
			c-10.3-0.7-20.6,2.4-29,8.6c-0.6,0.4-1.4,0.5-2,0.2c-0.7-0.3-1.2-1-1.3-1.7c-0.1-0.7,0.2-1.4,0.8-1.9c2-1.5,4.2-2.8,6.4-4
			c7.8-4.1,16.6-5.9,25.5-5.4l0,0c0.2,0,0.4,0.1,0.6,0.1l-6.7-17.9c-0.1,0.8-0.7,1.4-1.4,1.7c-0.3,0.1-0.6,0.2-0.9,0.1
			c-10.3-0.7-20.6,2.4-29,8.6c-0.9,0.7-2.2,0.5-2.9-0.5c-0.7-1-0.5-2.2,0.4-2.9c2-1.5,4.2-2.8,6.4-4c7.8-4.1,16.6-5.9,25.5-5.4l0,0
			c0.4,0,0.8,0.2,1.1,0.4l-6.5-17.4c-0.1,0-0.2,0-0.3,0c-2.2-0.1-4.5-0.1-7.1,0.3c-4.4,0.5-8.8,1.7-13.3,3.4
			c-4.4,1.7-8.2,3.8-11.5,6.2c-0.7,0.5-1.5,0.5-2.2,0.1l13.2,36.4l1.3-0.5l-0.8,1.8l0.2,0.7c0.4,1.1-0.2,2.3-1.2,2.7
			c0,0-0.1,0-0.1,0c-0.2,0.1-0.4,0.2-0.6,0.3l-0.8,1.8l-0.4-1.1c-4.3,3.2-3.3,10.3-1.5,16c1.3,4.2,2.8,8.2,4.1,11.6
			c4.2,11.1,8.6,22,12.7,31.7c1.7-2.2,3.7-4.3,6-6.3c5.7-4.8,12.7-8.4,19.7-10.2c6.3-1.6,12.8-1.8,19-0.6L225.8,500l-1.5-0.7
			l1.1-0.5l-1.7-4.5c-0.2-0.6-0.2-1.2,0.1-1.7C222.8,492.8,221.8,492.3,221.4,491.3z"/>
		<path class="st0" d="M161.4,228.6c3.7-0.9,7.5-1.4,11.1-1.6c2.5-0.1,5.4-0.3,8.2,0.3c-1.2-3.2-2.5-6.4-3.7-9.6
			c-4.6-11.9-9.2-23.9-13.7-35.9c-0.3,0-0.7-0.1-1-0.3c-3-1.7-6.6-2.7-10.4-2.8c-8.5-0.3-16.4,3.6-21.7,6.5
			c-5.3,2.9-11.8,6.6-14.8,12.5c2.5,6.7,5,13.5,7.4,20.1c3.1,8.6,6.3,17.3,9.6,26.1c2.5-2.3,5.2-4.4,8.1-6.3
			C146.9,233.4,153.9,230.3,161.4,228.6z"/>
		<path class="st0" d="M303.5,519.3c-6.2,3.4-11.1,7.8-14.2,12.7c0,0.1,0.1,0.2,0.1,0.4c2.1-2.6,4.5-4.9,7.1-7
			c6-4.9,13.2-8.3,20.7-9.9c5.9-1.3,11.7-1.4,17-0.2c0,0,0,0,0,0c-3.7-1-7.4-1.4-11.2-1.4C316.4,514,309.8,515.9,303.5,519.3z"/>
		<path class="st0" d="M306.8,523.7c-6,3.1-11.4,7.6-15.5,13.1c2.5,2.9,8.7,2.5,12.5,2.3l0.3,0c7.6-0.4,14.6-2.5,20.4-6
			c4.3-2.6,11-7.5,10.9-13.2c-2.9-0.8-5.9-1.2-9.1-1.2C319.9,518.7,313.1,520.4,306.8,523.7z"/>
		<path class="st0" d="M311.4,461.2c-1.9-3.4-5.4-8.6-9.6-8.7l0.4,0.9l-1.8-0.8c-0.2,0-0.4,0.1-0.6,0.2c-0.2,0.1-0.4,0.3-0.6,0.3
			c-0.3,0.1-0.6,0.1-0.9,0.1c-3.9-0.2-8.3,0.6-13,2.1c-4.5,1.5-8.5,3.6-11.7,6.1c-0.2,0.1-0.4,0.2-0.6,0.3l1.1,2.9
			c0.4,1.1-0.1,2.3-1.2,2.7c-1.1,0.4-2.3-0.1-2.7-1.2l-58-154.7c-0.2-0.3-0.4-0.7-0.5-1.1c0-0.1,0-0.1,0-0.2l-5.5-14.7c0,0,0,0,0,0
			c-0.3-0.4-0.4-0.8-0.4-1.2l-11.5-30.8c0,0,0,0,0,0c-3.6,0-7.2,0.3-10.7,0.8c-13.2,1.8-25.9,6.7-36.8,14.3l0.3,0.3l-0.6,0.3
			l77.6,207c3.2-2.1,6.1-3.9,8.9-5.5c15.1-8.8,27.9-12.8,40.3-12.7l0,0c0.8,0,1.5,0.4,1.8,1.1c0.4,0.7,0.4,1.5,0,2.2
			c-0.4,0.6-1,1-1.8,1c-3.7,0-7.5,0.3-11.3,1.1c-13.5,2.7-25.5,9.7-36.6,17c0.1,0.5,0,0.9-0.2,1.3c0.4-0.1,0.8,0,1.2,0.1
			c2.4-2.1,5-4.1,7.8-5.9c12.3-8.1,26.8-12.8,40.7-13.2l0,0c1.2,0,2.1,0.9,2.2,2.1c0,1.2-0.8,2.1-2,2.1c-3.7,0.1-7.5,0.5-11.3,1.3
			c-13.3,2.7-25.8,8.8-35.3,17.3l0.7,1.8c2.1-0.7,4.4-1,6.7-1.1c0.1-0.1,0.2-0.2,0.4-0.3c2.3-1.5,4.6-2.8,7-4.1
			c8.6-4.4,17.8-7.2,27.4-8.3c0.1,0,0.2,0,0.3,0c1.7-1.5,3.8-2.6,5.8-3.3l1.1-0.7l0.3,0.6c0.6,0.1,1.2,0.6,1.4,1.2
			c0.3,0.5,0.3,1.1,0.1,1.6l0.4,0.7l-1.4,0.4l-5.7,3.9c0.2,0.6,0.4,1.2,0.5,1.7c0.1,0.4,0.2,0.8,0.3,1.1l13.7,36.5
			c1.7-2.2,3.6-4.2,5.8-6.1c5.7-4.8,12.7-8.4,19.7-10.2c6.4-1.6,13.1-1.8,19.5-0.5c-3.9-10.9-7.6-20.5-11.8-30
			C317.2,472.5,314.3,466.6,311.4,461.2z"/>
		<path class="st0" d="M140.7,262.4c-0.2,0.2-0.5,0.4-0.8,0.5c0,0,0,0-0.1,0c1.6,4,3.3,7.9,4.9,11.8c2.7-1.8,5.6-3.6,8.5-5.1
			c12.2-6.5,25.9-10,39.7-10.3c-0.7-1.9-1.4-3.8-2.2-5.7c-1.1-3-2.3-6-3.4-9c-3.6-0.2-7.2-0.1-10.9,0.4
			C162.9,246.8,150.2,252.9,140.7,262.4z"/>
		<path class="st0" d="M284.1,451.4c4.1-1.4,8.1-2.1,11.8-2.3c-1.7-4.3-3.3-8.5-4.9-12.6c0,0-0.1,0-0.1,0.1
			c-0.3,0.1-0.6,0.1-0.9,0.1c-8.1-0.3-16,2.2-22.5,7.2c-0.4,0.3-0.8,0.4-1.2,0.4l5.1,13.5C275.1,455.1,279.3,453,284.1,451.4z"/>
		<path class="st0" d="M289.5,432.5c-1.6-4-3.1-8-4.7-11.9c-0.1,0.1-0.3,0.2-0.5,0.3c-0.3,0.1-0.6,0.1-0.9,0.1
			c-8.1-0.3-16,2.2-22.5,7.2c-0.2,0.1-0.4,0.2-0.6,0.3l4.6,12.1c0,0,0,0,0.1-0.1C272,435.2,280.7,432.3,289.5,432.5z"/>
		<path class="st0" d="M171.3,231.2l-0.2,0c-13.7,1.2-27.2,7.3-37,16.8c1.4,3.6,2.8,7.2,4.2,10.9c2.8-2.7,5.8-5.1,8.9-7.2
			c11.4-7.7,25-11.6,38.6-11.3c-1-2.7-2.1-5.4-3.1-8.1c-0.2,0-0.5-0.1-0.7-0.2C178.9,230.6,174.8,230.9,171.3,231.2z"/>
		<path class="st0" d="M129.6,180.7c4.6-2.5,8.6-4.1,12.5-5.1c6.9-1.8,13.6-1.5,19.2,0.7c-0.4-1.1-0.8-2.2-1.2-3.2
			c-5.1-13.5-10.3-27.4-17.6-40c-4.2-7.2-9.3-13.5-13.7-18.8c-4.1-4.9-8.5-9.8-14.2-12.4c-3.4-1.6-6.2-2.3-7.8-2
			c-1.2,0.2-3.2,1.1-4.2,1.7c-1.4,0.9-2.5,3.3-3.4,7.1c-2.1,8.7-1.1,18.2,0,27.1c2.4,18.7,7.2,37.6,14.3,56.4
			c0.1,0.2,0.1,0.3,0.2,0.5c1.5-2,3.5-3.9,5.9-5.7C122.8,184.4,126.4,182.4,129.6,180.7z"/>
	</g>
	<g>
		<path class="st0" d="M323,546.3c0-3.3-0.4-9.4-3.2-16.9l-7.8,3.5C315,538.6,318.7,543.1,323,546.3z"/>
		<path class="st0" d="M332.3,566.1c0.7-5.3,1.6-20.8-8.8-38.4l-0.9,0.4c1.5,3.9,2.4,7.4,2.9,10.4c1.1,6.4,0.5,10.5,0.4,10.7
			c-0.1,0.5-0.4,0.9-0.9,1.2c-0.5,0.2-1,0.2-1.5-0.1c-5.9-3.5-10.7-9-14.4-16.3l-0.9,0.4C311.1,543.5,317.8,558.2,332.3,566.1z"/>
		<path class="st0" d="M326.3,526.5c5,8.6,7.5,16.7,8.7,23.4c1.8,11,0.1,18.4-0.1,19c-0.1,0.5-0.4,0.8-0.8,1c-0.4,0.2-0.9,0.2-1.3,0
			c-16.6-8.1-24.2-24.2-27.4-34.1l-1.5,0.7c0.1,2.8,0.9,11.4,4.9,20.7c6.4,14.7,17.6,24.6,33.3,29.4c1-2.7,3.2-9.7,3.2-18.9
			c0-15.4-5.9-29.5-17.5-41.8L326.3,526.5z"/>
	</g>
	<g>
		<path class="st0" d="M232.5,580c0-3.3-0.4-9.4-3.2-16.9l-7.8,3.5C224.5,572.3,228.2,576.8,232.5,580z"/>
		<path class="st0" d="M241.8,599.9c0.7-5.3,1.6-20.8-8.8-38.4l-0.9,0.4c1.5,3.9,2.4,7.4,2.9,10.4c1.1,6.4,0.5,10.5,0.4,10.7
			c-0.1,0.5-0.4,0.9-0.9,1.2c-0.5,0.2-1,0.2-1.5-0.1c-5.9-3.5-10.7-9-14.4-16.3l-0.9,0.4C220.6,577.3,227.3,591.9,241.8,599.9z"/>
		<path class="st0" d="M235.9,560.2c5,8.6,7.5,16.7,8.7,23.4c1.8,11,0.1,18.4-0.1,19c-0.1,0.5-0.4,0.8-0.8,1c-0.4,0.2-0.9,0.2-1.3,0
			c-16.6-8.1-24.2-24.2-27.4-34.1l-1.5,0.7c0.1,2.8,0.9,11.4,4.9,20.7c6.4,14.7,17.6,24.6,33.3,29.4c1-2.7,3.2-9.7,3.2-18.9
			c0-15.4-5.9-29.5-17.5-41.8L235.9,560.2z"/>
	</g>
	<g>
		<path class="st1" d="M249.8,485.2c0,0,7.1,163.3,116,223.1l72.5,56.5"/>
		<line class="st1" x1="365.8" y1="708.3" x2="438.3" y2="658.8"/>
	</g>
	<g>
		<path class="st0" d="M682.2,759.8c-0.1-0.9-0.3-2.3-0.6-4.1c-0.2-1.8-0.5-4.2-1-7.1c-0.3-1.8-0.7-3.4-0.9-4.5
			c-0.2-1.1-0.4-2-0.5-2.7c-0.2-1-0.4-1.7-0.5-2.2c-0.1-0.5-0.3-0.7-0.4-0.7c-0.1,0-0.3,0.3-0.6,0.8c-0.2,0.5-0.6,1.4-1,2.5
			c-0.6,1.5-1.1,3.3-1.7,5.3c-0.6,2-1.1,4-1.6,6c-0.5,2-1,4-1.4,5.9c-0.4,1.9-0.8,3.6-1.1,5.1c0,0,0,0.1,0,0.1c0,0,0,0.1,0,0.1
			c2.7-0.4,4.9-0.7,6.4-0.9c1.5-0.2,2.7-0.4,3.5-0.5s1.2-0.1,1.4-0.1c0.2,0,0.4,0,0.5,0.1c0-0.3-0.1-0.6-0.1-1
			C682.4,761.5,682.3,760.8,682.2,759.8z"/>
		<path class="st0" d="M790.9,756.7c-0.2-1-0.5-2.4-1-4.2c-0.4-1.8-0.9-4.3-1.7-7.3c-0.5-1.9-1-3.5-1.4-4.7
			c-0.3-1.2-0.6-2.1-0.8-2.8c-0.3-1-0.5-1.8-0.7-2.3c-0.2-0.5-0.3-0.8-0.5-0.8c-0.1,0-0.3,0.3-0.5,0.8c-0.2,0.5-0.4,1.3-0.7,2.3
			c-0.4,1.5-0.8,3.2-1.2,5.1c-0.4,1.9-0.7,3.8-1,5.8c-0.3,2-0.6,3.9-0.8,5.8c-0.3,1.9-0.5,3.6-0.6,5c0,0,0,0.1,0,0.1
			c0,0,0,0.1,0,0.1c2.7-0.1,4.9-0.1,6.4-0.1c1.5,0,2.7,0,3.4,0c0.7,0,1.2,0,1.4,0.1c0.2,0,0.4,0.1,0.5,0.1c-0.1-0.3-0.1-0.6-0.2-1
			C791.3,758.3,791.1,757.6,790.9,756.7z"/>
		<path class="st0" d="M478.9,766.3c-0.1,0-0.2,0.1-0.2,0.1c-0.1,0-0.1,0.1-0.2,0.1C478.6,766.5,478.7,766.5,478.9,766.3z"/>
		<path class="st0" d="M515.6,748.4c-0.4-1.2-0.9-2.3-1.5-3.2c-0.6-1-1.3-1.8-2.2-2.4c-1.4-1.1-2.8-1.5-4.3-1.3
			c-1.4,0.2-2.8,0.9-4.2,2c-1.3,1.1-2.5,2.6-3.6,4.4c-1.1,1.8-2,3.8-2.8,5.9c-0.8,2.1-1.3,4.2-1.6,6.4c-0.3,2.2-0.3,4.2,0.1,6.1
			c0.4,2.2,1.2,4.1,2.4,5.7c1.2,1.5,2.8,2.3,4.9,2.4c1.7,0,3.3-0.5,4.9-1.5c1.6-1,3.1-2.4,4.5-4.3c1.2-1.6,2.2-3.5,2.9-5.6
			c0.8-2.1,1.3-4.4,1.4-6.6c0.1-1.3,0-2.7-0.2-4C516.2,750.9,516,749.6,515.6,748.4z"/>
		<path class="st0" d="M884.4,709.3c-3.5-1.3-20.8-7.4-46.7-11.7c-26.7-4.4-68.3-7.7-114.8,1.6c-41.9,8.4-85.2,17.1-131.8,13.8
			c-49.1-3.5-97.3-20-151.6-51.9v124.2c35.3,16.6,71.6,27.8,107.7,33.3c60.3,9.2,129.7,4.8,191,0.9c29-1.8,55.8-3.5,78.4-3.5
			c19.5,0,35.9,1.3,47.7,4.8c1.6,0.5,29.3,8.9,37.2,11.3c-2-11.6-11.5-67.1-14.3-95.6C885.3,717.2,884.6,711.2,884.4,709.3z
			 M486.2,740.6c-0.4,0.5-0.9,0.8-1.4,0.9c-0.5,0.2-1,0.2-1.4,0.1c-0.5-0.1-0.8-0.3-1.1-0.5c-0.3-0.3-0.6-0.6-0.8-1.1
			c-0.6-0.7-1.2-1.3-1.9-1.8c-0.7-0.5-1.4-0.9-2.2-1.1c-1.4-0.4-3-0.1-4.5,0.7c-1.5,0.8-2.9,2-4.1,3.7c-1,1.3-1.8,2.8-2.4,4.5
			c-0.7,1.7-1.1,3.5-1.2,5.4c-0.1,1.7,0,3.5,0.4,5.2c0.3,1.7,0.9,3.3,1.6,4.8c0.8,1.5,1.9,2.7,3,3.7c1.2,1,2.6,1.6,4.1,1.8
			c0.7,0.1,1.4,0.1,2,0.1c0.7,0,1.4-0.2,2-0.4c0,0,0,0,0,0c0,0,0,0-0.1,0c0.1,0,0.2-0.1,0.2-0.1c0.1,0,0.2-0.1,0.3-0.1
			c0.1-0.1,0.2-0.1,0.3-0.2c1.1-0.5,2-0.4,2.9,0.1c0.9,0.5,1.5,1.5,1.8,2.8c0.1,0.6,0.2,1.3,0.1,2c-0.1,0.7-0.2,1.4-0.4,2
			c-0.2,0.6-0.5,1.2-0.9,1.7c-0.4,0.5-0.8,0.9-1.3,1c-3,1.3-5.9,1.7-8.8,1.2c-2.9-0.5-5.6-2-8-4.3c-2-1.9-3.6-4.4-4.7-7.4
			c-1.1-3-1.8-6.2-2.1-9.5c-0.3-3.4-0.1-6.7,0.7-9.9c0.8-3.2,1.9-6.3,3.5-9c1.5-2.7,3.4-4.9,5.5-6.6c2.1-1.7,4.3-2.8,6.6-3.4
			c1.3-0.3,2.6-0.4,3.8-0.2c1.3,0.2,2.5,0.6,3.6,1.1c1.2,0.5,2.3,1.3,3.2,2.2c1,1,1.8,2.1,2.6,3.4c0.3,0.5,0.5,1.2,0.6,1.8
			c0.1,0.7,0,1.3-0.1,2s-0.4,1.3-0.6,1.9C486.9,739.7,486.6,740.2,486.2,740.6z M523.8,756.4c-0.1,2.7-0.6,5.3-1.3,7.8
			c-0.8,2.5-1.7,4.9-2.9,7.2c-1.2,2.3-2.6,4.3-4.1,6.1c-1.6,1.8-3.2,3.3-5,4.4c-1.9,1.2-3.9,2-6,2.4c-2.1,0.4-4.2,0.2-6.1-0.4
			c-4.3-1.4-7.5-5-9.3-10.3c-0.8-2.2-1.3-4.6-1.4-7.1c-0.1-2.5,0-5,0.3-7.5c0.4-2.5,0.9-5,1.7-7.4c0.8-2.4,1.8-4.7,2.9-6.7
			c1.2-2.3,2.6-4.3,4.1-6.1c1.5-1.8,3.2-3.3,4.9-4.5c2.1-1.5,4.1-2.4,6.1-2.7c2-0.3,3.8-0.2,5.5,0.5c1.7,0.6,3.2,1.7,4.6,3.2
			c1.4,1.5,2.6,3.3,3.5,5.4c1,2.1,1.7,4.6,2.1,7.2C523.8,750.4,524,753.3,523.8,756.4z M560.4,764.2c-0.5,3.3-1,6.7-1.5,10
			c-0.4,3.3-0.8,6.7-1.2,10c-0.2,1.5-0.7,2.7-1.5,3.7c-0.8,0.9-1.8,1.5-2.7,1.5c-0.5,0-1-0.2-1.4-0.5c-0.4-0.3-0.8-0.7-1.1-1.2
			c-0.3-0.5-0.5-1.1-0.6-1.7c-0.1-0.6-0.2-1.3-0.1-2c0.5-4.4,1.1-8.8,1.7-13.2c0.6-4.4,1.4-8.7,2.2-13.2c-1,1.4-1.9,2.8-2.9,4.2
			c-1,1.4-2,2.7-3,3.9c-0.8,0.9-1.6,1.8-2.4,2.7c-0.9,0.9-1.8,1.5-2.7,1.7c-0.7,0.2-1.4,0.2-2,0c-0.6-0.2-1.1-0.5-1.6-0.9
			c-0.5-0.5-0.9-1-1.2-1.7c-0.4-0.7-0.7-1.4-0.9-2.3c-0.6-2.2-1.3-4.5-1.9-6.7c-0.6-2.2-1.3-4.5-1.9-6.7c-0.3,3.4-0.5,6.8-0.6,10.1
			c-0.1,3.3-0.1,6.7-0.1,10.1c0,2,0,4,0.1,6c0.1,2,0.2,4,0.3,5.9c0.1,1.4-0.2,2.7-0.9,3.9c-0.7,1.2-1.5,1.9-2.5,2.3
			c-0.5,0.2-1,0.2-1.5,0.1c-0.5-0.1-0.9-0.4-1.3-0.8c-0.4-0.4-0.7-0.9-0.9-1.4c-0.3-0.5-0.4-1.2-0.4-1.8c-0.3-4.9-0.4-9.7-0.4-14.6
			c0-4.9,0.2-9.8,0.5-14.7c0.1-2.1,0.3-4.3,0.4-6.3c0.2-2.1,0.3-4.2,0.6-6.3c0.1-1.1,0.3-2.4,0.4-3.8c0.1-1.4,0.4-2.8,0.7-4.1
			c0.3-1.3,0.8-2.5,1.4-3.5c0.6-1,1.5-1.7,2.5-1.9c0.7-0.1,1.3-0.1,1.8,0.2c0.5,0.3,1,0.6,1.3,1.1c0.4,0.5,0.7,1.1,1.1,1.8
			c0.3,0.7,0.6,1.3,0.9,2c0.3,0.8,0.6,1.7,0.9,2.5c0.2,0.8,0.5,1.7,0.7,2.5c0.5,1.9,1.1,3.8,1.6,5.8c0.5,1.9,1.1,3.9,1.6,5.8
			c0.3,0.9,0.6,1.9,0.8,2.8c0.3,0.9,0.5,1.9,0.8,2.8c0.1,0.1,0.1,0.1,0.1,0.1c0,0,0,0.1,0,0.1c0.3-0.4,0.4-0.5,0.7-0.9
			c0.5-0.6,0.9-1.2,1.4-1.8c0.5-0.6,0.9-1.2,1.3-1.8c0.9-1.3,1.9-2.6,2.8-4c0.9-1.4,1.9-2.7,2.8-3.9c1-1.3,1.9-2.5,3-3.6
			c1-1.2,2.1-2.2,3.2-3.2c0.6-0.6,1.3-0.8,2-0.7c0.7,0.1,1.3,0.5,1.8,1.1c0.6,0.7,0.9,1.5,1,2.5c0.1,0.9,0,2-0.2,3
			c-0.6,3.1-1.3,6.3-1.8,9.4C561.5,757.7,560.9,760.9,560.4,764.2z M587.9,736.3c-0.2,0.7-0.5,1.2-0.9,1.7c-0.4,0.5-0.8,0.9-1.2,1.2
			c-0.5,0.3-1,0.5-1.4,0.5c-1.1,0-2.4-0.2-3.6-0.2c-1.2,0-2.4,0-3.6,0c-0.6,0-1.2,0-1.8,0c-0.6,0-1.2,0.1-1.8,0.1
			c-0.2,0-0.4,0-0.6,0c-0.2,0-0.5,0-0.7,0c-0.2,1.8-0.3,3.5-0.5,5.3c-0.2,1.8-0.3,3.6-0.4,5.4c1.8,0,2.7,0,4.5,0
			c1,0,1.8,0.5,2.4,1.5c0.6,1,0.8,2.2,0.8,3.6c0,0.7-0.2,1.4-0.4,2c-0.2,0.6-0.6,1.2-0.9,1.6c-0.4,0.5-0.8,0.8-1.3,1.1
			c-0.5,0.3-0.9,0.4-1.4,0.4c-1.7,0-2.6,0-4.3,0c-0.1,2.4-0.3,4.8-0.4,7.1c-0.2,2.4-0.2,4.9-0.4,7.3c-0.1,1-0.1,1.8,0.1,2.3
			c0.1,0.5,0.4,0.9,0.7,1.1c0.3,0.2,0.7,0.4,1.1,0.4c0.4,0,0.9-0.1,1.4-0.2c1.1-0.3,2.2-0.6,3.3-0.8c1.1-0.2,2.3-0.6,3.4-0.9
			c1-0.3,1.9-0.1,2.7,0.5c0.8,0.6,1.3,1.6,1.5,3c0.1,0.6,0.1,1.3,0,2c-0.1,0.7-0.3,1.4-0.6,2c-0.3,0.6-0.6,1.2-1,1.6
			c-0.4,0.5-0.9,0.8-1.3,0.9c-1.5,0.4-3,0.8-4.5,1.1c-1.5,0.3-3,0.6-4.6,0.9c-0.7,0.1-1.4,0.2-2.2,0.2c-0.7,0-1.4,0-2.1-0.2
			c-0.7-0.2-1.3-0.5-1.9-0.9c-0.6-0.4-1.1-1-1.6-1.8c-0.7-1.2-1.2-2.6-1.4-4.2c-0.2-1.5-0.3-3.1-0.3-4.7c0-1.6,0.1-3.2,0.2-4.8
			c0.1-1.6,0.2-3.2,0.3-4.8c0.2-3.4,0.4-6.8,0.7-10.2c0.2-3.4,0.4-6.8,0.6-10.2c0.1-1.6,0.2-3.2,0.3-4.8c0.1-1.6,0.3-3.2,0.6-4.7
			c0.4-1.9,1.1-3.7,2.1-5.2c1-1.5,2.1-2.5,3.4-3.1c1.1-0.5,2.3-0.8,3.5-0.7c1.2,0,2.4,0,3.5,0c1.2,0,2.3,0,3.5,0
			c1.2,0,2.4,0.1,3.6,0.1c1,0.1,1.8,0.6,2.3,1.5c0.6,0.9,0.8,2.1,0.8,3.6C588.3,735,588.2,735.6,587.9,736.3z M633.2,736.3
			c-0.2,0.7-0.5,1.3-0.9,1.8c-0.4,0.5-0.8,0.9-1.2,1.2c-0.4,0.2-0.9,0.4-1.4,0.5c-1,0.3-2,0.5-3,0.7c-1,0.2-2,0.4-3.1,0.5
			c0,0,0,0,0,0.1c-0.4,7.4-0.8,14.7-1.1,22.1c-0.4,7.4-0.7,14.8-1.1,22.1c-0.1,1.5-0.5,2.7-1.2,3.8c-0.7,1-1.7,1.6-2.7,1.7
			c-0.5,0.1-0.9,0-1.4-0.3c-0.4-0.3-0.8-0.6-1.1-1.1c-0.3-0.5-0.6-1-0.7-1.6c-0.2-0.6-0.2-1.3-0.2-2c0.4-7.2,0.8-14.5,1.2-21.7
			c0.4-7.3,0.9-14.5,1.3-21.8c-1.2,0.2-2.5,0.3-3.7,0.4c-1.2,0.1-2.4,0.2-3.6,0.3c-1,0.1-1.8-0.4-2.4-1.4c-0.6-1-0.9-2.2-0.8-3.6
			c0-0.7,0.1-1.4,0.4-2c0.2-0.7,0.5-1.2,0.9-1.7c0.4-0.5,0.8-0.9,1.2-1.2c0.5-0.3,0.9-0.5,1.4-0.5c3.4-0.2,6.8-0.7,10.1-1.2
			c3.4-0.5,6.7-1.1,10.1-1.9c0.5-0.1,0.9,0,1.4,0.3c0.4,0.3,0.8,0.6,1.1,1.1c0.3,0.5,0.5,1,0.7,1.7c0.2,0.6,0.2,1.3,0.2,1.9
			C633.6,734.9,633.5,735.6,633.2,736.3z M641.8,758.4c-0.1,7.2-0.2,14.4-0.2,21.5c0,1.5-0.4,2.7-1.2,3.7c-0.8,1-1.7,1.6-2.7,1.8
			c-0.5,0.1-1,0-1.4-0.3c-0.4-0.3-0.8-0.6-1.1-1.1s-0.6-1-0.8-1.7c-0.2-0.6-0.3-1.3-0.2-2c0.1-14.4,0.4-28.8,1.1-43
			c0.1-1.5,0.5-2.7,1.1-3.7c0.7-1,1.5-1.6,2.5-1.8c0.5-0.1,0.9,0,1.3,0.3c0.4,0.3,0.8,0.6,1.1,1.1c0.3,0.5,0.6,1,0.7,1.6
			c0.2,0.6,0.3,1.3,0.2,2C642.2,744,641.9,751.2,641.8,758.4z M692.1,784.7c-0.2,0.6-0.5,1.2-0.8,1.7c-0.3,0.5-0.7,0.9-1.2,1.2
			c-0.5,0.3-0.9,0.5-1.3,0.6c-0.5,0.1-1-0.1-1.5-0.4c-0.5-0.3-0.9-0.6-1.2-1c-0.4-0.5-0.7-1.1-0.8-1.7c-0.2-0.6-0.3-1.3-0.4-2
			c-0.2-1.8-0.3-3.3-0.4-4.4c-0.1-1.1-0.2-2-0.3-2.6c-0.1-0.6-0.1-1.1-0.2-1.5c0-0.3-0.1-0.6-0.1-0.9c0-0.1,0-0.1,0-0.1
			c0-0.1,0-0.2,0-0.3c0-0.1,0-0.2,0-0.3c-1.1,0.1-2.3,0.3-3.6,0.4c-1.3,0.2-2.7,0.3-4,0.5c-1.3,0.2-2.7,0.3-3.9,0.5
			c-1.3,0.1-2.4,0.3-3.4,0.4c-0.3,1.7-0.5,3.3-0.7,4.9c-0.2,1.6-0.5,3.3-0.7,5c-0.1,0.7-0.3,1.4-0.6,1.9c-0.3,0.6-0.7,1-1.1,1.3
			c-0.4,0.3-0.9,0.6-1.4,0.7c-0.5,0.1-1,0.1-1.4,0c-1-0.3-1.8-1.1-2.2-2.3c-0.4-1.2-0.6-2.5-0.4-3.9c0.6-4.4,1.2-8.6,2-12.8
			c0.8-4.2,1.7-8.4,2.7-12.6c0.5-2,1-4,1.5-5.9c0.5-1.9,1.1-3.9,1.6-5.9c0.5-1.7,1-3.4,1.5-5.2c0.5-1.7,1.1-3.4,1.8-5.1
			c0.4-0.9,0.8-1.8,1.3-2.8c0.5-1,1.1-1.9,1.7-2.7c0.6-0.8,1.2-1.4,1.9-2c0.7-0.5,1.5-0.8,2.3-0.7c1.5,0.1,2.8,0.8,3.8,2.2
			c1,1.3,1.8,3,2.5,4.9c0.7,1.9,1.2,4,1.6,6.2c0.4,2.2,0.7,4.2,1,6c0.3,2,0.6,4,0.9,5.9c0.3,2,0.6,4,0.9,6c0.6,4.1,1.1,8.2,1.5,12.2
			c0.5,4.1,0.9,8.2,1.4,12.3C692.3,783.4,692.3,784.1,692.1,784.7z M699.7,779.2c-0.7,1-1.6,1.6-2.6,1.8c-0.5,0.1-1,0-1.4-0.3
			c-0.4-0.3-0.8-0.6-1.2-1.1c-0.4-0.5-0.6-1-0.9-1.7c-0.2-0.6-0.3-1.3-0.4-2c-0.6-14.4-1.1-28.8-1.2-43.1c0-1.5,0.3-2.7,1-3.8
			c0.6-1,1.4-1.6,2.4-1.8c0.5-0.1,0.9,0,1.4,0.3c0.4,0.3,0.8,0.6,1.2,1.1c0.3,0.5,0.6,1,0.8,1.6c0.2,0.6,0.3,1.3,0.4,2
			c0.2,7.1,0.3,14.4,0.6,21.5c0.3,7.2,0.6,14.4,1,21.6C700.7,776.9,700.4,778.1,699.7,779.2z M728.6,761.1c-0.1,2.1-0.4,4.2-0.7,6.3
			c-0.3,1.8-0.8,3.6-1.4,5.3c-0.6,1.7-1.4,3.2-2.2,4.6c-0.8,1.3-1.8,2.5-2.8,3.4c-1,0.9-2.1,1.5-3.3,1.7c-2,0.5-3.9,0.2-5.5-0.8
			c-1.6-1-3.1-2.4-4.4-4.3c-1.3-1.9-2.4-4-3.2-6.5c-0.9-2.5-1.6-4.9-2-7.3c-0.5-2.3-0.9-4.7-1.1-7.1c-0.3-2.4-0.5-4.9-0.7-7.3
			c-0.2-2.5-0.3-4.9-0.4-7.4c-0.1-2.4-0.2-4.9-0.3-7.2c0-1.5,0.3-2.7,0.9-3.7c0.6-1,1.4-1.6,2.4-1.8c0.5-0.1,1,0,1.4,0.3
			c0.4,0.3,0.8,0.6,1.2,1.1c0.3,0.5,0.6,1,0.8,1.6c0.2,0.6,0.3,1.3,0.3,2c0,4.2,0.2,8.5,0.5,12.9c0.3,4.4,0.9,8.8,1.8,13.2
			c0.7,3.1,1.5,5.6,2.5,7.5c1,1.9,1.9,3.1,2.9,3.5c1,0.5,1.9,0.2,2.8-0.9c0.9-1,1.7-2.9,2.3-5.7c0.5-2.1,0.8-4.3,0.9-6.5
			c0.1-2.2,0.1-4.6,0-7.1c-0.2-3.2-0.5-6.5-1-9.6c-0.5-3.2-1-6.5-1.6-10c-0.2-1.4-0.2-2.7,0.2-3.9c0.4-1.2,1-2.1,2-2.7
			c0.4-0.2,0.9-0.3,1.3-0.2c0.5,0.1,0.9,0.3,1.4,0.6c0.4,0.3,0.8,0.8,1.1,1.3c0.3,0.5,0.6,1.1,0.7,1.8c0.8,4.3,1.6,8.7,2.2,13.1
			c0.6,4.4,1,8.9,1.1,13.4C728.8,756.9,728.7,759,728.6,761.1z M756.1,728.3c-0.2,0.7-0.4,1.2-0.7,1.7c-0.3,0.5-0.7,0.9-1.1,1.1
			c-0.4,0.2-0.8,0.3-1.3,0.4c-1,0.2-2,0.4-3,0.5c-1,0.1-2,0.3-3,0.4c0,0,0,0,0,0.1c0.5,7.4,0.9,14.8,1.4,22.2
			c0.5,7.4,1,14.8,1.4,22.2c0.1,1.5-0.2,2.7-0.8,3.7c-0.6,1-1.5,1.5-2.5,1.6c-0.5,0-1,0-1.4-0.3c-0.5-0.3-0.9-0.7-1.3-1.1
			c-0.4-0.5-0.7-1-0.9-1.7c-0.2-0.6-0.4-1.3-0.4-2c-0.5-7.2-0.8-14.6-1.3-21.8c-0.4-7.3-0.8-14.6-1.2-21.9c-1.2,0.1-2.4,0.3-3.6,0.3
			c-1.2,0.1-2.4,0.2-3.6,0.3c-1,0.1-1.9-0.4-2.6-1.4c-0.7-1-1.1-2.2-1.3-3.6c-0.1-0.7,0-1.4,0.1-2.1c0.2-0.7,0.4-1.2,0.7-1.7
			c0.3-0.5,0.7-0.9,1.1-1.2c0.4-0.3,0.9-0.5,1.3-0.5c3.3-0.2,6.7-0.6,10.1-1c3.3-0.4,6.7-0.9,10-1.5c0.5-0.1,0.9,0.1,1.4,0.3
			c0.5,0.3,0.9,0.7,1.2,1.2c0.3,0.5,0.6,1.1,0.9,1.7c0.2,0.6,0.4,1.3,0.4,1.9C756.3,727,756.3,727.7,756.1,728.3z M768.8,776.6
			c-0.7,1-1.5,1.5-2.5,1.6c-0.5,0-1-0.1-1.5-0.4c-0.5-0.3-0.9-0.7-1.3-1.2s-0.7-1.1-1-1.7c-0.3-0.7-0.4-1.3-0.5-2
			c-1.5-14.4-2.8-28.9-3.8-43.3c-0.1-1.5,0.1-2.7,0.7-3.7c0.6-1,1.4-1.5,2.3-1.6c0.5,0,0.9,0.1,1.4,0.4c0.4,0.3,0.9,0.7,1.2,1.2
			c0.4,0.5,0.7,1.1,0.9,1.7c0.3,0.7,0.4,1.3,0.5,2.1c0.6,7.2,1.2,14.4,1.9,21.6c0.7,7.2,1.5,14.5,2.3,21.7
			C769.7,774.4,769.5,775.7,768.8,776.6z M803.3,783.1c-0.1,0.6-0.3,1.1-0.6,1.6c-0.3,0.5-0.7,0.8-1.1,1c-0.4,0.2-0.9,0.4-1.3,0.4
			c-0.5,0-1-0.2-1.5-0.6c-0.5-0.3-1-0.7-1.3-1.1c-0.4-0.5-0.8-1.2-1-1.8c-0.2-0.6-0.4-1.3-0.6-2.1c-0.4-1.8-0.6-3.3-0.8-4.5
			c-0.2-1.1-0.4-2-0.5-2.7c-0.1-0.7-0.2-1.2-0.3-1.5c-0.1-0.3-0.1-0.7-0.2-0.9c0-0.1,0-0.1,0-0.1c0-0.1,0-0.2-0.1-0.3
			c0-0.1,0-0.2-0.1-0.3c-1.1,0-2.3,0-3.6-0.1c-1.3,0-2.7,0-4,0c-1.3,0-2.6,0-3.9,0c-1.3,0-2.4,0-3.4,0c-0.1,1.6-0.2,3.3-0.3,4.9
			c-0.1,1.6-0.2,3.3-0.2,4.9c0,0.7-0.1,1.3-0.4,1.9c-0.3,0.5-0.6,0.9-1,1.2c-0.4,0.3-0.8,0.5-1.3,0.6c-0.5,0.1-1,0.1-1.4-0.1
			c-1.1-0.4-1.9-1.2-2.4-2.5c-0.6-1.3-0.8-2.6-0.8-3.9c0.1-4.3,0.4-8.6,0.8-12.7c0.4-4.2,0.9-8.3,1.5-12.4c0.3-2,0.6-3.9,0.9-5.8
			c0.4-1.9,0.7-3.8,1.1-5.7c0.3-1.7,0.7-3.4,1-5.1c0.3-1.7,0.8-3.3,1.3-4.9c0.3-0.9,0.7-1.8,1.1-2.7c0.4-0.9,0.9-1.8,1.4-2.5
			c0.5-0.7,1.1-1.3,1.8-1.7c0.7-0.4,1.4-0.6,2.3-0.4c1.5,0.3,2.9,1.2,4,2.7c1.1,1.5,2.2,3.2,3,5.3c0.9,2,1.6,4.2,2.2,6.5
			c0.6,2.3,1.2,4.3,1.6,6.2c0.5,2,1,4.1,1.5,6.1c0.5,2,1,4.1,1.5,6.1c1,4.2,1.9,8.4,2.8,12.5c0.9,4.2,1.7,8.4,2.6,12.6
			C803.5,781.8,803.4,782.5,803.3,783.1z M838.1,783.5c-0.6,0.8-1.4,1.3-2.4,1.1c-0.5-0.1-1-0.3-1.5-0.7c-0.5-0.4-0.9-0.8-1.3-1.3
			c-0.4-0.5-0.8-1.2-1.1-1.8c-0.3-0.7-0.5-1.4-0.6-2.1c-0.6-4.5-1.1-9-1.6-13.4c-0.5-4.4-0.8-8.9-1.1-13.3c-0.6,1.3-1.2,2.7-1.8,4
			c-0.6,1.3-1.3,2.6-2,3.8c-0.5,0.9-1.1,1.7-1.7,2.6c-0.6,0.8-1.4,1.3-2.3,1.5c-0.7,0.1-1.3,0.1-1.9-0.1c-0.6-0.2-1.2-0.6-1.8-1.1
			c-0.6-0.5-1.1-1.1-1.6-1.8s-1-1.5-1.4-2.4c-1.2-2.3-2.4-4.7-3.6-7c-1.2-2.3-2.4-4.6-3.5-6.9c0.5,3.5,1.2,6.9,2,10.3
			c0.8,3.4,1.6,6.8,2.4,10.4c0.5,2.1,1,4.1,1.6,6.1c0.6,2,1.2,4.1,1.8,6.1c0.4,1.4,0.5,2.7,0.1,3.9c-0.3,1.2-1,1.9-1.9,2.3
			c-0.4,0.2-0.9,0.2-1.4,0.1c-0.5-0.1-1-0.4-1.4-0.8c-0.5-0.4-0.9-0.9-1.3-1.4c-0.4-0.6-0.7-1.2-0.9-1.9c-1.5-4.9-2.8-9.9-4-14.9
			c-1.2-4.9-2.2-10-3.1-15c-0.4-2.2-0.8-4.3-1.1-6.5c-0.3-2.1-0.7-4.3-1-6.4c-0.2-1.1-0.3-2.5-0.5-3.9c-0.2-1.5-0.3-2.9-0.4-4.2
			c0-1.3,0.1-2.5,0.5-3.6c0.3-1,1-1.7,2-1.9c0.6-0.1,1.3-0.1,1.8,0.2c0.6,0.3,1.1,0.7,1.6,1.2c0.5,0.5,1,1.1,1.5,1.8
			c0.5,0.7,0.9,1.4,1.4,2.1c0.5,0.9,1,1.7,1.5,2.6c0.4,0.9,0.9,1.7,1.3,2.6c1,2,2,4,3,6c1,2,2,4,3.1,6c0.5,1,1,1.9,1.5,2.9
			c0.5,1,1,2,1.5,2.9c0.1,0.1,0.1,0.1,0.1,0.1c0,0,0,0.1,0.1,0.1c0.2-0.3,0.3-0.5,0.5-0.9c0.3-0.6,0.6-1.2,0.9-1.8
			c0.3-0.6,0.6-1.2,0.9-1.8c0.6-1.3,1.2-2.5,1.8-3.8c0.6-1.3,1.2-2.6,1.8-3.8c0.6-1.2,1.3-2.3,2-3.4c0.7-1.1,1.5-2,2.4-2.8
			c0.5-0.5,1.1-0.6,1.9-0.4c0.7,0.2,1.4,0.7,2.1,1.4c0.8,0.8,1.3,1.8,1.6,2.7c0.3,1,0.5,2,0.6,3.1c0.2,3.1,0.3,6.3,0.5,9.5
			c0.2,3.1,0.5,6.4,0.8,9.8c0.3,3.4,0.6,6.8,1,10.2c0.4,3.4,0.9,6.8,1.3,10.2C838.8,781.4,838.6,782.6,838.1,783.5z M873.1,777.2
			c-0.4,2.2-1.1,4.1-2.1,5.8c-0.9,1.7-2.1,3-3.4,4c-1.5,1-3.2,1.6-5,1.8c-1.9,0.2-3.9-0.1-6-0.9c-5.2-2-9.2-6.3-12.1-11.1
			c-1.4-2.3-2.6-4.8-3.5-7.4c-0.9-2.6-1.6-5.2-2.1-7.8c-0.4-2.6-0.7-5.1-0.7-7.7c0-2.5,0.2-4.9,0.6-7c0.4-2.3,1.1-4.4,2-6.3
			c0.9-1.8,2-3.4,3.3-4.6c1.5-1.5,3.2-2.3,4.9-2.5c1.8-0.2,3.6,0.1,5.4,1c1.8,0.8,3.6,2.1,5.4,3.9c1.8,1.8,3.5,3.9,5.1,6.3
			c1.6,2.4,3,5.1,4.4,8.1c1.3,2.9,2.4,6,3.2,9.3c0.7,2.8,1.1,5.5,1.2,8.1C873.8,772.6,873.6,775,873.1,777.2z"/>
		<path class="st0" d="M864,756.3c-0.6-1.4-1.3-2.8-2-4.1c-0.7-1.3-1.6-2.5-2.5-3.6c-0.9-1.1-1.8-2-2.9-2.8
			c-1.7-1.3-3.2-1.9-4.5-1.8c-1.3,0.1-2.4,0.7-3.3,1.8c-0.9,1.1-1.6,2.6-2.1,4.4c-0.5,1.9-0.7,3.9-0.8,6c-0.1,2.2,0.1,4.4,0.5,6.7
			s1.1,4.4,2,6.3c1.1,2.3,2.5,4.4,4.1,6c1.6,1.6,3.4,2.6,5.4,2.8c1.6,0.2,3-0.2,4.2-1.1c1.2-0.9,2.2-2.2,3-4c0.6-1.5,1-3.4,1.1-5.5
			c0.1-2.1-0.1-4.4-0.8-6.8C865.1,759.2,864.6,757.8,864,756.3z"/>
	</g>
</g>
</svg>
