<?xml version="1.0" encoding="utf-8"?>
<!-- Generator: Adobe Illustrator 25.2.3, SVG Export Plug-In . SVG Version: 6.00 Build 0)  -->
<svg version="1.0" id="Layer_1" xmlns="http://www.w3.org/2000/svg" xmlns:xlink="http://www.w3.org/1999/xlink" x="0px" y="0px"
	 viewBox="0 0 1024 1024" style="enable-background:new 0 0 1024 1024;" xml:space="preserve">
<style type="text/css">
	.st0{fill:#F2F2F2;}
	.st1{fill:#FFFFFF;}
	.st2{fill:#2D224C;}
</style>
<g>
	<path class="st0" d="M700.3,456.7c-2.4-3.8-13-1.5-23.7,5.2c-3.3-1.3-7-1.2-10.1,0.7c-1.3,0.8-2.3,1.8-3.1,3
		c-3.3-2.1-7.4-2.5-10.7-0.4c-2.3,1.5-3.8,3.8-4.3,6.4c-5.2-2.1-11.1-2-16,1.1c-1.7,1.1-3.1,2.5-4.3,4c-6.1-4.8-14.3-5.7-20.7-1.7
		c-1.7,1-3.1,2.3-4.2,3.8c-23.8-12.9-81.2-37.1-119.1,1.8c-3.6,3.7-9.6,3.9-13.4,0.3c-33.7-32.4-88.4-39.6-119.7-18.4
		c-2.4,1.7-5.5,2.1-8.3,1.2c-55.3-18.3-135-15.1-162.8,36c-0.1,0.2-0.2,0.4-0.4,0.6c-1.3,1.9-2.2,4.1-3,6.4
		c-9.1-2.4-26.5-6.2-45.9-6.4V855c1.9-0.6,3.7-1.4,5.4-2.5c2-1.3,3.8-2.8,5.2-4.5c2.9-0.5,5.7-1.2,8.4-2.2c11.7,2,23.8,0,34.3-6.5
		c13.1-8.2,20.9-22,22.5-37c0.8-0.6,1.6-1.3,2.5-1.9c11.5,1.9,23.4-0.1,33.7-6.6c7.8-4.9,13.6-11.7,17.5-19.5
		c7.7,0.6,15.5-1.2,22.3-5.4c5.8-3.6,10.2-8.7,13.2-14.5c15.3,5.8,32.4,4.9,46.5-4c11.5-7.2,19.1-18.5,22.3-31.2
		c6,0.5,12.1-0.7,17.4-4.1c3.5-2.2,6.3-5.1,8.5-8.3c2.8,0.1,5.6,0.2,8.5,0.2c64.3,0,118.8-28.7,137.5-68.2
		c25.9-5.2,43.8-11.5,59.4-25.5c28.6-25.7,34.5-63.8,35.6-86.7l0.8-0.8c4.1,0.7,8.2,0,11.9-2.3c5.8-3.6,8.5-10.2,7.9-17
		c0.4-0.2,0.9-0.4,1.3-0.6c3.4-2.1,5.8-5.4,7-9l2.5-2.6c2.1,0.1,4.1-0.4,6-1.6c2.7-1.7,4.4-4.4,4.9-7.4c2.1,0.1,4.2-0.4,6.1-1.6
		c2.7-1.7,4.4-4.4,4.9-7.4c0.2-0.1,0.5-0.3,0.7-0.4c5.6-3.5,10.1-7.5,12.7-11.1c14.9-7.1,36.9-15.6,43.7-18l-40.9,12.2
		C700.8,458,700.7,457.3,700.3,456.7z"/>
	<g>
		<g>
			<g>
				<path class="st1" d="M696.3,246.1c0,0-21.6,11.8-11.3,37.7c10.3,25.9,11.8,39.6,41.1,32.5c17.6-4.2,20.8-44.5,6.6-63.4
					C723.2,240.3,696.3,246.1,696.3,246.1z"/>
				<path class="st2" d="M726,317.8c-27.1,6.4-31.5-5.1-39.4-25.9c-0.9-2.4-1.9-4.9-2.9-7.5c-5.5-13.9-2-23.9,1.9-29.8
					c4.3-6.4,9.8-9.5,10-9.6c0.1-0.1,0.2-0.1,0.4-0.1c1.1-0.2,27.9-5.8,37.8,7.4c4.6,6.2,7.8,14.9,8.8,24.8c1,9.2,0,18.8-2.6,26.1
					c-2.9,8.2-7.6,13.3-13.5,14.7C726.3,317.7,726.2,317.7,726,317.8z M696.8,247.4c-0.9,0.6-5.4,3.4-8.9,8.7
					c-5.1,7.8-5.7,16.9-1.6,27.2c1.1,2.7,2,5.2,2.9,7.6c4,10.4,6.8,17.9,11.8,22.1c5.2,4.3,12.6,4.9,24.8,2
					c6.3-1.5,9.7-7.8,11.6-12.9c4.8-13.2,3.9-35.4-5.8-48.3C723.2,242.6,699.3,246.9,696.8,247.4z"/>
			</g>
			<g>
				<g>
					<g>
						<path class="st1" d="M780.5,246.8c-17.9-10.1-22.4-21.6-30.7-17.3c-10.4,5.4-8.8,17.3-1.2,22.9c7.6,5.6,22.3,13.5,24.4,14.1
							c9.9,3,25.7,6.7,29.7,3.9l4-16.4C802.5,251.6,783.2,248.3,780.5,246.8z"/>
						<path class="st2" d="M801.4,272.4c-7.1,1.7-23.5-3-28.8-4.6c-2.3-0.7-17.2-8.7-24.8-14.3c-4.5-3.3-7.1-8.7-6.7-13.9
							c0.4-4.8,3.2-8.9,8.1-11.4c5.8-3,10,0.6,15.9,5.7c4,3.4,8.9,7.6,16.1,11.6l0,0c1,0.6,6,1.7,10.3,2.7
							c6.6,1.5,13.4,3.1,15.9,4.5c0.6,0.3,0.8,1,0.7,1.6l-4,16.4c-0.1,0.3-0.3,0.6-0.6,0.8C803,271.9,802.2,272.2,801.4,272.4z
							 M752.1,230.1c-0.5,0.1-1.1,0.3-1.6,0.6c-3.9,2-6.3,5.3-6.6,9.1c-0.3,4.2,1.9,8.7,5.6,11.4c7.5,5.5,22.1,13.3,23.9,13.9
							c13.2,4,24.8,5.8,28,4.3l3.6-14.7c-2.9-1.1-9.1-2.6-14.2-3.8c-6-1.4-9.8-2.3-11.1-3c0,0,0,0,0,0c-7.4-4.1-12.5-8.5-16.5-11.9
							C758,231.6,755.3,229.4,752.1,230.1z"/>
					</g>
					<g>
						<polygon class="st1" points="802.7,270.4 809.9,271.1 814,254.7 806.7,254 						"/>
						<path class="st2" d="M810.2,272.4c-0.1,0-0.3,0-0.5,0l-7.2-0.7c-0.4,0-0.8-0.3-1-0.6c-0.2-0.3-0.3-0.8-0.2-1.2l4-16.4
							c0.2-0.7,0.8-1.1,1.5-1.1l7.2,0.7c0.4,0,0.8,0.3,1,0.6c0.2,0.3,0.3,0.8,0.2,1.2l-4.1,16.4
							C811.1,271.9,810.7,272.3,810.2,272.4z M804.5,269.1l4.3,0.4l3.4-13.6l-4.4-0.4L804.5,269.1z"/>
					</g>
				</g>
				<g>
					<g>
						<path class="st1" d="M810,269.6c0,0,2.3,0.6,8.7,2.5c6.4,1.9,11.6,0.9,14.7-5.1c3.1-6,1.7-9.3-4.6-9.6c-2.3-0.1-5.8,1-5.8,1
							s5-1.8,4-4.5c-1.3-3.7-10,2.6-14,3.6L810,269.6z"/>
						<path class="st2" d="M827,274c-2.5,0.6-5.4,0.4-8.7-0.6c-6.2-1.8-8.6-2.4-8.7-2.4c-0.4-0.1-0.7-0.3-0.9-0.6
							c-0.2-0.3-0.3-0.7-0.2-1.1l3-12.2c0.1-0.5,0.5-0.9,1-1c1.2-0.3,2.9-1.2,4.6-2c3.6-1.8,7-3.5,9.3-2.6c0.8,0.3,1.4,1,1.7,1.8
							c0.3,0.8,0.3,1.7-0.1,2.6c0.2,0,0.5,0,0.7,0c3.5,0.2,5.8,1.2,6.9,3.1c1.2,2.1,0.8,4.9-1.1,8.5C832.9,271,830.3,273.2,827,274z
							 M811.7,268.6c1.3,0.4,3.7,1,7.4,2.1c6.4,1.9,10.5,0.5,13.1-4.4c1.4-2.7,1.8-4.7,1.1-5.8c-0.7-1.3-2.9-1.6-4.6-1.7
							c-1.7-0.1-4.4,0.6-5.3,0.9c-0.7,0.2-1.5-0.2-1.8-0.9c-0.2-0.7,0.1-1.5,0.9-1.8c1.2-0.4,3.5-1.7,3.1-2.7c0-0.1-0.1-0.1-0.1-0.2
							c-1.1-0.4-4.8,1.4-7,2.5c-1.6,0.8-3.1,1.5-4.4,2L811.7,268.6z"/>
					</g>
					<path class="st2" d="M831.3,262.9c-4.2,1-8.8,1.3-9.1,1.3c-0.8,0.1-1.4-0.5-1.5-1.3c-0.1-0.8,0.5-1.4,1.3-1.5
						c0.1,0,8.4-0.6,12.2-2.4c0.7-0.3,1.5,0,1.9,0.7c0.3,0.7,0,1.5-0.7,1.9C834.3,262.1,832.9,262.5,831.3,262.9z"/>
					<path class="st2" d="M831.6,267.2c-2.2,0.5-5.5,0.9-10,0.3c-0.8-0.1-1.3-0.8-1.2-1.6s0.8-1.3,1.6-1.2c8.3,1,11.7-1.3,11.7-1.3
						c0.6-0.5,1.5-0.3,2,0.3c0.5,0.6,0.3,1.5-0.3,2C835.2,265.8,834,266.6,831.6,267.2z"/>
					<path class="st2" d="M831.3,270.6c-2.1,0.5-6.5,1.1-11-0.4c-0.7-0.2-1.1-1-0.9-1.8c0.2-0.7,1-1.1,1.8-0.9
						c5.4,1.8,10.5,0,10.5,0c0.7-0.3,1.5,0.1,1.8,0.9c0.3,0.7-0.1,1.5-0.9,1.8C832.6,270.3,832.1,270.5,831.3,270.6z"/>
				</g>
			</g>
			<g>
				<path class="st1" d="M777.9,278.6c-5-21.3-13.5-53.8-28.3-54.7c-8.4-0.5-44.4,12.9-44.4,12.9s-1.7,2.7-5.9,7.7
					c-11.6,13.9,13.8,54.1,26.1,76.7c13.3,25.7,21.7,59.9,21.7,59.9l13.6-0.9c0,0,1.9-6.1,1.6-19.4c-0.3-14.2-1.9-49.7-1.9-49.7
					s14.6,0.5,17.3,2c2.7,1.4,12,21.6,20.2,39.2l15-5.6c0,0-11.9-44.3-15.3-49.4C794.2,292.2,779.2,284.2,777.9,278.6z"/>
				<path class="st2" d="M761,381.6c-0.1,0-0.1,0-0.2,0l-13.6,0.9c-0.7,0-1.3-0.4-1.5-1.1c-0.1-0.3-8.5-34.3-21.6-59.6
					c-1.5-2.8-3.2-5.9-5.1-9.1c-13.3-23.7-31.6-56.2-20.8-69.1c4.1-4.9,5.8-7.5,5.8-7.6c0.2-0.3,0.4-0.4,0.7-0.6
					c1.5-0.6,36.4-13.5,45-13c14.8,0.9,23.3,28.7,29.6,55.8l0,0c0.6,2.7,6.1,6.9,10.5,10.2c3.8,2.9,7.4,5.6,9,8
					c3.5,5.2,14.3,45.3,15.5,49.9c0.2,0.7-0.2,1.4-0.9,1.7l-15,5.6c-0.7,0.3-1.5-0.1-1.8-0.7l-0.6-1.3c-4-8.6-8.2-17.6-11.7-24.7
					c-5.3-10.5-6.9-12.3-7.3-12.6c-1.6-0.8-9.6-1.5-15.2-1.7c0.3,7,1.5,35.8,1.8,48.2c0.3,13.3-1.6,19.6-1.6,19.8
					C761.8,381.1,761.4,381.5,761,381.6z M748.1,379.7l11.4-0.8c0.5-2.1,1.5-8,1.3-18c-0.3-14.1-1.8-49.3-1.9-49.7
					c0-0.4,0.1-0.8,0.4-1.1c0.3-0.3,0.7-0.4,1-0.4c2.5,0.1,15.1,0.6,17.9,2.1c2.6,1.4,8.1,12.5,20.2,38.6l0.1,0.1l12.6-4.7
					c-3.5-13.1-12.2-43.9-14.8-47.8c-1.3-2-4.9-4.7-8.4-7.3c-5.5-4.2-10.7-8.1-11.6-11.8c-2.6-11.2-5.9-24.2-10.4-34.8
					c-5.1-12.1-10.7-18.5-16.6-18.8c-6.4-0.4-31,8.1-43.5,12.7c-0.6,0.9-2.4,3.4-5.8,7.5c-9.5,11.4,8.9,44.2,21.1,65.9
					c1.8,3.3,3.6,6.4,5.1,9.2C738.4,343.6,746.5,373.5,748.1,379.7z M777.9,278.6L777.9,278.6L777.9,278.6z"/>
			</g>
			<g>
				<g>
					<path class="st1" d="M813.5,346.6l-6.2-22.1c0,0-1,2.8-8.7,5.7c-4.7,1.7-11.5,1.8-11.5,1.8s7.4,16.6,8,18.8
						c2.6,8.8,1.9,7.9,5.3,17.1l35.7-13.2C836.4,344.5,827.1,337.7,813.5,346.6z"/>
					<path class="st2" d="M800.8,369.3c-0.3,0.1-0.6,0-0.9-0.1c-0.3-0.2-0.6-0.4-0.7-0.8c-2.2-6-2.7-7.8-3.5-10.7
						c-0.4-1.5-0.9-3.4-1.8-6.5c-0.4-1.5-5-12-8-18.6c-0.2-0.4-0.2-0.9,0.1-1.3c0.3-0.4,0.7-0.6,1.2-0.6c0.1,0,6.6-0.1,11.1-1.8
						c6.3-2.3,7.7-4.6,7.8-4.8c0.2-0.6,0.7-1,1.3-1c0.6,0,1.2,0.5,1.4,1.1l5.7,20.3c8.5-5,14.2-3.3,16.9-1.8c4,2.2,6.4,6.8,6.2,12.1
						c0,0.6-0.4,1.1-0.9,1.3l-35.7,13.2C800.9,369.3,800.8,369.3,800.8,369.3z M789.3,333.3c2,4.5,6.7,15.3,7.3,17.1
						c0.9,3.1,1.4,5,1.8,6.5c0.7,2.6,1.1,4.3,2.9,9.2l33.5-12.4c-0.2-3.9-1.9-7-4.8-8.7c-4-2.2-9.7-1.2-15.6,2.7
						c-0.4,0.2-0.8,0.3-1.3,0.1c-0.4-0.2-0.7-0.5-0.9-0.9l-5.5-19.5c-1.4,1.2-3.7,2.6-7.5,4.1C795.9,332.7,791.7,333.1,789.3,333.3z
						"/>
				</g>
				<g>
					<path class="st1" d="M837.1,357c-0.8,0.3-0.5,1-1.4,1.3c-0.8,0.3-1.1-0.4-1.9-0.1c-0.8,0.3-0.5,1-1.4,1.3
						c-0.8,0.3-1.1-0.4-1.9-0.1c-0.8,0.3-0.5,1-1.4,1.3c-0.8,0.3-1.1-0.4-1.9-0.1c-0.8,0.3-0.5,1-1.4,1.3c-0.8,0.3-1.1-0.4-1.9-0.1
						c-0.8,0.3-0.5,1-1.4,1.3c-0.8,0.3-1.1-0.4-1.9-0.1c-0.8,0.3-0.5,1-1.4,1.3c-0.8,0.3-1.1-0.4-1.9-0.1c-0.8,0.3-0.5,1-1.4,1.3
						c-0.8,0.3-1.1-0.4-1.9-0.1c-0.8,0.3-0.5,1-1.4,1.3c-0.8,0.3-1.1-0.4-1.9-0.1c-0.8,0.3-0.5,1-1.4,1.3c-0.8,0.3-1.1-0.4-1.9-0.1
						c-0.8,0.3-0.5,1-1.4,1.3c-0.8,0.3-1.1-0.4-1.9-0.1c-0.8,0.3-0.5,1-1.4,1.3c-0.8,0.3-1.1-0.4-1.9-0.1l-0.9-2.4l35.8-13.3
						L837.1,357z"/>
					<path class="st2" d="M803.4,371.8c-0.8,0.2-1.3,0-1.6-0.2c0,0,0,0,0,0c-0.7,0.2-1.4-0.2-1.7-0.9l-0.9-2.4
						c-0.1-0.3-0.1-0.7,0-1.1c0.2-0.3,0.4-0.6,0.8-0.7l35.8-13.3c0.7-0.3,1.5,0.1,1.8,0.8l0.9,2.4c0.3,0.7-0.1,1.5-0.7,1.8
						c0,0,0,0,0,0c-0.2,0.3-0.5,1-1.4,1.3c-0.8,0.3-1.5,0.1-1.9,0c-0.2,0.4-0.5,0.9-1.4,1.2c-0.8,0.3-1.5,0.1-1.9,0
						c-0.2,0.4-0.5,0.9-1.4,1.2c-0.8,0.3-1.5,0.1-1.9,0c-0.2,0.4-0.5,0.9-1.4,1.2c-0.8,0.3-1.5,0.1-1.9,0c-0.2,0.4-0.5,0.9-1.4,1.2
						c-0.8,0.3-1.5,0.1-1.9,0c-0.2,0.4-0.5,0.9-1.4,1.2c-0.8,0.3-1.5,0.1-1.9,0c-0.2,0.4-0.5,0.9-1.4,1.2c-0.8,0.3-1.5,0.1-1.9,0
						c-0.2,0.4-0.5,0.9-1.4,1.2c-0.8,0.3-1.5,0.1-1.9,0c-0.2,0.4-0.5,0.9-1.4,1.2c-0.8,0.3-1.5,0.1-1.9,0c-0.2,0.4-0.5,0.9-1.4,1.2
						c-0.8,0.3-1.5,0.1-1.9,0c-0.2,0.4-0.5,0.9-1.4,1.2C803.6,371.8,803.5,371.8,803.4,371.8z M802.3,368.9c0.2,0,0.3,0.1,0.4,0.1
						c0.1-0.2,0.2-0.4,0.4-0.6l-0.9,0.3L802.3,368.9z M805.3,367.6c0.3,0,0.5,0.1,0.7,0.2c0.1-0.2,0.2-0.4,0.4-0.6L805.3,367.6z
						 M808.5,366.4c0.3,0,0.5,0.1,0.7,0.2c0.1-0.2,0.2-0.4,0.4-0.6L808.5,366.4z M811.8,365.2c0.3,0,0.5,0.1,0.7,0.2
						c0.1-0.2,0.2-0.4,0.4-0.6L811.8,365.2z M815,364c0.3,0,0.5,0.1,0.7,0.2c0.1-0.2,0.2-0.4,0.4-0.6L815,364z M818.3,362.8
						c0.3,0,0.5,0.1,0.7,0.2c0.1-0.2,0.2-0.4,0.4-0.6L818.3,362.8z M821.5,361.6c0.3,0,0.5,0.1,0.7,0.2c0.1-0.2,0.2-0.4,0.4-0.6
						L821.5,361.6z M824.8,360.4c0.3,0,0.5,0.1,0.7,0.2c0.1-0.2,0.2-0.4,0.4-0.6L824.8,360.4z M828,359.2c0.3,0,0.5,0.1,0.7,0.2
						c0.1-0.2,0.2-0.4,0.4-0.6L828,359.2z M831.3,358c0.3,0,0.5,0.1,0.7,0.2c0.1-0.2,0.2-0.4,0.4-0.6L831.3,358z M834.5,356.8
						c0.3,0,0.5,0.1,0.7,0.2c0.1-0.1,0.1-0.2,0.2-0.4l-0.1-0.1L834.5,356.8z"/>
				</g>
			</g>
			<g>
				<g>
					<path class="st1" d="M764.4,383.7l-2.2-22.8c0,0-1.4,2.6-9.5,4c-5,0.9-11.7-0.2-11.7-0.2s4.3,17.7,4.6,19.9
						c1,9.1,0.4,8.2,2.1,17.8l37.5-6.7C787.2,385.7,779.2,377.3,764.4,383.7z"/>
					<path class="st2" d="M785.5,397C785.5,397,785.5,397,785.5,397l-37.6,6.7c-0.8,0.1-1.5-0.4-1.6-1.1c-1.1-6.3-1.3-8.2-1.5-11.2
						c-0.1-1.6-0.3-3.5-0.6-6.7c-0.2-1.6-2.8-12.7-4.6-19.7c-0.1-0.5,0-0.9,0.3-1.3c0.3-0.3,0.8-0.5,1.3-0.4c0.1,0,6.6,1.1,11.2,0.2
						c6.6-1.2,8.4-3.1,8.6-3.4c0.3-0.6,0.8-0.8,1.5-0.7c0.6,0.1,1.1,0.7,1.1,1.3l2,21c9.3-3.4,14.6-0.7,17,1.2c3.6,2.9,5.1,7.8,4,13
						C786.5,396.5,786.1,396.9,785.5,397z M748.8,400.7l35.1-6.3c0.5-3.8-0.6-7.3-3.2-9.4c-3.5-2.9-9.3-2.9-15.9-0.1
						c-0.4,0.2-0.9,0.1-1.3-0.1c-0.4-0.2-0.6-0.6-0.7-1.1l-1.9-20.2c-1.6,0.9-4.1,1.9-8.1,2.6c-3.4,0.6-7.6,0.3-10.1,0.1
						c1.2,4.8,3.9,16.2,4.1,18.1c0.4,3.2,0.5,5.2,0.6,6.8C747.8,393.9,748,395.6,748.8,400.7z M761,360.2L761,360.2L761,360.2z"/>
				</g>
				<g>
					<path class="st1" d="M785.7,398.1c-0.9,0.2-0.7,0.9-1.6,1.1c-0.9,0.2-1-0.6-1.8-0.5c-0.9,0.2-0.7,0.9-1.6,1.1
						c-0.9,0.2-1-0.6-1.8-0.5c-0.9,0.2-0.7,0.9-1.6,1.1c-0.9,0.1-1-0.6-1.8-0.5c-0.9,0.2-0.7,0.9-1.6,1.1c-0.9,0.2-1-0.6-1.8-0.5
						c-0.9,0.2-0.7,0.9-1.6,1.1c-0.9,0.2-1-0.6-1.8-0.5c-0.9,0.2-0.7,0.9-1.6,1.1c-0.9,0.2-1-0.6-1.8-0.5c-0.9,0.2-0.7,0.9-1.6,1.1
						c-0.9,0.2-1-0.6-1.8-0.5c-0.9,0.2-0.7,0.9-1.6,1.1c-0.9,0.2-1-0.6-1.8-0.5c-0.9,0.2-0.7,0.9-1.6,1.1c-0.9,0.2-1-0.6-1.8-0.5
						s-0.7,0.9-1.6,1.1c-0.9,0.1-1-0.6-1.8-0.5c-0.9,0.2-0.7,0.9-1.6,1.1c-0.9,0.2-1-0.6-1.8-0.5l-0.4-2.5l37.5-6.7L785.7,398.1z"/>
					<path class="st2" d="M784.5,400.6c0,0-0.1,0-0.1,0c-0.9,0.2-1.5-0.2-1.8-0.4c-0.3,0.3-0.7,0.8-1.6,1c-0.9,0.2-1.5-0.2-1.8-0.4
						c-0.3,0.3-0.7,0.8-1.6,1c-0.9,0.2-1.5-0.2-1.8-0.4c-0.3,0.3-0.7,0.8-1.6,1c-0.9,0.2-1.5-0.2-1.8-0.4c-0.3,0.3-0.7,0.8-1.6,1
						c-0.9,0.2-1.5-0.2-1.8-0.4c-0.3,0.3-0.7,0.8-1.6,1c-0.9,0.2-1.5-0.2-1.8-0.4c-0.3,0.3-0.7,0.8-1.6,1c-0.9,0.2-1.5-0.2-1.8-0.4
						c-0.3,0.3-0.7,0.8-1.6,1c-0.9,0.2-1.5-0.2-1.8-0.4c-0.3,0.3-0.7,0.8-1.6,1c-0.9,0.2-1.5-0.2-1.8-0.4c-0.3,0.3-0.7,0.8-1.6,1
						c-0.9,0.2-1.5-0.2-1.8-0.4c-0.3,0.3-0.7,0.8-1.6,1c-1,0.2-1.6-0.2-1.9-0.4c0,0,0,0,0,0c-0.7,0.1-1.4-0.4-1.5-1.2l-0.4-2.5
						c-0.1-0.8,0.4-1.5,1.1-1.6l37.5-6.7c0.4-0.1,0.7,0,1.1,0.2c0.3,0.2,0.5,0.5,0.6,0.9l0.4,2.5c0.1,0.7-0.3,1.4-1,1.6c0,0,0,0,0,0
						C785.8,399.8,785.4,400.4,784.5,400.6z M783.2,397.4c0.3,0.1,0.5,0.2,0.6,0.3c0.1-0.1,0.2-0.2,0.3-0.3l0-0.2L783.2,397.4z
						 M779.8,398c0.3,0.1,0.5,0.2,0.6,0.3c0.1-0.1,0.3-0.3,0.5-0.5L779.8,398z M776.4,398.7c0.3,0.1,0.5,0.2,0.6,0.3
						c0.1-0.1,0.3-0.3,0.5-0.5L776.4,398.7z M773,399.3c0.3,0.1,0.5,0.2,0.6,0.3c0.1-0.1,0.3-0.3,0.5-0.5L773,399.3z M769.6,399.9
						c0.3,0.1,0.5,0.2,0.6,0.3c0.1-0.1,0.3-0.3,0.5-0.5L769.6,399.9z M766.1,400.5c0.3,0.1,0.5,0.2,0.6,0.3c0.1-0.1,0.3-0.3,0.5-0.5
						L766.1,400.5z M762.7,401.1c0.3,0.1,0.5,0.2,0.6,0.3c0.1-0.1,0.3-0.3,0.5-0.5L762.7,401.1z M759.3,401.7
						c0.3,0.1,0.5,0.2,0.6,0.3c0.1-0.1,0.3-0.3,0.5-0.5L759.3,401.7z M755.9,402.3c0.3,0.1,0.5,0.2,0.6,0.3c0.1-0.1,0.3-0.3,0.5-0.5
						L755.9,402.3z M752.5,402.9c0.3,0.1,0.5,0.2,0.6,0.3c0.1-0.1,0.3-0.3,0.5-0.5L752.5,402.9z M749.4,403.6
						c0.1,0.1,0.3,0.1,0.4,0.2c0.1-0.1,0.3-0.3,0.5-0.5l-0.9,0.2L749.4,403.6z"/>
				</g>
			</g>
			<g>
				<g>
					<g>
						<path class="st1" d="M712.3,284.9c-2.8-20.4-4.7-34.9-4.7-34.9c-10.6-5.1-19.1,3.4-19,12.9c0.1,9.4,2.7,25.9,3.5,27.9
							c3.6,9.8,10.2,24.6,14.8,26l15.5-6.7C721.7,305.3,712.7,287.9,712.3,284.9z"/>
						<path class="st2" d="M707.2,318.2c-0.2,0.1-0.5,0-0.7,0c-6.1-1.9-13.5-21-15.7-26.9c-0.8-2.2-3.4-19-3.5-28.4
							c-0.1-5.6,2.6-10.9,7-13.7c4.1-2.6,9-2.8,13.9-0.4c0.4,0.2,0.7,0.6,0.8,1.1c0,0.1,1.9,14.7,4.7,34.9l0,0
							c0.2,1.2,2.2,5.8,4.1,9.9c2.8,6.2,5.6,12.5,6,15.4c0.1,0.6-0.3,1.2-0.8,1.5l-15.5,6.7C707.3,318.1,707.3,318.1,707.2,318.2z
							 M699,250.2c-1.1,0.3-2.2,0.7-3.2,1.4c-3.6,2.3-5.8,6.7-5.7,11.3c0.1,9.4,2.7,25.7,3.4,27.4c4.8,13,10.3,23.2,13.5,25l13.9-6
							c-0.8-3-3.4-8.8-5.6-13.6c-2.5-5.6-4.1-9.2-4.3-10.6c0,0,0,0,0,0c-2.4-17.5-4.2-30.8-4.6-34.1
							C703.8,249.9,701.3,249.6,699,250.2z M722.4,310.1L722.4,310.1L722.4,310.1z"/>
					</g>
					<g>
						<polygon class="st1" points="706.9,316.8 710.6,322.9 726.1,316.3 722.4,310.1 						"/>
						<path class="st2" d="M711,324.3c-0.6,0.1-1.2-0.1-1.5-0.6l-3.8-6.1c-0.2-0.3-0.3-0.8-0.1-1.2c0.1-0.4,0.4-0.7,0.8-0.9
							l15.5-6.7c0.6-0.3,1.4,0,1.8,0.6l3.8,6.2c0.2,0.3,0.3,0.8,0.1,1.2c-0.1,0.4-0.4,0.7-0.8,0.9l-15.5,6.6
							C711.1,324.3,711,324.3,711,324.3z M708.9,317.4l2.3,3.7l12.9-5.5l-2.3-3.7L708.9,317.4z"/>
					</g>
				</g>
				<g>
					<g>
						<path class="st1" d="M711.9,322.1c0,0,1,2.2,3.3,8.4c2.3,6.2,6.3,9.8,13,8.7c6.7-1.1,8.4-4.2,4.9-9.5
							c-1.3-1.9-4.3-4.1-4.3-4.1s4.4,2.9,6,0.5c2.1-3.3-8.1-6.4-11.3-9L711.9,322.1z"/>
						<path class="st2" d="M729.8,340.3c-0.4,0.1-0.9,0.2-1.4,0.3c-6.8,1.2-11.7-2.1-14.5-9.6c-2.3-6.1-3.3-8.4-3.3-8.4
							c-0.1-0.3-0.2-0.7,0-1.1c0.1-0.3,0.4-0.6,0.8-0.8l11.5-4.9c0.5-0.2,1-0.1,1.4,0.2c0.9,0.7,2.7,1.6,4.4,2.5
							c3.6,1.8,7,3.5,7.7,5.9c0.2,0.8,0.1,1.7-0.4,2.5c-0.5,0.8-1.2,1.3-2.1,1.5c0.1,0.2,0.3,0.4,0.4,0.5c1.9,2.9,2.5,5.4,1.6,7.4
							C735.1,338.3,733.1,339.6,729.8,340.3z M713.7,322.9c0.5,1.3,1.4,3.5,2.8,7.2c2.3,6.2,6,8.7,11.4,7.8c3-0.5,4.8-1.4,5.3-2.6
							c0.6-1.3-0.4-3.3-1.4-4.7c-1-1.4-3.2-3.2-3.9-3.7c-0.6-0.4-0.8-1.3-0.3-1.9c0.4-0.6,1.3-0.8,1.9-0.4c1.1,0.7,3.5,1.7,4,0.9
							c0.1-0.1,0.1-0.2,0.1-0.2c-0.3-1.1-4-3-6.2-4.1c-1.6-0.8-3.1-1.5-4.2-2.3L713.7,322.9z"/>
					</g>
					<path class="st2" d="M734.6,337.7c-0.3,0.1-0.7,0-1-0.1c-4.2-2.2-9.8-8.6-10.1-8.9c-0.5-0.6-0.4-1.5,0.1-2
						c0.6-0.5,1.5-0.4,2,0.1c0.1,0.1,5.5,6.3,9.2,8.3c0.7,0.4,1,1.2,0.6,1.9C735.4,337.4,735,337.6,734.6,337.7z"/>
					<path class="st2" d="M731,340c-0.2,0.1-0.5,0.1-0.7,0c-0.2-0.1-4.9-1.6-9.7-9.9c-0.4-0.7-0.2-1.5,0.5-1.9
						c0.7-0.4,1.5-0.2,1.9,0.5c4.2,7.2,8,8.6,8.1,8.6c0.7,0.2,1.2,1,0.9,1.8C731.8,339.6,731.4,339.9,731,340z"/>
					<path class="st2" d="M726.1,340.8c-0.4,0.1-0.8,0-1.1-0.2c-0.2-0.1-5.3-3.6-7.4-9.9c-0.2-0.7,0.1-1.5,0.9-1.8
						c0.7-0.2,1.5,0.1,1.8,0.9c1.8,5.3,6.3,8.4,6.3,8.4c0.6,0.4,0.8,1.3,0.4,2C726.7,340.5,726.4,340.7,726.1,340.8z"/>
				</g>
			</g>
			<g>
				<g>
					<path class="st1" d="M684.1,227.2c0,0,5.9,11,11.7,14.3c5.8,3.3-4.2,6.3-2.8,9.2c1.9,4.3,21.7,8.3,35.3,3.8
						c27.2-8.9,30.5-26.2,30.5-26.2c-1-3.6-6.2-3.8-6.2-3.8s0-5-2.6-7L684.1,227.2z"/>
					<path class="st2" d="M725.9,256.7c-13.4,3.1-31.9-0.2-34.2-5.4c-1-2.1,1-3.9,2.5-5.2c0.7-0.6,2.1-1.8,2-2.3
						c0-0.1-0.3-0.5-1.1-1c-6.1-3.5-12-14.4-12.3-14.9c-0.2-0.4-0.2-0.9,0-1.3c0.2-0.4,0.6-0.7,1.1-0.8l65.8-9.7
						c0.4-0.1,0.8,0,1.1,0.3c2.2,1.7,2.9,5.1,3.1,6.9c1.9,0.3,5.3,1.4,6.3,4.7c0.1,0.2,0.1,0.4,0,0.6c0,0.2-0.9,4.7-5.3,10.3
						c-4,5.1-11.7,12.2-26.1,16.9C727.8,256.2,726.9,256.4,725.9,256.7z M694.3,250.2c0.6,1.2,4.7,3.3,12.2,4.4
						c7.7,1.1,15.5,0.6,21.4-1.3c13.6-4.5,20.9-11.1,24.6-15.8c3.4-4.3,4.5-7.9,4.8-9c-1-2.3-4.8-2.5-4.8-2.5
						c-0.8,0-1.4-0.6-1.4-1.4c0-1.1-0.3-4.1-1.7-5.6l-63.1,9.3c1.9,3.2,6.1,9.7,10.2,12c1.6,0.9,2.4,1.9,2.5,3.1
						c0.2,1.9-1.5,3.4-2.9,4.7C695.5,248.7,694.4,249.7,694.3,250.2z"/>
				</g>
				<g>
					<path class="st1" d="M749.9,185.6c8.3,20.2-1.3,43.2-21.5,51.5c-20.2,8.3-43.2-1.3-51.5-21.5c-8.3-20.2,1.3-43.2,21.5-51.5
						C718.5,155.8,741.6,165.5,749.9,185.6z"/>
					<path class="st2" d="M722.6,240.5c-8.3,2-17,1.2-25-2.1c-10.1-4.2-17.9-12.1-22.1-22.2c-4.2-10.1-4.1-21.2,0.1-31.3
						c4.2-10.1,12.1-17.9,22.2-22.1c20.9-8.6,44.8,1.4,53.4,22.3l0,0c4.2,10.1,4.1,21.2-0.1,31.3c-4.2,10.1-12.1,17.9-22.2,22.1
						C726.8,239.3,724.7,240,722.6,240.5z M704.7,163.6c-1.9,0.5-3.9,1.1-5.8,1.9c-9.4,3.9-16.7,11.2-20.7,20.5
						c-3.9,9.4-3.9,19.7-0.1,29.1c3.9,9.4,11.2,16.7,20.5,20.7c9.4,3.9,19.7,3.9,29.1,0.1c9.4-3.9,16.7-11.2,20.7-20.5
						c3.9-9.4,3.9-19.7,0.1-29.1l0,0C741.4,168.6,722.5,159.4,704.7,163.6z"/>
				</g>
				<path class="st2" d="M703.4,178.9c-14,22.1-4.2,41.1-4.2,41.1s33.2,20.5,53.3-14.4c0,0,3.1-14.5-5.5-27.4
					c-8.6-12.9-22.8-16.3-22.8-16.3S712.5,164.5,703.4,178.9z"/>
				<path class="st2" d="M729.6,231.3c-5.8,1.4-11.4,1.1-16.1,0.2c-11.3-2.1-19.8-8-20.1-8.2c-0.3-0.2-0.4-0.4-0.5-0.7
					c-0.1-0.4-3.2-10.7-2.1-23.6c1-12,6-28.5,24.1-38.9c0.7-0.4,1.5-0.2,1.9,0.5c0.4,0.7,0.2,1.5-0.5,1.9
					c-13.6,7.9-21.3,20.2-22.7,36.6c-0.9,10.9,1.3,20,1.9,22.2c1.8,1.2,9.3,5.8,18.7,7.5c14.2,2.7,25.9-2.1,34.8-14.1
					c0.5-0.6,1.3-0.8,2-0.3c0.6,0.5,0.8,1.3,0.3,2C744.5,225.3,736.8,229.6,729.6,231.3z"/>
				<g>
					<path class="st1" d="M701.9,196c-2.1,6.9,0.4,17.6,3.8,18.1c3.4,0.4-0.3-11.4,2.6-17C711.3,191.2,704,189,701.9,196z"/>
					<path class="st1" d="M704.3,183.9c-1.2,1.2-1.1,3.2,0.1,4.4l0.2,0.2c1.2,1.2,3.2,1.1,4.4-0.1c1.2-1.2,1.1-3.2-0.1-4.4l-0.2-0.2
						C707.5,182.7,705.5,182.7,704.3,183.9z"/>
				</g>
				<path class="st1" d="M746,203.2c-0.7-0.6-1.8-0.6-2.3,0.3c-1.4,2.4-8.1,8.9-4.5,11.8c2.7,2.2,5.2-0.4,6.6-3.6
					C747.7,208.9,748.6,205.4,746,203.2z"/>
				<g>
					<path class="st1" d="M687.6,223.4c-4.8-0.3-11.6-4.2-15.5-10.8c-2.8-4.7-1.8-10.4,1.8-10.6c0,0,0.8,14.5,15.3,15.5L687.6,223.4
						z"/>
					<path class="st2" d="M687.9,224.8c-0.1,0-0.3,0-0.4,0c-5.1-0.3-12.4-4.4-16.6-11.5c-2-3.4-2.4-7.5-0.9-10.2
						c0.8-1.6,2.2-2.4,3.9-2.5c0.8,0,1.4,0.6,1.5,1.3c0,0.5,1,13.2,14,14.2c0.4,0,0.8,0.2,1,0.6c0.2,0.3,0.3,0.8,0.2,1.2l-1.6,5.8
						C688.8,224.3,688.4,224.7,687.9,224.8z M672.7,204c-0.1,0.1-0.2,0.3-0.3,0.5c-0.8,1.5-0.8,4.6,0.9,7.4c3.3,5.7,9,9.2,13.2,9.9
						l0.9-3.1c-7-1.1-10.6-5.3-12.5-8.7C673.6,207.8,673,205.5,672.7,204z"/>
				</g>
				<g>
					<g>
						<path class="st1" d="M699.9,218.8c1.8,3.2,0.7,7.3-2.5,9.1c-3.2,1.8-7.3,0.7-9.1-2.5c-1.8-3.2-0.7-7.3,2.5-9.1
							C694,214.5,698.1,215.6,699.9,218.8z"/>
						<path class="st2" d="M696,230c-3.4,0.8-7.1-0.7-8.9-3.9c-1.1-1.9-1.4-4.1-0.8-6.2c0.6-2.1,1.9-3.8,3.8-4.9
							c3.9-2.2,8.8-0.9,11.1,3c0,0,0,0,0,0c2.2,3.9,0.9,8.8-3,11.1C697.5,229.5,696.7,229.8,696,230z M692.9,217
							c-0.5,0.1-1,0.3-1.4,0.6c-1.2,0.7-2.1,1.8-2.5,3.2c-0.4,1.4-0.2,2.8,0.5,4c1.4,2.5,4.7,3.4,7.2,2c2.5-1.5,3.4-4.7,2-7.2
							C697.5,217.4,695.1,216.4,692.9,217z"/>
					</g>
					<g>
						<path class="st1" d="M696.6,220.7c0.8,1.4,0.3,3.1-1.1,3.9c-1.4,0.8-3.1,0.3-3.9-1.1c-0.8-1.4-0.3-3.1,1.1-3.9
							C694.1,218.9,695.8,219.3,696.6,220.7z"/>
						<path class="st2" d="M695.1,226.3c-1.8,0.4-3.7-0.4-4.7-2c-0.6-1-0.7-2.1-0.4-3.2c0.3-1.1,1-2,2-2.6c1-0.6,2.1-0.7,3.2-0.4
							c1.1,0.3,2,1,2.6,2c0,0,0,0,0,0c1.2,2,0.5,4.6-1.6,5.8C695.9,226,695.5,226.2,695.1,226.3z M693.8,220.7
							c-0.1,0-0.3,0.1-0.4,0.2c-0.3,0.2-0.6,0.5-0.7,0.9c-0.1,0.4-0.1,0.8,0.1,1.1c0.4,0.7,1.3,0.9,2,0.5c0.7-0.4,0.9-1.3,0.5-2l0,0
							c-0.2-0.3-0.5-0.6-0.9-0.7C694.3,220.7,694,220.6,693.8,220.7z"/>
					</g>
				</g>
				<path class="st2" d="M727.3,248.2c-7.9,1.9-15.1,1-20-0.3c-6.7-1.7-11-4.3-11.2-4.5c-0.7-0.4-0.9-1.3-0.4-1.9
					c0.4-0.7,1.3-0.9,1.9-0.4l0,0c0.2,0.1,16.4,10,34.4,2.7c0.7-0.3,1.5,0.1,1.8,0.8c0.3,0.7-0.1,1.5-0.8,1.8
					C731.1,247.2,729.2,247.8,727.3,248.2z"/>
				<path class="st2" d="M743.2,240.1c-0.5,0.1-1.1-0.1-1.4-0.5c-0.5-0.6-0.4-1.5,0.2-2c5.4-4.2,9.2-13.5,9.2-13.6
					c0.3-0.7,1.1-1.1,1.8-0.8c0.7,0.3,1.1,1.1,0.8,1.8c-0.2,0.4-4.2,10.1-10.1,14.7C743.6,239.9,743.4,240,743.2,240.1z"/>
			</g>
			<g>
				<g>
					<path class="st1" d="M761.4,246.5c0,0-3.1-1.8-7.3,0.6c-4.2,2.4-26.2,14.6-26.2,14.6c-1.9,0.7-2.8,2.8-2.1,4.7l11.5,31
						c0.7,1.9,2.8,2.8,4.7,2.1l29.3-16.3c0.9-0.3,2.7-4.9,2.7-4.9L761.4,246.5z"/>
					<path class="st2" d="M741.8,301.1c-1.1,0.3-2.2,0.1-3.2-0.3c-1.2-0.6-2.2-1.6-2.6-2.8l-11.5-31c-0.9-2.6,0.3-5.4,2.9-6.4
						c1.5-0.8,22.1-12.3,26.2-14.6c4.9-2.7,8.5-0.7,8.7-0.6c0.3,0.2,0.5,0.4,0.6,0.7l12.4,31.9c0.1,0.3,0.1,0.7,0,1
						c-1.8,4.7-2.9,5.4-3.4,5.6l-29.2,16.2c-0.1,0-0.1,0.1-0.2,0.1C742.2,301,742,301,741.8,301.1z M757,247.5
						c-0.7,0.2-1.4,0.4-2.2,0.9c-4.2,2.4-26.2,14.6-26.2,14.6c-0.1,0-0.1,0.1-0.2,0.1c-1.2,0.4-1.7,1.7-1.3,2.9l11.5,31
						c0.2,0.6,0.6,1,1.2,1.3c0.5,0.2,1.1,0.3,1.6,0.1l29.2-16.2c0,0,0,0,0,0c0.4-0.4,1.2-2,1.8-3.6l-12-30.9
						C759.7,247.4,758.6,247.1,757,247.5z M770.5,282.1L770.5,282.1L770.5,282.1z M770.7,282C770.7,282,770.7,282,770.7,282
						C770.7,282,770.7,282,770.7,282z"/>
				</g>
				<g>
					<g>
						<path class="st1" d="M773.9,276.1c0.6,1.7-0.2,3.5-1.9,4.2l-26,14.5c-1.7,0.6-3.5-0.2-4.2-1.9l-10.2-27.6
							c-0.6-1.7,0.2-3.5,1.9-4.2l26-14.5c1.7-0.6,3.5,0.2,4.2,1.9L773.9,276.1z"/>
						<path class="st2" d="M745.9,296.2c-1,0.2-2,0.1-3-0.3c-1.1-0.5-2-1.4-2.4-2.6l-10.2-27.6c-0.4-1.2-0.4-2.4,0.1-3.5
							c0.5-1.1,1.4-1.9,2.5-2.4l25.9-14.4c0.1,0,0.1-0.1,0.2-0.1c1.2-0.4,2.4-0.4,3.5,0.1c1.1,0.5,2,1.4,2.4,2.6l10.2,27.6l0,0
							c0.9,2.4-0.3,5-2.6,5.9L746.7,296c-0.1,0-0.1,0.1-0.2,0.1C746.3,296.1,746.1,296.2,745.9,296.2z M760.1,247.9l-25.9,14.4
							c-0.1,0-0.1,0.1-0.2,0.1c-0.5,0.2-0.8,0.5-1,0.9c-0.2,0.4-0.2,0.9-0.1,1.4l10.2,27.6c0.2,0.5,0.5,0.8,1,1
							c0.4,0.2,0.9,0.2,1.3,0.1l25.9-14.4c0.1,0,0.1-0.1,0.2-0.1c0.9-0.3,1.4-1.4,1.1-2.3L762.3,249c-0.2-0.5-0.5-0.8-0.9-1
							C761,247.8,760.5,247.8,760.1,247.9z"/>
					</g>
					<g>
						<line class="st1" x1="739.8" y1="298.9" x2="743.3" y2="294.6"/>
						<path class="st2" d="M740.1,300.3c-0.4,0.1-0.9,0-1.2-0.3c-0.6-0.5-0.7-1.4-0.2-2l3.5-4.4c0.5-0.6,1.4-0.7,2-0.2
							c0.6,0.5,0.7,1.4,0.2,2l-3.5,4.4C740.7,300,740.4,300.2,740.1,300.3z"/>
					</g>
					<g>
						<line class="st1" x1="725.8" y1="263.7" x2="731.4" y2="263.7"/>
						<path class="st2" d="M731.7,265c-0.1,0-0.2,0-0.3,0l-5.6,0c-0.8,0-1.4-0.6-1.4-1.4c0-0.8,0.6-1.4,1.4-1.4l5.6,0
							c0.8,0,1.4,0.6,1.4,1.4C732.8,264.3,732.4,264.9,731.7,265z"/>
					</g>
				</g>
			</g>
		</g>
		<g>
			<g>
				<g>
					<g>
						<polygon class="st1" points="723.4,429.5 708.7,443.9 718.3,461.3 738.4,456.5 						"/>
						<path class="st2" d="M738.6,457.5C738.6,457.5,738.6,457.5,738.6,457.5l-20.1,4.8c-0.4,0.1-0.9-0.1-1.1-0.5l-9.6-17.4
							c-0.2-0.4-0.1-0.9,0.2-1.2l14.8-14.4c0.2-0.2,0.5-0.3,0.8-0.3c0.3,0,0.6,0.2,0.7,0.5l14.9,27c0.1,0.3,0.2,0.6,0,0.9
							C739.1,457.2,738.9,457.4,738.6,457.5z M718.8,460.2l18.1-4.3l-13.7-24.8l-13.3,13L718.8,460.2z"/>
					</g>
					<g>
						<polygon class="st1" points="705.7,469.4 695.1,450.3 700.7,447.8 710.7,466 						"/>
						<path class="st2" d="M705.9,470.3c-0.2,0-0.3,0-0.5,0c-0.3-0.1-0.5-0.2-0.6-0.5l-10.6-19.2c-0.1-0.2-0.2-0.5-0.1-0.8
							c0.1-0.3,0.3-0.5,0.5-0.6l5.6-2.4c0.5-0.2,1,0,1.2,0.4l10,18.2c0.2,0.4,0.1,1-0.3,1.3l-5.1,3.4
							C706.1,470.3,706,470.3,705.9,470.3z M696.5,450.7L706,468l3.5-2.3l-9.2-16.6L696.5,450.7z"/>
					</g>
					<g>
						<path class="st1" d="M711.3,467l6.2-3.4c0.9-0.5,1.2-1.6,0.7-2.4l-9.4-17.1c-0.5-0.9-1.6-1.2-2.4-0.7l-6.2,3.4L711.3,467z"/>
						<path class="st2" d="M711.5,468c-0.2,0-0.3,0-0.5,0c-0.2-0.1-0.5-0.2-0.6-0.5l-11.2-20.3c-0.1-0.2-0.2-0.5-0.1-0.7
							s0.2-0.5,0.5-0.6l6.2-3.4c0.6-0.4,1.4-0.4,2.1-0.2c0.7,0.2,1.3,0.7,1.6,1.3l9.4,17.1c0.7,1.3,0.2,3-1.1,3.7l-6.2,3.4
							C711.7,467.9,711.6,467.9,711.5,468z M701.4,447.1l10.2,18.6l5.3-2.9c0.4-0.2,0.5-0.7,0.3-1.1l-9.4-17.1
							c-0.1-0.2-0.3-0.3-0.5-0.4c-0.2-0.1-0.4,0-0.6,0.1L701.4,447.1z"/>
					</g>
				</g>
				<g>
					<path class="st1" d="M733.3,403.5c0,0-13.2,3.6-25.3,9.3c-12.1,5.8-23.8,15.8-23.8,15.8l0.8,1.4l0,0.1l0.8,1.4
						c0,0,14.3-4.3,25.4-11.2C722.8,413.1,733.3,403.5,733.3,403.5z"/>
					<path class="st2" d="M686.1,432.5c-0.4,0.1-0.9-0.1-1.1-0.5l-1.6-2.9c-0.2-0.4-0.1-0.9,0.2-1.2c0.1-0.1,11.9-10.2,24-16
						c12-5.7,25.3-9.3,25.4-9.4c0,0,0,0,0,0c0.4-0.1,0.9,0.1,1.1,0.5c0.2,0.4,0.1,0.9-0.2,1.2c-0.1,0.1-10.7,9.7-22.2,16.9
						C700.6,428.1,686.2,432.4,686.1,432.5C686.1,432.5,686.1,432.5,686.1,432.5z M685.4,428.9l0.8,1.5c3.1-1,15-5,24.4-10.9
						c7.5-4.7,14.6-10.4,18.6-13.8c-4.9,1.5-13.1,4.3-20.9,8C698.1,418.6,688,426.8,685.4,428.9z"/>
				</g>
				<g>
					<path class="st1" d="M765.6,462.1c0,0-10.1,9.3-21.4,16.4c-11.3,7.2-26.1,11.7-26.1,11.7l-0.8-1.4l0-0.1l-0.8-1.4
						c0,0,11.2-9.8,23.1-15.5C751.9,465.9,765.6,462.1,765.6,462.1z"/>
					<path class="st2" d="M718.4,491.1c-0.4,0.1-0.9-0.1-1.1-0.5l-1.6-2.9c-0.2-0.4-0.1-0.9,0.2-1.2c0.1-0.1,11.5-10,23.3-15.6
						c12.2-5.8,26-9.7,26.1-9.7c0.4-0.1,0.9,0.1,1.1,0.5c0.2,0.4,0.1,0.9-0.2,1.2c-0.1,0.1-10.3,9.4-21.5,16.5
						C733.4,486.5,718.6,491,718.4,491.1C718.4,491.1,718.4,491.1,718.4,491.1z M717.8,487.5l0.8,1.5c3.1-1,15.4-5.2,25.1-11.3
						c7.2-4.6,14-10.1,17.9-13.4c-5,1.6-13.6,4.5-21.6,8.3C730,477.5,720.2,485.4,717.8,487.5z"/>
				</g>
				<g>
					<g>
						<g>
							<path class="st1" d="M718.4,445.2c9.7,17.7,3.8-2.1,5.8-3.1c5.7-2.7,11.7-5,16.4-6.6c-5.3-13.7,13.1-31,13.1-31
								c-29.2,25.2-30.3,10-26,3.7c-0.7,0.7-1.8,1.6-3.2,2.6c-3.8,3-8.4,6.4-13.2,9.4c-7.4,4.6-16.1,8.1-21.2,9.9l0,0
								C690,430.1,708.6,427.5,718.4,445.2z"/>
							<path class="st2" d="M723.9,453.4c-1.2,0.3-2.6-0.9-6.4-7.8c-3.9-7.1-9.7-11.7-17.2-13.6c-5.6-1.5-10.2-0.9-10.2-0.9
								c-0.5,0.1-1-0.2-1.1-0.7c-0.1-0.5,0.1-1,0.6-1.1c4.7-1.6,13.6-5.1,21-9.8c4.1-2.6,8.5-5.7,13.1-9.4c0,0,0,0,0,0
								c1.4-1,2.4-1.8,3.1-2.5c0.4-0.3,0.9-0.4,1.3-0.1c0.4,0.3,0.5,0.9,0.2,1.3c-1.7,2.6-2.4,6.6-0.7,8.1c1.2,1,6.4,3.2,25.2-13.1
								c0.4-0.3,1-0.3,1.3,0.1c0.4,0.4,0.3,1-0.1,1.3c-0.2,0.2-17.9,16.9-12.8,29.9c0.1,0.2,0.1,0.5,0,0.8c-0.1,0.2-0.3,0.4-0.6,0.5
								c-6,2-11.4,4.2-16.1,6.4c-0.2,0.7,0,2.9,0.2,4.3C725.2,450.6,725.5,452.9,723.9,453.4C724,453.4,723.9,453.4,723.9,453.4z
								 M723.7,451.5L723.7,451.5L723.7,451.5z M695.4,429.2c1.6,0.1,3.4,0.4,5.4,0.9c5.5,1.5,13.2,5.2,18.4,14.6l0,0
								c2.2,4,3.4,5.7,4,6.4c0-1-0.1-2.6-0.2-3.7c-0.3-3.7-0.5-5.5,0.7-6.1c4.6-2.2,9.8-4.3,15.6-6.3c-1.8-5.8-0.1-12.8,5-20.6
								c0.5-0.8,1.1-1.6,1.6-2.4c-11.8,8.7-17.1,8.4-19.4,6.4c-1.7-1.5-2-4.2-1.3-6.8c0,0-0.1,0.1-0.1,0.1
								c-4.7,3.7-9.1,6.9-13.3,9.5C706.4,424.5,700.2,427.3,695.4,429.2z"/>
						</g>
						<g>
							<path class="st1" d="M775.5,444.3c0,0-24.5,6.4-33.2-5.5c-4,3.2-9.4,7.3-14.9,10.8c-1.6,1-13.8-13.1-5,2.9
								c8.8,15.9-2.4,32-2.4,32c4.2-3.3,11.8-8.9,19.7-12.7c5.1-2.5,10.5-4.5,15-6.1c1.5-0.6,2.9-1.1,3.9-1.3l0,0
								C750.9,464.5,738.6,455.5,775.5,444.3z"/>
							<path class="st2" d="M720.2,485.4c-0.3,0.1-0.7,0-1-0.3c-0.3-0.3-0.3-0.8-0.1-1.2c0.3-0.4,10.7-15.8,2.4-30.9
								c-3.6-6.5-3.7-8-2.8-8.8c1.1-0.9,2.7,0.3,5.3,2.3c0.9,0.7,2.5,1.9,3.1,2.2c4.6-2.9,9.5-6.4,14.6-10.6
								c0.2-0.2,0.5-0.2,0.7-0.2c0.3,0,0.5,0.2,0.7,0.4c8.2,11.2,31.9,5.2,32.2,5.2c0,0,0,0,0,0c0.5-0.1,1,0.2,1.2,0.7
								c0.1,0.5-0.1,1-0.6,1.2c-23.8,7.2-24.8,12.8-24.5,14.3c0.4,2.3,4.1,3.9,7.2,3.8c0.5,0,0.9,0.3,1,0.8c0.1,0.5-0.3,0.9-0.7,1.1
								c-0.9,0.2-2.2,0.6-3.7,1.3c0,0,0,0,0,0c-5.5,2-10.6,4-14.9,6.1c-7.9,3.8-15.6,9.5-19.5,12.6
								C720.4,485.3,720.3,485.3,720.2,485.4z M720.4,446.2c0.3,0.9,1.1,2.6,2.8,5.8c6.3,11.4,2.7,22.9-0.2,28.9
								c4.2-3.1,10.1-7.1,16.1-10c4.4-2.1,9.5-4.2,15.1-6.2c0,0,0.1,0,0.1-0.1c-2.6-0.8-4.7-2.5-5.1-4.8c-0.5-3.1,2.1-7.7,15.7-13
								c-0.9,0.1-1.9,0.1-2.9,0.1c-9.2,0.1-16.1-2.2-20-6.8c-5,4-9.8,7.5-14.3,10.3c-1.1,0.7-2.4-0.3-5.1-2.4
								C722.1,447.5,721.1,446.7,720.4,446.2z"/>
						</g>
					</g>
				</g>
				<g>
					<path class="st1" d="M749.4,432.8c0,0-13.2,3.6-25.3,9.3c-12.1,5.8-23.8,15.8-23.8,15.8l0.8,1.4l0,0.1l0.8,1.4
						c0,0,14.3-4.3,25.4-11.2C738.9,442.4,749.4,432.8,749.4,432.8z"/>
					<path class="st2" d="M702.2,461.8c-0.4,0.1-0.9-0.1-1.1-0.5l-1.6-2.9c-0.2-0.4-0.1-0.9,0.2-1.2c0.1-0.1,11.9-10.2,24-16
						c12-5.7,25.3-9.3,25.4-9.4c0,0,0,0,0,0c0.4-0.1,0.9,0.1,1.1,0.5c0.2,0.4,0.1,0.9-0.2,1.2c-0.1,0.1-10.7,9.7-22.2,16.9
						C716.8,457.4,702.4,461.7,702.2,461.8C702.2,461.8,702.2,461.8,702.2,461.8z M701.6,458.2l0.8,1.5c3.1-1,15-5,24.4-10.9
						c7.5-4.7,14.6-10.4,18.6-13.8c-4.9,1.5-13.1,4.3-20.9,8C714.3,447.9,704.1,456.1,701.6,458.2z"/>
				</g>
				<g>
					<path class="st1" d="M737.2,437.4L737.2,437.4c5.2-1.8,8.9-2.8,8.9-2.8s-2.8,2.6-7.1,6c0,0,0,0,0,0
						c31.9,17.9,116,12.8,153.4-86.6C784.1,338.3,733.3,403.5,737.2,437.4z"/>
					<path class="st2" d="M801.6,446.2c-10.4,2.7-21.1,3.8-31.4,3.4c-12.1-0.6-23.3-3.4-31.6-8c-0.2-0.1-0.3-0.2-0.5-0.3
						c-0.3-0.4-0.3-1,0.2-1.3c0,0,0,0,0,0c0,0,0,0,0,0c1.4-1.1,2.7-2.2,3.7-3.1c-1.3,0.4-2.9,0.9-4.6,1.5c-0.3,0.1-0.6,0.1-0.8-0.1
						c-0.2-0.2-0.4-0.4-0.4-0.7c-0.8-7.3,0.8-15.8,4.7-24.6c4.1-9.2,10.7-18.4,19-26.4c13.5-13.1,31.4-23.3,51.7-29.2
						c24.1-7.1,51.3-8.5,80.9-4.2c0.3,0,0.5,0.2,0.7,0.5c0.1,0.3,0.2,0.6,0.1,0.8c-9,23.9-21.2,43.8-36.4,59.3
						c-13.1,13.4-28.3,23.3-45,29.4C808.5,444.2,805.1,445.3,801.6,446.2z M740.7,440.5c15.1,7.8,42.3,11,70.6,0.7
						c24.8-9.1,58.8-31.4,79.8-86.4c-30-4.2-54.4-2.2-74,2.9c-27.8,7.2-45.7,20.4-55.8,30.2c-15.6,15.1-24.4,33.5-23.2,48.2
						c4.6-1.5,7.7-2.4,7.8-2.4c0.4-0.1,0.9,0.1,1.1,0.5c0.2,0.4,0.1,0.9-0.2,1.2C746.7,435.4,744.3,437.5,740.7,440.5z"/>
				</g>
				<g>
					<g>
						<path class="st1" d="M846.2,380.7c-7.6-13.8-25-18.8-38.8-11.2c-13.8,7.6-18.8,25-11.2,38.8c7.6,13.8,25,18.8,38.8,11.2
							C848.8,411.9,853.8,394.5,846.2,380.7z M802.2,405c-5.8-10.5-2-23.7,8.5-29.5c10.5-5.8,23.7-2,29.5,8.5
							c5.8,10.5,2,23.7-8.5,29.5C821.2,419.3,808,415.5,802.2,405z"/>
						<path class="st2" d="M828.6,423.1c-12.7,3.3-26.6-2.3-33.2-14.3c-7.9-14.2-2.6-32.2,11.6-40.1c14.2-7.9,32.2-2.7,40.1,11.6
							l0,0c7.9,14.2,2.6,32.2-11.6,40.1C833.2,421.5,830.9,422.4,828.6,423.1z M814.3,367.8c-2.2,0.6-4.3,1.4-6.4,2.6
							c-13.3,7.3-18.2,24.1-10.8,37.5c7.3,13.3,24.1,18.2,37.5,10.8c13.3-7.3,18.2-24.1,10.8-37.5l0,0
							C839.2,369.9,826.2,364.7,814.3,367.8z M826.8,416.4c-3.9,1-8,1-11.9-0.2c-5.8-1.7-10.6-5.5-13.5-10.8v0
							c-6-10.9-2-24.8,8.9-30.8c10.9-6,24.8-2,30.8,8.9c6,10.9,2,24.8-8.9,30.8C830.5,415.3,828.7,416,826.8,416.4z M803.1,404.5
							c2.7,4.8,7.1,8.4,12.4,9.9c5.3,1.5,10.9,0.9,15.8-1.8c10-5.5,13.7-18.2,8.1-28.2c-5.5-10-18.2-13.7-28.2-8.2
							C801.2,381.8,797.5,394.5,803.1,404.5L803.1,404.5z"/>
					</g>
					<g>
						<path class="st1" d="M831.7,413.5c-10.5,5.8-23.7,2-29.5-8.5c-5.8-10.5-2-23.7,8.5-29.5c10.5-5.8,23.7-2,29.5,8.5
							C846,394.5,842.2,407.7,831.7,413.5z"/>
						<path class="st2" d="M826.8,416.4c-3.9,1-8,1-11.9-0.2c-5.8-1.7-10.6-5.5-13.5-10.8c-6-10.9-2-24.8,8.9-30.8
							c10.9-6,24.8-2,30.8,8.9c6,10.9,2,24.8-8.9,30.8C830.5,415.3,828.7,416,826.8,416.4z M816,374.4c-1.6,0.4-3.3,1.1-4.8,1.9
							c-10,5.5-13.7,18.2-8.1,28.2c2.7,4.8,7.1,8.4,12.4,9.9c5.3,1.5,10.9,0.9,15.8-1.8c0,0,0,0,0,0c10-5.5,13.7-18.2,8.1-28.2
							C834.7,376,825,372.1,816,374.4z"/>
					</g>
				</g>
				<path class="st2" d="M861.3,408.6c-0.1,0-0.1,0-0.2,0c-0.5,0-1-0.4-1-0.9c-1.7-20.6-9.5-34-15.8-41.5
					c-6.8-8.2-13.3-11.6-13.4-11.6c-0.5-0.2-0.7-0.8-0.4-1.3c0.2-0.5,0.8-0.7,1.3-0.4c0.3,0.1,6.9,3.5,13.9,12
					c4.1,5,7.6,10.6,10.2,16.9c3.3,7.8,5.3,16.5,6.1,25.8C862.1,408.1,861.8,408.5,861.3,408.6z"/>
			</g>
			<g>
				<path class="st2" d="M884.9,360.5c-0.8,1.8-1.4,3.7-2.2,5.6c-0.9,1.9-1.9,3.8-3,5.7c-2.2,3.7-4.7,7.3-7.4,10.6
					c-0.7,0.9-1.5,1.8-2.2,2.6c-0.4,0.4-0.7,0.9-1.1,1.3c-0.4,0.4-0.7,0.9-0.9,1.5c-0.1,0.3,0.2,0.6,0.5,0.5c0.9-0.4,1.7-1.2,2.3-2
					c0.7-0.8,1.4-1.6,2-2.4c1.4-1.7,2.7-3.5,4-5.3c2.5-3.6,4.7-7.5,6.5-11.5c0.5-1.1,0.9-2.1,1.2-3.2c0.2-0.5,0.4-1.1,0.5-1.6
					c0.1-0.5,0.2-1.1,0.3-1.7C885.5,360.3,885.1,360.3,884.9,360.5L884.9,360.5z"/>
				<path class="st2" d="M754.6,441.6c4.3,0.9,8.7,1.5,13,1.8c4.7,0.3,9.4,0.2,14-0.1c4.8-0.3,9.5-0.9,14.2-1.7
					c4.6-0.8,9.2-1.9,13.7-3.3c2.1-0.7,4.3-1.4,6.3-2.2c1-0.4,2.1-0.9,3.1-1.3c1-0.5,1.9-1,2.8-1.5c0.5-0.3,0.9-0.6,1.3-0.9
					c0.2-0.1,0.1-0.4-0.1-0.3c-1,0.4-2,0.7-2.9,1.1c-1,0.4-2,0.8-3,1.1c-2.1,0.8-4.1,1.6-6.3,2.3c-4.4,1.4-8.9,2.6-13.4,3.5
					c-4.6,0.9-9.3,1.6-14,2c-4.7,0.4-9.3,0.6-14,0.5c-4.4-0.1-8.8-0.4-13.1-1c-0.5-0.1-1.1-0.2-1.6-0.2
					C754.4,441.2,754.3,441.6,754.6,441.6L754.6,441.6z"/>
			</g>
		</g>
	</g>
</g>
</svg>
