<?xml version="1.0" encoding="utf-8"?>
<!-- Generator: Adobe Illustrator 25.2.3, SVG Export Plug-In . SVG Version: 6.00 Build 0)  -->
<svg version="1.0" id="Layer_1" xmlns="http://www.w3.org/2000/svg" xmlns:xlink="http://www.w3.org/1999/xlink" x="0px" y="0px"
	 viewBox="0 0 1024 1024" style="enable-background:new 0 0 1024 1024;" xml:space="preserve">
<style type="text/css">
	.st0{fill:#F2F2F2;}
</style>
<path class="st0" d="M810.4,528.9c-0.9-1.4-2.3-2.4-4.1-2.6c-0.7-0.1-1.4,0.1-2.1,0.3c-0.6-1.7-2.1-3-4-3.2
	c-1.3-0.1-2.5,0.4-3.5,1.3c-1.4-2.3-3.7-3.9-6.4-4.1c-1-0.1-1.9,0.1-2.8,0.3c-1-3.6-3.9-6.2-7.5-6.5c-2.9-0.2-5.6,1.2-7.3,3.5
	c-2-1.8-4.6-3-7.5-3.2c-1.6-0.1-3.2,0.1-4.7,0.6c-1.1-4.3-4.5-7.5-8.8-7.9c-1.5-0.1-3,0.2-4.4,0.8c-0.3-5.3-4.1-9.6-9.1-10
	c-2.1-0.2-4.1,0.4-5.8,1.5c-1.9-7.8-8.2-13.8-16-14.4c-3.1-0.2-6.1,0.4-8.7,1.7c-3.4-7.1-10.1-12.2-18.1-12.8
	c-6-0.5-11.6,1.7-15.9,5.5c-1.8-1.3-3.9-2.1-6.2-2.3c-2.3-0.2-4.5,0.3-6.4,1.3c-1.2-8.3-7.6-14.9-15.7-15.5
	c-2.6-0.2-5.1,0.2-7.4,1.2c-2.3-7.8-8.8-13.6-16.7-14.2c-3.5-0.3-6.8,0.5-9.7,2c-5.8-11-16.3-18.7-28.8-19.6
	c-14.3-1.1-27.4,7-34.3,19.5c-1.7-0.7-3.5-1.1-5.4-1.3c-7.9-0.6-15.2,4-18.8,11.2c-4.2-2.9-10.4-4.2-17-3c-6,1.1-11,4.1-14.3,7.9
	c-1.7-1-5.6-3-10.9-3c-5.6,0-9.7,2.1-11.4,3.2c0-0.1,0-0.2,0-0.4c-1.3-11.8-11.3-20.4-22.2-19.1c-7.2,0.8-13.1,5.8-15.8,12.5
	c-3-11.4-13.2-19.2-24.3-17.9c-6,0.7-11.1,3.9-14.7,8.5c-4.1-3.2-9.3-4.8-14.7-4.2c-2,0.2-3.8,0.7-5.5,1.5
	c-4.5-8.6-14.7-15.6-27.3-17.4c-10.5-1.6-20.2,0.8-26.8,5.7c-6.1-11.1-17.9-18.1-30.4-16.6c-3,0.3-5.8,1.2-8.4,2.3
	c-11.8-19.5-32.9-31.5-55.6-28.9c-19.8,2.3-36.1,15.1-44.5,32.8c-4.7-2.2-10.1-3.3-15.5-2.6c-5.2,0.6-9.8,2.6-13.8,5.5l-11,145.3
	c3.1-2.4,5.8-5.5,7.8-9c4.5,3.8,10.3,5.8,16.3,5.1c4.7-0.5,9-2.7,12.3-5.8c7.9,6,17.7,9.1,27.9,7.9c12.6-1.4,23.1-9,29.4-19.6
	c4.5,2.1,9.5,3,14.7,2.4c6.1-0.7,11.5-3.4,15.8-7.3c6,2.8,12.7,4.1,19.6,3.3c9.8-1.1,18.2-6.1,24.2-13.4c8.1,8.9,19.8,13.9,32,12.5
	c9.3-1.1,17.4-5.6,23.4-12.3c2.1-0.7,4.1-1.6,6-2.7c1.7,0.3,3.5,0.4,5.3,0.2c3.2-0.4,6.1-1.6,8.6-3.4c3.3,1.6,7,2.3,10.9,1.9
	c8.4-1,15.1-7.2,17.6-15.3c5.1,4.2,11.6,6.4,18.5,5.6c6.5-0.7,12-4,16-8.8c2.6,2.7,6.1,4.5,10,4.8c4.3,0.3,8.4-1.2,11.5-4
	c1.8,5.1,6.1,8.8,11.4,9.2c2.4,0.2,4.7-0.4,6.8-1.4c1.6,1.1,3.4,1.8,5.5,1.9c1.1,0.1,2.2,0,3.3-0.3c1.2,0.6,2.5,1.1,3.9,1.5
	c3.9,4.1,9.1,6.8,15,7.2c7.8,0.6,14.9-2.9,19.9-8.7c4,4.4,9.4,7.4,15.6,7.8c4.4,0.3,8.5-0.6,12.3-2.5c2.8,2.4,6.3,3.9,10.1,4.2
	c3.3,0.2,6.4-0.4,9.2-1.9c4.2,6.6,11,11.1,19,11.7c6.5,0.5,12.6-1.7,17.4-5.7c2.2,1.9,4.9,3.2,7.9,3.4c3.8,0.3,7.4-1.1,10.1-3.6
	c3.2,5,8.4,8.5,14.5,9c7,0.5,13.4-3,17.3-8.7c1.9,3.8,5.6,6.5,9.9,6.8c2.6,0.2,5.1-0.5,7.2-1.8c5.6,3.9,13.3,6.6,21.9,7.2
	c12.4,0.9,23.5-2.6,29.6-8.6c2.2,3.6,5.8,6,10.1,6.4c5.2,0.4,9.9-2.5,12.5-7c1.4,0.7,3,1.2,4.7,1.3c4.2,0.3,8.1-1.5,10.8-4.6
	c1.4,2.4,3.7,4.1,6.6,4.3c3.2,0.2,6.2-1.5,7.8-4.3c0.2,0,0.4,0.1,0.7,0.1c2.4,0.2,4.6-0.7,6.3-2.3c0.9,0.9,2,1.6,3.4,1.7
	c1.5,0.1,2.9-0.5,4-1.5c0.8,0.6,1.7,1,2.8,1.1c1.5,0.1,2.9-0.4,4-1.5c0.1,0,0.3,0,0.4,0c6,0.5,11-0.9,11.2-3.1
	C821.1,531.5,816.4,529.3,810.4,528.9z"/>
</svg>
