<?xml version="1.0" encoding="utf-8"?>
<!-- Generator: Adobe Illustrator 25.2.3, SVG Export Plug-In . SVG Version: 6.00 Build 0)  -->
<svg version="1.0" id="Layer_1" xmlns="http://www.w3.org/2000/svg" xmlns:xlink="http://www.w3.org/1999/xlink" x="0px" y="0px"
	 viewBox="0 0 1024 1024" style="enable-background:new 0 0 1024 1024;" xml:space="preserve">
<style type="text/css">
	.st0{fill:#2D224C;}
</style>
<g>
	<g>
		<path class="st0" d="M589.6,671.3H450.2l-1-6.5c-2.6-16.4-4-34.6-4-54.3c0-19.6,1.7-40.5,4.9-61.9c8-46.6,26.6-84.1,55.4-111.5
			c29-27.7,67.2-41.7,113.4-41.7h9.3l-14.4,78.2h-6.5c-29.9,0-47.3,18.7-53.1,57.1l0,0.3l-1.2,6.2h60.7L589.6,671.3z M463.5,655.8
			h113.2l18.4-103.1h-60.8l4.6-24.5c8.1-53.3,36.8-67.8,61.9-69.9l8.7-47.2c-37.9,1.7-69.2,14.2-93.3,37.2
			c-26.3,25.1-43.4,59.6-50.8,102.8c-3.1,20.5-4.7,40.6-4.7,59.5C460.7,626.7,461.6,641.9,463.5,655.8z M406.4,671.3H266.9l-1-6.5
			c-2.6-16.4-4-34.6-4-54.3c0-19.6,1.7-40.5,4.9-61.9c8-46.6,26.4-84.1,54.8-111.5c28.7-27.7,67-41.7,113.9-41.7h9.3l-14.4,78.2H424
			c-28.7,0-46.1,18.7-53.1,57.3l-1.2,6.3h60.7L406.4,671.3z M280.2,655.8h113.2l18.4-103.1H351l4.6-24.6
			c7.9-43.6,28.7-67.1,61.9-69.7l8.7-47.2c-38.5,1.7-70,14.2-93.8,37.2c-26,25.1-42.9,59.6-50.3,102.8c-3.1,20.5-4.7,40.6-4.7,59.5
			C277.4,626.7,278.4,641.9,280.2,655.8z"/>
	</g>
</g>
</svg>
