<?xml version="1.0" encoding="utf-8"?>
<!-- Generator: Adobe Illustrator 25.2.3, SVG Export Plug-In . SVG Version: 6.00 Build 0)  -->
<svg version="1.0" id="Layer_1" xmlns="http://www.w3.org/2000/svg" xmlns:xlink="http://www.w3.org/1999/xlink" x="0px" y="0px"
	 viewBox="0 0 1024 1024" style="enable-background:new 0 0 1024 1024;" xml:space="preserve">
<style type="text/css">
	.st0{opacity:0.17;fill:#F2F2F2;}
	.st1{fill-rule:evenodd;clip-rule:evenodd;fill:#FFFFFF;}
	.st2{fill-rule:evenodd;clip-rule:evenodd;fill:#2D224C;}
</style>
<circle class="st0" cx="488.1" cy="498.1" r="262.5"/>
<g>
	<path class="st1" d="M718.6,553.7c1.4,2.9,0.2,5.6-0.6,8.3c-1.4,4.6-3,9-3.3,13.8c-2.8,5.7-3.2,12.4-7,17.8
		c-1.3,1.9-1.7,4.4-2.7,6.5c-3.8,8.2-7.3,16.5-11.7,24.3c-0.3,0.6-0.7,1.2-1.1,1.8c-4,5.6-8.2,11.1-12.2,16.7
		c-3.2,4.5-7.5,7.9-11.5,11.6c-0.5,0.5-1.2,0.7-1.8,1c-0.9-0.8-0.9-1.6-0.3-2.5c2.2-3.4,4.3-6.8,6.7-10.1c1.5-2.1,1.8-4.4,1.3-6.8
		c-0.1-0.3-0.6-0.7-1-0.8c-0.4-0.1-0.9,0.1-1.3,0.2c-0.2,0.1-0.4,0.3-0.4,0.5c-2.3,6.1-6.7,10.9-10.7,15.9
		c-7.3,8.8-14.7,17.5-23,25.3c-4.9,4.6-9.8,8.9-16.3,11.3c-2.7,1-5,3.5-7.2,5.6c-2.1,1.9-4.2,3.9-7,4.7c-0.9,0.3-1.6,1-2.4,1.6
		c-5.2,3.4-10.7,6-16.4,8.6c-6.1,2.8-12.1,5.1-18.7,6.5c-9.5,2-18.6,5.5-28.3,7.2c-8.8,3.9-18.5,4.1-27.6,6.9
		c-2.2,0.7-4.7,0.7-7.1,0.6c-5.9-0.3-11.8,1.1-17.7-0.3c-1.8-0.4-3.8-0.2-5.7-0.2c-5.7,0-11.2-0.9-16.8-1.9
		c-4.7-0.8-9.3-1.8-13.8-3.2c-0.9-0.3-1.9-0.4-2.8-0.4c-8.1-0.3-16-2.4-23.8-4.5c-5.9-1.6-11.9-3.4-17.1-6.9c-1.6-1.1-3.3-1.8-5-2.6
		c-0.8-0.4-2-0.5-2.6-1.1c-4.1-4-9.6-5.8-14.4-8.9c-0.6-0.4-1.4-0.5-1.8-1c-4-4.9-9.9-7.3-14.5-11.4c-3.7-3.3-7-7-11.8-8.7
		c-1.2-0.4-2.4-1.7-3.2-2.8c-4.3-5.7-10-10-15.6-14.4c-1.1-0.9-2-2-2.9-3.1c-6-6.7-12.8-12.7-17.5-20.5c-0.4-0.6-0.8-1.3-1.4-1.6
		c-3-1.4-4.3-4.4-6.1-6.8c-5.2-7.1-10.3-14.2-15.3-21.4c-0.8-1.1-1.3-2.5-2-3.8c-0.5-1.1-0.9-2.3-1.6-3.1c-4.8-4.9-7-11.3-9.7-17.2
		c-2.3-4.9-5.3-9.6-6.3-15.1c-4.3-8.1-5.1-17.1-6.9-25.9c-1.6-7.9-2.4-15.8-2.9-23.9c-0.2-3.3-0.1-6.6-0.3-10
		c-0.1-2.1,0.1-4.2-1.2-6.2c-0.7-1-0.6-2.7-0.4-4.1c0.7-4.8-0.6-9.5-1.2-14.1c0-0.2,0-0.5-0.1-0.7c-2.7-3.6-3-7.9-3.9-12
		c-0.1-0.7-0.3-1.6-0.8-1.9c-4.1-2.9-2.8-7.2-3.2-11c1.3-1.7,3.6-2.2,4.1-4.7c0.7-3.5,2.2-6.8,3.1-10.2c2.5-10.7,4.3-21.5,5.1-32.4
		c0.3-4.2,1.9-7.3,4.8-9.9c2.7-2.3,5.7-4.2,8.7-6.2c0.3-0.2,1,0,1.3,0.2c0.3,0.2,0.7,0.8,0.6,1.1c-0.4,1.4-1,2.7-1.4,4
		c-1.4,3.9-1.4,6.5,0.1,11.7c1.6,0,1.8-1.5,2.1-2.4c2-5.6,4-11.2,5.7-16.9c2-6.7,6-12.3,9.2-18.4c0.4-0.8,1.1-1.6,1.8-2.2
		c4.6-3.3,7.4-8,10.7-12.3c2.1-2.9,4.3-5.7,7.7-7.2c1-0.4,1.9-1.4,2.7-2.3c4.1-4.6,7.8-9.6,13.2-12.8c0.8-0.5,1.5-1.2,2-2
		c2-3.4,5.3-5.5,8.4-7.6c5.1-3.5,10.3-6.8,15.5-10c3.2-1.9,5.9-4.5,9.7-5.6c3.4-1,6.4-3,9.6-4.6c4-2,7.8-4.2,11.9-6
		c11.8-5,23.2-11,35.5-14.6c3.6-1,6.9-3,10.8-3.4c3.4-0.3,6.6-2.4,10.2-2.6c1.6-0.1,3.3-0.5,4.9-0.4c2.9,0.1,5.6-0.3,8.4-0.9
		c4.2-0.8,8.5-1.1,12.7-1.3c8.8-0.4,17.5-0.8,26.3,0.3c5.2-1.5,10.3,1,15.5,0.8c5.1-0.2,10.3,1,15.5,1.7c2.3,0.3,4.6,1,6.9,1.6
		c4.8,1.2,9.7,2.4,14.4,3.8c2.9,0.8,5.7,2.2,8.6,3.1c12,3.8,23.7,8.3,34.3,15.3c6.5,4.3,12.7,9.1,19.6,12.8c0.6,0.3,1.2,0.8,1.6,1.3
		c4.6,5.8,11.2,9.4,16.4,14.6c1.7,1.7,3.8,2.9,5.7,4.3c0.6,0.4,1.4,0.7,1.7,1.2c2.7,4.6,7.3,7.5,10.6,11.5c3.2,3.8,6.4,7.6,9.4,11.6
		c1.7,2.3,3.2,4.8,4.5,7.3c1.3,2.6,2.9,4.9,5.2,6.7c3.4,2.7,5.7,6.1,8.1,9.8c3.7,5.6,6.2,11.8,9.7,17.4c2,3.2,3.4,6.8,4.8,10.3
		c1.6,3.9,2.8,8.1,4.6,11.9c4.4,9,6.7,18.8,9.5,28.3c2.7,9.3,5.3,18.7,6.6,28.4c0.6,4.5,1.5,8.9,1.8,13.4c0.6,9.5-0.1,19-0.8,28.4
		c-0.4,5.7-1.1,11.3-1.6,16.9c-0.4,4.5-0.8,8.9-1.8,13.3c-0.3,1.1-0.1,2.3-0.1,4c0.9-0.6,1.7-0.8,1.9-1.3c1-1.6,1.8-3.3,2.6-5
		C718,553.6,718.3,553.6,718.6,553.7z M543,677c0.2,0.4,0.4,1.1,0.7,1.1c4.8,1.2,9.7,1.7,14.7,1.1c9.5-1.1,18.5-4,27.4-7.5
		c6.1-2.4,11.3-6.1,15.9-10.6c2.3-2.3,4-5.3,5.8-8c0.5-0.7,0.7-1.8-0.6-2.7c-0.7,0.4-1.6,0.6-2.3,1.2c-2,1.7-3.8,3.6-5.8,5.3
		c-5.9,5.3-13,8.9-20.2,11.9c-5.2,2.1-11,2.8-16.6,3.9c-5.6,1.1-11.2,1.9-16.8,3c-0.8,0.2-1.5,1-2.3,1.5c-0.1-0.2-0.2-0.3-0.4-0.4
		c-0.1,0-0.3,0.2-0.4,0.3C542.5,677.1,542.8,677,543,677z M481,591c0.6,0.2,0.9,0.4,1,0.3c1.4-0.8,2.9-1.4,4.3-2.3
		c11.2-7.5,23.9-10.3,37-11.4c12.3-1,24.7-0.5,36.9,1c1.2,0.1,2.3,0.5,3.4,0.9c3.6,1.2,6.9,3.2,10.5,4.3c5.8,1.9,10.3,5.8,15.6,8.5
		c1.4,0.7,2.6,2.1,3.8,3.2c3.8,3.6,7.1,7.7,10.1,11.9c3.6,5,6.8,10.3,7.8,16.6c0.7,4.5,1.2,8.9,1.9,13.4c0.1,0.9,0.3,1.9,1.8,2.1
		c1.7-2.2,2.5-4.8,2.4-7.7c-0.2-3.6-0.3-7.1-1.6-10.5c-1.3-3.5-1.7-7.5-3.4-10.9c-2-4-4.8-7.6-7.4-11.3c-3.7-5.3-8.9-9.2-14-13.1
		c-4.1-3.2-8.4-6.1-13.4-7.9c-1.6-0.6-3.3-1.1-4.5-2.1c-2.1-2-4.6-2.2-7.3-2.4c-7.8-0.6-15.6-1.3-23.4-1.9c-1.2-0.1-2.4,0.1-3.5,0.2
		c-2.1,0.1-4.3,0.1-6.4,0.2c-2.1,0-4.3,0-6.4,0.1c-3.1,0.2-6.2,0.5-9.2,0.8c-1.9,0.2-3.8,0.3-5.6,0.8c-5.3,1.4-10.6,2.8-15.7,4.6
		c-5.7,2-10.5,5.4-14.1,10.4C481.2,589.1,481.2,590.1,481,591z M536.2,389.4c2.1,1.8,2.7,2.6,3.5,2.9c4.6,1.4,9.1,3.2,13.7,3.7
		c8.3,1,16.1-0.7,22.7-6.1c1.8-1.5,4-2.7,5.6-4.4c2.1-2.2,4.5-4.4,5.7-7.1c2.3-5,3.2-10.5,2.1-16c-0.8-4.2-1.5-8.3-2.8-12.4
		c-2-6.4-5.4-12.1-8.2-18.1c-0.3-0.6-0.8-1.1-1.3-1.7c-1.8-1.9-3.5-3.8-5.3-5.7c-2.6-2.7-4.9-6-8-8.1c-6.2-4.3-12.7-8.3-20.4-9.5
		c-1.2-0.2-2.3-0.6-3.4-0.9c-4.2-1-8.4-1.4-12.6-0.8c-1.2,0.2-2.2,1.5-3.8,2.7c1.8,0.8,3.1,1.9,4.3,1.9c5.6,0,10.7,2.2,16.1,3.2
		c5.4,1.1,10.3,3.8,14.7,7.1c5.7,4.2,11.4,8.6,14.4,15.4c0.2,0.4,0.5,0.8,0.8,1.1c7.4,8.7,10,19.3,11.5,30.2c0.6,4-0.7,7.6-3,10.8
		c-4.1,6-10.1,9.5-17.1,10.7c-5.1,0.9-10.3,1.4-15.6,0.7C545.9,388.7,541.9,389.3,536.2,389.4z M325.4,607.8
		c0.5-2.4-0.4-4.3-1.4-6.2c-2-3.9-2.8-8.1-2.7-12.4c0.1-3.2,1.1-6.2,3.9-8c2.6-1.6,5.6-2.4,8.8-1.6c6.9,1.7,12.6,5.5,17.6,10.3
		c6,5.8,11.2,12.2,14.9,19.8c2.8,5.7,6.4,11.1,7.2,17.7c2,3.2,2,6.8,2.2,10.3c0.2,4.4-0.5,8.5-3.8,11.8c-0.3,0.3-0.7,0.8-0.7,1.2
		c0.1,0.6,0.4,1.6,0.8,1.7c1.1,0.3,2.4,0.5,3.4,0.1c3.3-1.5,5.1-4.4,5.6-7.7c0.5-3.5,0.7-7,0.1-10.6c-1.3-9.3-5.4-17.7-9.5-25.9
		c-5.6-10.9-13.3-20.2-23.1-27.6c-5.4-4.1-11.4-6.7-18.3-7c-3.5-0.1-6.4,0.7-9.3,2.8c-4,2.9-6.1,6.5-5.9,11.4
		c0.1,2.6,0.5,5.2,0.7,7.8c0.4,5.2,3.6,8.6,7.4,11.6C323.9,607.7,324.7,607.7,325.4,607.8z M572.1,657c1.6,0.4,2.2,0.8,2.8,0.7
		c6.9-1.1,12.1-5.3,17.4-9.4c2.8-2.1,5.2-4.7,7.1-7.8c2.9-4.8,3.7-9.6,2.4-14.9c-1.5-6.3-5.2-11.4-9.4-15.8
		c-5.1-5.3-11.6-9-18.5-11.8c-5.9-2.4-12-4.5-18.4-5.3c-6.6-0.9-13.2-1.9-19.8-0.6c-2.7,0.5-5.6,0.9-7.6,3.2
		c1.7,1.8,3.7,1.4,5.5,1.3c10.6-0.3,20.8,1.2,30.9,4.4c9.9,3.1,20.3,8.9,27,16.4c5.1,5.6,5.8,12.3,3.8,19.4
		c-0.2,0.9-0.8,1.8-1.5,2.3c-3.7,2.9-6.6,6.8-10.7,9.4C579.6,650.9,576.4,653.8,572.1,657z M417.3,322.6c-1.6,0.1-2.7,0-3.8,0.3
		c-5.6,1.5-9.3,5.4-12.9,9.6c-2.8,3.1-3.8,7.1-4.2,11.1c-0.1,0.9,0.1,2,0.5,2.7c2.5,3.5,5.4,6.6,9.6,8.1c1.3,0.5,2.7,0.8,4,1.4
		c7.6,3.4,14.4,1.1,20.8-3c2.4-1.5,4.5-3.5,6.4-5.6c2.4-2.6,4.5-5.5,6.6-8.3c1.2-1.6,1.2-3.5,0.9-5.4c-0.7-4.7-3.7-7.5-7.5-9.8
		c-0.6-0.3-1.4-0.4-2.1-0.3c-0.6,0.1-1.4,0.5-1.7,1c-0.3,0.5-0.2,1.5,0.2,1.9c0.9,1.1,2.1,1.9,3.1,2.9c3.2,3.6,3.1,6.4-0.5,9.9
		c-1.2,1.2-2.6,2.1-3.6,3.4c-2.3,2.8-5.5,4.5-8.4,6.6c-2.5,1.8-5.4,2.1-8.2,1.5c-3.7-0.8-7.3-2.2-10.4-4.4c-1.6-1.1-2.9-2.5-3-4.5
		c0.8-4.2,4.3-6.2,6.5-9.3C412,329.3,415.5,327,417.3,322.6z M511.2,310.5c-1.4-1.6-3.1-2.5-5.5-2.6c-7-0.4-12.3,3-17.3,7.1
		c-3.2,2.6-5.4,5.9-6,10.2c-0.1,0.9-0.6,1.8-0.9,2.7c-0.9,2.5-0.7,4.9,0.1,7.6c1.5,4.9,3.2,9.8,3,15.2c-0.1,4.1,1.3,8.6,4,11.9
		c3.4,4.2,7.7,7.7,13.4,8.6c0.8,0.1,1.7-0.2,2.9-0.3c-1.8-3.7-4-6.3-7.1-8.3c-4.4-3-7.7-6.8-7.7-12.8c0-2.5-0.7-5.2-1.7-7.6
		c-2-4.9-1.6-9.8-0.3-14.6c0.8-3,2.4-5.5,5.1-7.4c4.4-3.3,9.1-6,14.5-7.3C509.2,312.4,510.7,312.2,511.2,310.5z M551,374.4
		c-0.8-0.3-1.6-0.7-2.5-1c-3.3-1.2-6.8-2.2-10-3.7c-3.6-1.8-6.8-4.5-10.4-6.1c-5.3-2.4-9.5-6.1-14.1-9.4c-3.2-2.3-5.5-5.2-7.6-8.4
		c-3.7-5.4-5.4-11.1-2.7-17.5c0.5-1.3,0.8-2.7,1.1-4.1c0.1-0.3-0.3-0.8-0.5-1.1c-0.5,0-1-0.1-1.3,0.1c-3.4,2.2-5.4,5.4-5.8,9.4
		c-0.9,8.3,2,15.6,7.5,21.5c3.5,3.8,7.4,7.3,12.1,9.7c1.5,0.8,3,1.5,4.3,2.6c5.5,4.4,11.9,6.8,18.5,8.9
		C543.2,376.4,547,376.4,551,374.4z M509.4,654c-3.2-3.9-6-6.5-8.9-8.7c-4.2-3.2-6.8-7.5-8.5-12c-3.5-9.6-2-18,6.5-24.9
		c1.5-1.2,3-2.5,4.7-3.3c3.9-1.7,6.6-5.1,10.2-7.1c-0.4-0.5-0.5-0.9-0.6-0.9c-6.1,0.1-11.6,2.4-16.8,5.2
		c-8.6,4.6-13.5,16.4-11.7,26.2c1,5.2,3.1,10,6.1,14.3C494.6,649.1,500.9,652.1,509.4,654z M675.6,493.6c-1.2,0.3-1.7,0.4-2.1,0.6
		c-0.4,0.2-0.8,0.6-1,1c-2.2,4.3-1.9,8.7-0.2,13.1c1.8,4.7,5.4,7.7,9.3,10.5c3.5,2.5,5.6,2.3,9.1-0.1c1.7-1.2,2.6-2.8,3-4.7
		c0.7-4,1.2-8,0.7-12.1c-0.7-5.8-2.9-11-6-15.9c-1.6-2.5-3.9-4-8-3.1c3.9,4.5,7.4,8.7,8.1,14.4c0.7,5.4,1.8,10.8-1,15.9
		c-2.5,0.6-4.3,0-5.7-2c-2.3-3.4-4.3-6.8-4.7-11C677,498.1,676.2,496,675.6,493.6z M336.4,592.6c1.2,1.3,1.6,1.8,2.1,2.2
		c4,3.3,8.5,6.3,11.3,10.7c4.1,6.3,9.1,12.1,11.4,19.5c3.6,4.4,3.3,9.7,3.4,14.9c0,1.2,0,2.4,0.2,3.5c0.2,1.4,2.4,2.1,3.4,1.1
		c0.8-0.8,1.6-1.8,1.9-2.9c0.8-3.7,1.2-7.5-0.2-11.2c-1.6-4-3.1-8-5-11.8c-4.3-8.8-9.3-17.1-17.2-23.3
		C344.7,592.9,341.3,591.7,336.4,592.6z M407.6,365c-3.3-0.8-5.4-1.1-7.5-1.7c-5.1-1.5-8.5-4.7-10.6-9.7c-2.2-5.1-2.2-10-0.1-15.1
		c2.1-5.2,5.3-9.4,9.9-12.7c2.2-1.6,4.8-2.8,6.6-5.3c-3.6-0.9-5.1-0.9-7.5,0.6c-4.1,2.7-8.9,4.8-10.8,9.9c-0.2,0.4-0.5,0.8-0.9,1.1
		c-2.7,2.1-3.5,5.2-3.9,8.2c-1,7.6,0.4,14.6,5.3,20.8c2,2.6,4.3,4.2,7.5,5C399.6,367.1,402,367.1,407.6,365z M511.5,390.3
		c0.5,3.9,2.3,5.6,4.6,6.9c5.1,2.9,10.2,6,15.3,8.8c2.7,1.5,5.5,2.8,8.4,3.7c6.8,2.2,13.6,1.2,20.3-0.4c1.8-0.5,4.3-0.3,5.8-2.9
		c-2,0-3.6,0-5.2-0.1c-3.8-0.1-7.6,0.4-11.3-0.3c-7-1.3-13.6-4-19.9-7.3c-4.8-2.5-9.7-4.9-14.5-7.3
		C514.2,391.1,513.3,390.9,511.5,390.3z M279.4,440.5c-1,2.2-2,3.8-2.5,5.6c-0.6,2-0.7,4.2-1,6.3c-0.4,2.6-0.5,5.2-1.2,7.7
		c-1.6,5.9-3.6,11.8-5.3,17.7c-0.4,1.3-0.2,2.8-0.1,4.2c0.1,1.1,2,1.7,2.8,1c0.5-0.5,1.1-0.9,1.4-1.5c2.6-5.6,4.6-11.4,5.6-17.5
		c0.5-3.3,1-6.5,1.7-9.8c0.8-4,0.6-8,0.2-12C281,441.8,280.4,441.5,279.4,440.5z M601.5,367.9c2.1-3.6,2-6.6,1.5-9.7
		c-0.6-3.3-1.4-6.5-2.1-9.7c-1.9-8.3-6.1-15.3-12.3-21.1c-0.7-0.6-1.5-1.2-2.4-1.4c-1-0.3-2.3-0.8-2.9,1c0.6,0.9,1.3,1.8,2,2.8
		c2.1,3.1,4.5,6,6.4,9.3c3,5.1,4.7,10.8,6,16.6C598.5,359.5,599.3,363.4,601.5,367.9z M628.7,674.1c0-2.2,0.1-4.1-0.1-6
		c0-0.5-0.8-1.2-1.3-1.4c-0.6-0.2-1.5,0.1-1.9,0.5c-1,1-1.6,2.3-2.5,3.4c-0.7,0.9-2.1,0.4-2.6-0.9c-0.9-2.2-1.8-3-3.2-2.3
		c-1.7,0.8-3.4,1.7-4.8,2.9c-2.6,2.4-1.8,6.8,1.6,8.3c3.9,1.7,7.8,2,11.2-1.3C626.1,676.3,627.2,675.4,628.7,674.1z M624.4,359.6
		c3.8,2.4,6.9,5.1,8.2,9.4c-1.1,0.9-2.1,1.6-2.8,2.5c-0.3,0.4-0.3,1.5,0,1.9c1.5,1.8,3.8,2.4,5.7,1.4c1.7-0.9,2.8-2.2,2.8-4.5
		c0.1-4.4-2-7.7-4.9-10.6c-1.9-1.9-3.9-3.8-6.6-3.9c-2.2-0.1-4.6,0.7-6.7,1.4c-0.6,0.2-1.3,1.5-1.3,2.2c0.1,1.7,0.7,3.2,2.9,3.3
		C622.5,361.8,623.4,360.7,624.4,359.6z M340.6,566c0.3-0.3,0.7-0.6,1-0.9c-1.6-2-3-4.2-4.8-6c-3.4-3.5-8-4.9-12.3-3.5
		c-5.7,1.9-10.3,5.7-12.2,11.9c-0.2,0.6,0.2,1.3,0.3,2c0.3,0,0.6,0,0.8-0.1c1.5-1.4,3-2.9,4.5-4.4c4.8-4.9,9.1-5.7,15.3-2.9
		c1.5,0.7,2.8,1.7,4.3,2.5C338.6,565.1,339.6,565.5,340.6,566z M667.3,487.9c3.8-4.8,4.7-10.8,9.5-13.4c3.5-0.1,5.9,2.7,9.7,1.9
		c-1.7-3.5-3.5-6.4-7-6.9c-4.4-0.6-8.7,0.4-11.4,4.1C665,477.7,664.1,482.4,667.3,487.9z M358.7,649.2c-0.7-2.6-2.5-3.1-4.5-3.2
		c-6.1-0.3-10.7-3.6-14.9-7.6c-1.7-1.6-3.2-3.5-4.7-5.4c-1.3-1.7-2.6-3.4-3.9-5.1c-0.4-0.4-1.1-0.6-1.9-0.9
		c-0.7,2.5,0.2,4.4,1.5,6.1c4.2,5.2,8.4,10.4,14.4,13.5C349,648.8,353.6,649.9,358.7,649.2z M449.8,639.3c-0.4-0.3-1.3-1.1-2.3-1.5
		c-1.3-0.5-2.7-0.7-4.1-0.9c-2.2-0.3-4.1,1.4-4.4,3.7c-0.6,4.6,3.8,8.8,8.5,7.9c0.7-0.1,1.4-0.4,1.9-0.9
		C451.4,645.9,451.8,642,449.8,639.3z M440.6,359.6c3.9,1.2,6-0.8,8-2.3c3.3-2.6,6.5-5.6,6.5-10.3c0-1.3-0.7-2.6-1.3-3.8
		c-0.3-0.7-2.2-0.7-2.4,0.1c-1.5,4.9-5,8.3-8.5,11.7C441.8,356,441.5,357.8,440.6,359.6z M575.9,354.8c-2.4,1.6-2.3,3.8-2.2,5.8
		c0.2,3-0.8,5.6-2.6,7.9c-0.9,1.1-1.7,2.3-2.4,3.5c-0.4,0.7-0.4,1.7-0.7,2.7c4.9,1.1,6.5-2.5,8.8-5
		C578.3,364.6,579.5,359.7,575.9,354.8z M471.4,321.7c2.1-3.5,3.9-6.3,5.4-9.2c1.5-2.8,5.4-4,5.4-7.9c-3.9-1.6-5.5-1.4-7.4,1.1
		c-1.3,1.7-2.3,3.6-3.6,5.3c-1.9,2.7-2.2,5.6-1.6,8.7C469.8,320.3,470.5,320.7,471.4,321.7z M463.8,609.9c-3.6,2-4,2.1-4,4.2
		c0,4,0.2,8,0.6,12c0.2,2.2,1.8,3.7,4.6,5.6c1-2,1.2-4.1,0.5-6.2c-0.8-2.6-0.7-5.1-0.4-7.7c0.2-2.1-0.1-4.3-0.3-6.4
		C464.8,611,464.1,610.5,463.8,609.9z M695.8,604.1c5.4-6.7,7.2-14.3,9.6-21.7c0.2-0.8,0.3-1.9-1.4-2.3c-3.2,2.7-4.1,7.1-5.8,10.8
		c-1.7,3.6-3.3,7.3-3.5,11.4C694.6,602.7,695.1,603,695.8,604.1z M686.5,529c0.8,2.2,2.3,2.6,4,2.6c2.6,0.1,4.4-1.5,6.2-3.1
		c1.6-1.4,1.9-3.2,2-5.1c0.1-1.9-0.3-3.7-2.1-4.8c-2.8,1.2-2.3,4.3-4,5.7C690.6,526.1,688.5,527.5,686.5,529z M488.3,663.8
		c0.3-0.3,0.5-0.7,0.8-1c-3.5-3.8-7-7.6-10.5-11.4c-0.2-0.2-0.4-0.4-0.6-0.4c-0.6-0.1-1.5-0.4-1.9-0.1c-0.5,0.3-0.9,1.2-0.9,1.8
		c-0.1,3.5,2.5,7.7,5.8,8.9C483.4,662.5,485.9,663.1,488.3,663.8z"/>
	<path class="st1" d="M717.8,553.5c0.2-0.5,0.4-0.9,0.5-1.4c0.1,0.5,0.2,1,0.3,1.5C718.3,553.6,718,553.6,717.8,553.5z"/>
	<path class="st2" d="M267.1,396c2.2-0.6,4.2-1.2,6.7-1.9c1.7-2.6,3.4-5.6,6.8-7.4c4.3-2.3,7.2-6,9.6-10.2c1.3-2.3,3-4.3,4.1-6.7
		c1.1-2.2,2.7-3.9,4.3-5.7c1.4-1.6,2.6-3.3,4-5c1.5-1.8,2.9-3.6,5.2-4.7c2.1-1,4.3-2.5,5.4-4.4c4.8-8.1,12.4-13.6,18.7-20.3
		c2.4-2.6,5.5-4.4,8.3-6.7c1.5-1.2,2.9-2.4,4.4-3.6c1.1-0.9,2.3-1.7,3.5-2.4c1.2-0.7,2.7-1.2,3.7-2.1c5.3-4.5,11.8-7,17.9-10.2
		c2.5-1.3,4.8-3,7.3-4.1c5-2.1,9.9-4.4,14.7-7.2c3.2-1.9,6.9-3.3,10.5-4.4c2.5-0.8,5-1.2,6.9-3.3c0.4-0.5,1.2-0.8,1.9-1
		c6.8-2.2,13.6-4.3,20.3-6.6c3-1,6-1.3,9.1-0.9c5.5,0.6,10.8,0.1,15.9-2.4c2-1,4.6-0.9,6.9-1.4c6.3-1.1,12.7-1.6,19.2-1.4
		c3.3,0.1,6.6,0.2,9.9-0.2c3.4-0.5,7,1.3,10.6,0.3c5.1,1.4,10.4,0,15.5,1.7c1.1,0.4,2.4,0.4,3.5,0.4c7-0.4,13.7,1.2,20.4,2.6
		c11.7,2.4,22.9,6.2,34,10.4c4.4,1.7,8.5,4.1,12.7,6.2c2.3,1.2,4.6,2.5,6.9,3.6c4.9,2.4,9.6,5,14,8.4c4.8,3.8,10.6,6.4,15.2,10.4
		c6.6,5.7,14.7,9.8,19.8,17.2c0.3,0.4,0.5,0.9,0.9,1.1c6.6,3.3,9.7,10.3,15.5,14.5c0.9,0.7,1.6,1.8,2.2,2.8c1.7,3.1,3.4,6.3,6.5,8.4
		c0.4,0.2,0.6,0.7,0.9,1.1c3.4,5.7,6.7,11.5,10.1,17.2c1.3,2.2,2.6,4.5,3.9,6.8c4.3,7.1,9,14,12.7,21.4c3.8,7.4,6.5,15.3,9.8,22.9
		c2.6,6.1,5.3,12.2,7.9,18.3c0.9,2.2,1.7,4.4,2.3,6.7c0.8,2.9,1.5,5.9,2.2,8.9c3,12.6,3.4,25.4,3.7,38.2c0.3,12.4-0.4,24.7-2.2,36.9
		c-0.5,3,0.2,5.7,0.9,8.4c1.5,6.3,2.1,12.6,1.5,19.1c-0.6,5.4-1.5,10.8-3.9,15.8c-0.8,1.7-1.2,3.6-1.8,5.4c-0.4,1.4-0.7,2.8-1.3,4.1
		c-3.5,7.8-6.2,15.9-10.5,23.4c-1.5,2.7-2.5,5.6-3.8,8.4c-4.6,9.7-10.7,18.5-18,26.3c-4.3,4.6-7.7,10.3-13.9,12.8
		c-1.8,2.2-4.5,2.6-7,3.3c-2.5,0.7-5.1,1.2-7.5,1.7c-1.6,2-3.1,3.8-4.7,5.6c-1.2,1.5-2.4,2.9-4.3,3.6c-1,0.4-1.9,1.3-2.7,2.2
		c-3.3,3.7-7,7-10.9,10.1c-4.1,3.2-7.8,7-11.7,10.4c-1.6,1.4-3.4,2.5-5.2,3.6c-3.6,2.3-7.1,4.7-10.9,6.7c-5.4,2.9-11,5.7-16.6,8.2
		c-7.2,3.2-14.6,5.5-22.4,7c-4.9,1-9.7,2-14.4,3.8c-4.8,1.9-10.1,2.7-15.1,4c-2.1,0.5-4.4,0.7-6.2,1.8c-4.6,2.7-9.8,3.5-14.9,4.5
		c-4.9,1-9.9,1.2-14.9,0.4c-1.8-0.3-3.9-0.8-5.6-0.2c-5.2,1.6-10.4,0.3-15.5-0.2c-4.2-0.4-8.5-0.4-12.6-1.2
		c-6.5-1.1-13-2.4-19.6-3.5c-3.7-0.6-7.2-3.1-10.8-3.2c-5.8-0.3-11.1-2.4-16.7-3.3c-7-1.1-13.8-3.8-19.7-7.8c-2.7-1.8-6-2.9-8.1-5.7
		c-0.3-0.4-0.7-0.7-1.1-0.9c-7.5-2.7-12.9-8.6-18.9-13.5c-0.2-0.1-0.4-0.3-0.6-0.4c-7.4-4.8-13.3-11.4-20.2-16.7
		c-6.5-4.9-12-10.7-18.1-16c-4.2-3.8-8-8-11.6-12.4c-1.7-2-3.3-4-5.1-5.9c-2.3-2.7-4.5-5.5-6.5-8.4c-5.5-8-12.4-14.9-17.9-23
		c-1.2-1.8-2.4-3.6-3.4-5.4c-2.5-4.6-4.2-9.6-7.7-13.6c-2.3-6.5-6.9-11.9-8.5-18.7c-0.2-0.9-0.5-1.9-1-2.7
		c-3.1-5.2-4.7-10.9-6.2-16.6c-1.7-6.6-3.3-13.2-3.1-20.2c0.1-3.5-0.8-7-1.2-10.6c-0.1-0.5-0.4-0.9-0.3-1.4c0.3-6.7-2-13.2-1.6-19.8
		c0.3-6.2-0.9-12.3-0.9-18.4c0-3-0.7-6.2-2-9c-1.4-3.1-2.1-6.3-3.1-9.4c-2-6-1.8-12.2-0.9-18.3c0.9-5.6,2.2-11.2,3.3-16.8
		c1-5.1,2-10.2,3-15.3c0.8-3.5,1.7-6.9,2.6-10.3c0.1-0.5,0.5-0.9,0.5-1.3C262.3,403.7,265.4,400.2,267.1,396z M718.6,553.7
		c-0.1-0.5-0.2-1-0.3-1.5c-0.2,0.5-0.4,0.9-0.5,1.4c-0.9,1.7-1.7,3.4-2.6,5c-0.3,0.5-1,0.7-1.9,1.3c0-1.7-0.1-2.9,0.1-4
		c1-4.4,1.5-8.8,1.8-13.3c0.5-5.6,1.2-11.3,1.6-16.9c0.7-9.5,1.4-18.9,0.8-28.4c-0.3-4.5-1.2-8.9-1.8-13.4
		c-1.3-9.7-3.9-19.1-6.6-28.4c-2.8-9.5-5-19.3-9.5-28.3c-1.9-3.8-3-8-4.6-11.9c-1.5-3.5-2.9-7.1-4.8-10.3c-3.5-5.7-6-11.8-9.7-17.4
		c-2.4-3.6-4.7-7.1-8.1-9.8c-2.3-1.8-3.9-4.1-5.2-6.7c-1.3-2.5-2.7-5-4.5-7.3c-3-4-6.2-7.8-9.4-11.6c-3.3-4-7.9-6.9-10.6-11.5
		c-0.3-0.6-1.2-0.8-1.7-1.2c-1.9-1.4-4-2.6-5.7-4.3c-5.2-5.2-11.8-8.8-16.4-14.6c-0.4-0.5-1-1-1.6-1.3c-6.9-3.6-13.1-8.5-19.6-12.8
		c-10.6-7-22.3-11.5-34.3-15.3c-2.9-0.9-5.7-2.2-8.6-3.1c-4.8-1.4-9.6-2.5-14.4-3.8c-2.3-0.6-4.6-1.3-6.9-1.6
		c-5.2-0.7-10.4-1.9-15.5-1.7c-5.3,0.2-10.3-2.3-15.5-0.8c-8.7-1.1-17.5-0.7-26.3-0.3c-4.3,0.2-8.6,0.5-12.7,1.3
		c-2.8,0.6-5.6,1-8.4,0.9c-1.6-0.1-3.3,0.3-4.9,0.4c-3.6,0.2-6.7,2.3-10.2,2.6c-3.9,0.4-7.2,2.3-10.8,3.4
		c-12.4,3.6-23.8,9.5-35.5,14.6c-4.1,1.8-8,4-11.9,6c-3.2,1.6-6.2,3.6-9.6,4.6c-3.8,1.1-6.5,3.7-9.7,5.6c-5.3,3.2-10.5,6.5-15.5,10
		c-3.1,2.2-6.4,4.2-8.4,7.6c-0.5,0.8-1.2,1.6-2,2c-5.4,3.2-9.1,8.2-13.2,12.8c-0.8,0.9-1.6,1.8-2.7,2.3c-3.5,1.5-5.6,4.3-7.7,7.2
		c-3.3,4.4-6.1,9.1-10.7,12.3c-0.8,0.5-1.4,1.3-1.8,2.2c-3.3,6-7.2,11.7-9.2,18.4c-1.7,5.7-3.7,11.3-5.7,16.9
		c-0.3,1-0.5,2.4-2.1,2.4c-1.5-5.1-1.5-7.7-0.1-11.7c0.5-1.3,1-2.6,1.4-4c0.1-0.3-0.3-0.9-0.6-1.1c-0.3-0.2-1-0.4-1.3-0.2
		c-2.9,2-6,3.9-8.7,6.2c-2.9,2.5-4.6,5.7-4.8,9.9c-0.8,10.9-2.5,21.7-5.1,32.4c-0.8,3.5-2.3,6.7-3.1,10.2c-0.5,2.5-2.9,3-4.1,4.7
		c0.4,3.8-0.9,8.1,3.2,11c0.5,0.3,0.7,1.3,0.8,1.9c0.9,4.1,1.2,8.5,3.9,12c0.1,0.2,0.1,0.5,0.1,0.7c0.7,4.7,1.9,9.3,1.2,14.1
		c-0.2,1.3-0.3,3.1,0.4,4.1c1.3,2,1.1,4.1,1.2,6.2c0.1,3.3,0,6.7,0.3,10c0.5,8,1.4,16,2.9,23.9c1.7,8.8,2.5,17.8,6.9,25.9
		c0.9,5.5,4,10.2,6.3,15.1c2.8,5.9,5,12.3,9.7,17.2c0.8,0.8,1.1,2.1,1.6,3.1c0.6,1.3,1.2,2.6,2,3.8c5.1,7.2,10.2,14.3,15.3,21.4
		c1.8,2.5,3.1,5.4,6.1,6.8c0.6,0.3,1.1,1,1.4,1.6c4.7,7.8,11.5,13.8,17.5,20.5c1,1.1,1.8,2.2,2.9,3.1c5.6,4.4,11.3,8.7,15.6,14.4
		c0.8,1.1,1.9,2.4,3.2,2.8c4.9,1.7,8.2,5.4,11.8,8.7c4.6,4.1,10.5,6.6,14.5,11.4c0.4,0.5,1.2,0.6,1.8,1c4.7,3.1,10.2,4.9,14.4,8.9
		c0.6,0.6,1.7,0.7,2.6,1.1c1.7,0.8,3.5,1.6,5,2.6c5.2,3.5,11.2,5.3,17.1,6.9c7.8,2.1,15.6,4.2,23.8,4.5c0.9,0,1.9,0.2,2.8,0.4
		c4.5,1.4,9.1,2.4,13.8,3.2c5.6,1,11.1,1.9,16.8,1.9c1.9,0,3.9-0.2,5.7,0.2c5.9,1.3,11.8,0,17.7,0.3c2.3,0.1,4.8,0.1,7.1-0.6
		c9.1-2.8,18.8-3,27.6-6.9c9.6-1.7,18.7-5.3,28.3-7.2c6.6-1.4,12.6-3.7,18.7-6.5c5.6-2.6,11.2-5.1,16.4-8.6c0.8-0.5,1.5-1.3,2.4-1.6
		c2.8-0.9,4.9-2.8,7-4.7c2.3-2,4.5-4.5,7.2-5.6c6.4-2.5,11.4-6.8,16.3-11.3c8.4-7.8,15.8-16.5,23-25.3c4.1-5,8.4-9.8,10.7-15.9
		c0.1-0.2,0.3-0.5,0.4-0.5c0.4-0.1,0.9-0.3,1.3-0.2c0.4,0.1,1,0.5,1,0.8c0.5,2.4,0.2,4.7-1.3,6.8c-2.3,3.3-4.5,6.7-6.7,10.1
		c-0.6,0.9-0.6,1.7,0.3,2.5c0.6-0.3,1.3-0.6,1.8-1c4-3.7,8.3-7.1,11.5-11.6c4-5.6,8.1-11.1,12.2-16.7c0.4-0.6,0.8-1.2,1.1-1.8
		c4.4-7.9,7.8-16.2,11.7-24.3c1-2.1,1.4-4.6,2.7-6.5c3.7-5.4,4.2-12.1,7-17.8c0.3-4.8,1.9-9.3,3.3-13.8
		C718.8,559.3,720,556.5,718.6,553.7z"/>
	<path class="st2" d="M481,591c0.2-0.8,0.2-1.9,0.7-2.5c3.6-4.9,8.5-8.3,14.1-10.4c5.1-1.8,10.4-3.2,15.7-4.6
		c1.8-0.5,3.7-0.6,5.6-0.8c3.1-0.3,6.2-0.6,9.2-0.8c2.1-0.1,4.3-0.1,6.4-0.1c2.1,0,4.3-0.1,6.4-0.2c1.2,0,2.4-0.2,3.5-0.2
		c7.8,0.6,15.6,1.3,23.4,1.9c2.6,0.2,5.1,0.5,7.3,2.4c1.2,1.1,2.9,1.6,4.5,2.1c5,1.8,9.3,4.7,13.4,7.9c5.1,3.9,10.2,7.8,14,13.1
		c2.6,3.7,5.4,7.3,7.4,11.3c1.7,3.4,2,7.3,3.4,10.9c1.3,3.4,1.5,7,1.6,10.5c0.1,2.9-0.6,5.5-2.4,7.7c-1.5-0.2-1.7-1.2-1.8-2.1
		c-0.6-4.5-1.2-8.9-1.9-13.4c-1-6.3-4.3-11.6-7.8-16.6c-3-4.2-6.3-8.3-10.1-11.9c-1.2-1.1-2.4-2.5-3.8-3.2
		c-5.3-2.7-9.8-6.6-15.6-8.5c-3.5-1.1-6.9-3.1-10.5-4.3c-1.1-0.4-2.3-0.7-3.4-0.9c-12.3-1.4-24.6-1.9-36.9-1
		c-13.2,1-25.8,3.9-37,11.4c-1.4,0.9-2.9,1.6-4.3,2.3C481.9,591.4,481.6,591.2,481,591z"/>
	<path class="st2" d="M536.2,389.4c5.7-0.1,9.7-0.8,13.7-0.2c5.3,0.7,10.5,0.2,15.6-0.7c7-1.3,12.9-4.7,17.1-10.7
		c2.2-3.2,3.5-6.8,3-10.8c-1.5-10.9-4.2-21.5-11.5-30.2c-0.3-0.4-0.7-0.7-0.8-1.1c-3-6.8-8.7-11.2-14.4-15.4
		c-4.4-3.3-9.3-6-14.7-7.1c-5.3-1.1-10.5-3.2-16.1-3.2c-1.2,0-2.5-1-4.3-1.9c1.6-1.2,2.6-2.6,3.8-2.7c4.2-0.6,8.5-0.3,12.6,0.8
		c1.2,0.3,2.3,0.7,3.4,0.9c7.7,1.2,14.2,5.2,20.4,9.5c3.1,2.1,5.4,5.3,8,8.1c1.8,1.9,3.5,3.8,5.3,5.7c0.5,0.5,1,1,1.3,1.7
		c2.8,6,6.2,11.7,8.2,18.1c1.3,4.1,1.9,8.3,2.8,12.4c1.1,5.6,0.2,11-2.1,16c-1.2,2.7-3.6,4.9-5.7,7.1c-1.7,1.7-3.8,2.8-5.6,4.4
		c-6.6,5.5-14.4,7.2-22.7,6.1c-4.7-0.6-9.2-2.4-13.7-3.7C538.9,392.1,538.3,391.2,536.2,389.4z"/>
	<path class="st2" d="M325.4,607.8c-0.7-0.2-1.5-0.1-2-0.5c-3.8-3-6.9-6.5-7.4-11.6c-0.2-2.6-0.6-5.2-0.7-7.8
		c-0.2-4.9,1.8-8.5,5.9-11.4c2.9-2.1,5.8-2.9,9.3-2.8c6.9,0.3,13,2.9,18.3,7c9.8,7.4,17.6,16.7,23.1,27.6c4.2,8.2,8.2,16.6,9.5,25.9
		c0.5,3.6,0.4,7.1-0.1,10.6c-0.5,3.4-2.3,6.3-5.6,7.7c-0.9,0.4-2.3,0.2-3.4-0.1c-0.4-0.1-0.7-1.1-0.8-1.7c-0.1-0.4,0.4-0.9,0.7-1.2
		c3.3-3.3,4-7.4,3.8-11.8c-0.2-3.5-0.2-7.1-2.2-10.3c-0.8-6.6-4.4-11.9-7.2-17.7c-3.7-7.6-8.9-14-14.9-19.8
		c-5-4.8-10.6-8.7-17.6-10.3c-3.3-0.8-6.2,0-8.8,1.6c-2.8,1.7-3.8,4.8-3.9,8c-0.1,4.3,0.6,8.5,2.7,12.4
		C325,603.5,325.9,605.5,325.4,607.8z"/>
	<path class="st2" d="M572.1,657c4.2-3.3,7.5-6.1,11.1-8.4c4.1-2.6,7-6.5,10.7-9.4c0.7-0.6,1.3-1.5,1.5-2.3c2-7.1,1.3-13.7-3.8-19.4
		c-6.8-7.5-17.2-13.3-27-16.4c-10.1-3.2-20.3-4.7-30.9-4.4c-1.8,0.1-3.9,0.5-5.5-1.3c2-2.3,4.9-2.7,7.6-3.2
		c6.6-1.3,13.2-0.3,19.8,0.6c6.4,0.9,12.4,3,18.4,5.3c6.9,2.8,13.4,6.5,18.5,11.8c4.2,4.4,7.9,9.5,9.4,15.8
		c1.3,5.3,0.5,10.2-2.4,14.9c-1.9,3.1-4.3,5.7-7.1,7.8c-5.3,4-10.5,8.2-17.4,9.4C574.3,657.9,573.7,657.5,572.1,657z"/>
	<path class="st2" d="M417.3,322.6c-1.8,4.3-5.2,6.7-7.5,9.9c-2.2,3.1-5.7,5.1-6.5,9.3c0.1,2,1.5,3.4,3,4.5
		c3.1,2.2,6.7,3.7,10.4,4.4c2.8,0.6,5.7,0.3,8.2-1.5c2.9-2.1,6.1-3.7,8.4-6.6c1-1.3,2.4-2.3,3.6-3.4c3.6-3.4,3.7-6.3,0.5-9.9
		c-1-1-2.2-1.9-3.1-2.9c-0.4-0.4-0.4-1.4-0.2-1.9c0.3-0.5,1-0.9,1.7-1c0.7-0.1,1.5-0.1,2.1,0.3c3.8,2.3,6.8,5.1,7.5,9.8
		c0.3,2,0.3,3.8-0.9,5.4c-2.1,2.8-4.2,5.7-6.6,8.3c-1.9,2.1-4.1,4.1-6.4,5.6c-6.4,4.1-13.2,6.4-20.8,3c-1.3-0.6-2.7-0.9-4-1.4
		c-4.2-1.6-7.1-4.6-9.6-8.1c-0.5-0.7-0.6-1.8-0.5-2.7c0.4-4.1,1.4-8,4.2-11.1c3.6-4.1,7.4-8.1,12.9-9.6
		C414.6,322.6,415.7,322.7,417.3,322.6z"/>
	<path class="st2" d="M511.2,310.5c-0.5,1.7-2,1.9-3.4,2.3c-5.4,1.3-10,4-14.5,7.3c-2.7,2-4.3,4.4-5.1,7.4
		c-1.2,4.9-1.6,9.7,0.3,14.6c0.9,2.4,1.7,5,1.7,7.6c0,6,3.3,9.8,7.7,12.8c3.1,2.1,5.3,4.6,7.1,8.3c-1.2,0.2-2.1,0.5-2.9,0.3
		c-5.7-0.9-10-4.4-13.4-8.6c-2.7-3.3-4.1-7.8-4-11.9c0.2-5.4-1.6-10.3-3-15.2c-0.8-2.7-0.9-5-0.1-7.6c0.3-0.9,0.8-1.8,0.9-2.7
		c0.5-4.3,2.8-7.6,6-10.2c5-4,10.3-7.5,17.3-7.1C508.1,308,509.8,308.8,511.2,310.5z"/>
	<path class="st2" d="M551,374.4c-4,2-7.8,2-11.5,0.8c-6.6-2.1-13-4.5-18.5-8.9c-1.3-1-2.8-1.8-4.3-2.6c-4.7-2.4-8.7-6-12.1-9.7
		c-5.5-5.9-8.4-13.2-7.5-21.5c0.4-4,2.4-7.1,5.8-9.4c0.3-0.2,0.9-0.1,1.3-0.1c0.2,0.4,0.6,0.8,0.5,1.1c-0.3,1.4-0.6,2.8-1.1,4.1
		c-2.7,6.4-1,12.1,2.7,17.5c2.2,3.1,4.5,6.1,7.6,8.4c4.6,3.3,8.9,7,14.1,9.4c3.6,1.7,6.8,4.4,10.4,6.1c3.2,1.6,6.6,2.5,10,3.7
		C549.4,373.7,550.2,374.1,551,374.4z"/>
	<path class="st2" d="M509.4,654c-8.5-1.8-14.8-4.9-19-11c-3-4.3-5.1-9-6.1-14.3c-1.8-9.9,3.1-21.7,11.7-26.2
		c5.2-2.8,10.7-5.1,16.8-5.2c0.1,0,0.3,0.3,0.6,0.9c-3.6,2-6.3,5.3-10.2,7.1c-1.7,0.7-3.2,2.1-4.7,3.3c-8.5,6.9-10,15.3-6.5,24.9
		c1.7,4.6,4.2,8.8,8.5,12C503.4,647.5,506.2,650,509.4,654z"/>
	<path class="st2" d="M543,677.2c0.8-0.5,1.5-1.3,2.3-1.5c5.6-1.1,11.2-1.9,16.8-3c5.6-1.1,11.4-1.8,16.6-3.9
		c7.2-3,14.3-6.5,20.2-11.9c1.9-1.7,3.8-3.6,5.8-5.3c0.7-0.6,1.6-0.8,2.3-1.2c1.2,0.9,1.1,1.9,0.6,2.7c-1.8,2.8-3.4,5.8-5.8,8
		c-4.6,4.5-9.7,8.2-15.9,10.6c-8.9,3.4-17.8,6.4-27.4,7.5c-5,0.6-9.9,0.1-14.7-1.1c-0.3-0.1-0.5-0.7-0.7-1.1L543,677.2z"/>
	<path class="st2" d="M675.6,493.6c0.6,2.4,1.4,4.4,1.5,6.5c0.4,4.2,2.3,7.7,4.7,11c1.4,2.1,3.2,2.6,5.7,2c2.8-5.1,1.7-10.5,1-15.9
		c-0.8-5.7-4.2-9.9-8.1-14.4c4.1-0.9,6.4,0.6,8,3.1c3.1,4.8,5.2,10.1,6,15.9c0.5,4.1,0,8.1-0.7,12.1c-0.3,1.9-1.3,3.5-3,4.7
		c-3.5,2.5-5.6,2.6-9.1,0.1c-3.9-2.8-7.5-5.8-9.3-10.5c-1.7-4.4-2-8.8,0.2-13.1c0.2-0.4,0.6-0.8,1-1
		C673.9,494,674.4,494,675.6,493.6z"/>
	<path class="st2" d="M336.4,592.6c4.9-0.9,8.3,0.2,11.4,2.7c7.8,6.2,12.8,14.6,17.2,23.3c1.9,3.8,3.4,7.8,5,11.8
		c1.5,3.7,1.1,7.5,0.2,11.2c-0.2,1-1.1,2.1-1.9,2.9c-1,1-3.2,0.3-3.4-1.1c-0.2-1.2-0.2-2.3-0.2-3.5c-0.1-5.2,0.1-10.5-3.4-14.9
		c-2.3-7.4-7.4-13.2-11.4-19.5c-2.8-4.4-7.3-7.4-11.3-10.7C338,594.5,337.5,593.9,336.4,592.6z"/>
	<path class="st2" d="M407.6,365c-5.6,2.1-8,2.1-12.1,1.1c-3.1-0.8-5.5-2.4-7.5-5c-4.8-6.2-6.2-13.2-5.3-20.8c0.4-3,1.2-6.1,3.9-8.2
		c0.4-0.3,0.7-0.7,0.9-1.1c1.9-5.1,6.7-7.2,10.8-9.9c2.4-1.5,3.9-1.5,7.5-0.6c-1.8,2.4-4.4,3.7-6.6,5.3c-4.6,3.3-7.7,7.5-9.9,12.7
		c-2.1,5.2-2.1,10,0.1,15.1c2.1,5,5.5,8.2,10.6,9.7C402.2,363.9,404.3,364.2,407.6,365z"/>
	<path class="st2" d="M511.5,390.3c1.8,0.6,2.7,0.8,3.5,1.2c4.9,2.4,9.7,4.7,14.5,7.3c6.3,3.3,12.9,6,19.9,7.3
		c3.7,0.7,7.5,0.2,11.3,0.3c1.6,0,3.2,0,5.2,0.1c-1.5,2.6-4,2.4-5.8,2.9c-6.7,1.7-13.5,2.6-20.3,0.4c-2.9-0.9-5.7-2.3-8.4-3.7
		c-5.2-2.8-10.2-5.8-15.3-8.8C513.8,395.9,512,394.2,511.5,390.3z"/>
	<path class="st2" d="M279.4,440.5c1,1,1.6,1.3,1.6,1.6c0.4,4,0.6,8-0.2,12c-0.7,3.2-1.2,6.5-1.7,9.8c-0.9,6.1-3,11.9-5.6,17.5
		c-0.3,0.6-0.9,1.1-1.4,1.5c-0.8,0.8-2.8,0.2-2.8-1c-0.1-1.4-0.2-2.9,0.1-4.2c1.7-5.9,3.7-11.7,5.3-17.7c0.7-2.5,0.8-5.1,1.2-7.7
		c0.3-2.1,0.4-4.3,1-6.3C277.4,444.4,278.4,442.7,279.4,440.5z"/>
	<path class="st2" d="M601.5,367.9c-2.2-4.6-3-8.5-3.9-12.4c-1.2-5.8-3-11.5-6-16.6c-1.9-3.2-4.2-6.2-6.4-9.3c-0.7-1-1.4-1.9-2-2.8
		c0.7-1.7,1.9-1.3,2.9-1c0.9,0.3,1.7,0.8,2.4,1.4c6.1,5.9,10.3,12.9,12.3,21.1c0.7,3.2,1.5,6.5,2.1,9.7
		C603.5,361.3,603.6,364.4,601.5,367.9z"/>
	<path class="st2" d="M628.7,674.1c-1.5,1.3-2.6,2.2-3.7,3.2c-3.4,3.3-7.3,3-11.2,1.3c-3.3-1.4-4.2-5.9-1.6-8.3
		c1.4-1.2,3.1-2.1,4.8-2.9c1.4-0.7,2.4,0.1,3.2,2.3c0.5,1.3,1.9,1.8,2.6,0.9c0.9-1.1,1.6-2.4,2.5-3.4c0.4-0.4,1.3-0.6,1.9-0.5
		c0.6,0.2,1.3,0.9,1.3,1.4C628.8,670,628.7,671.9,628.7,674.1z"/>
	<path class="st2" d="M624.4,359.6c-1,1.1-1.9,2.2-2.7,3.2c-2.3-0.1-2.9-1.6-2.9-3.3c0-0.8,0.7-2,1.3-2.2c2.2-0.7,4.5-1.5,6.7-1.4
		c2.7,0.1,4.7,2,6.6,3.9c2.9,3,5,6.2,4.9,10.6c-0.1,2.3-1.1,3.5-2.8,4.5c-1.9,1-4.2,0.4-5.7-1.4c-0.3-0.4-0.3-1.5,0-1.9
		c0.7-0.9,1.7-1.6,2.8-2.5C631.3,364.7,628.1,362,624.4,359.6z"/>
	<path class="st2" d="M340.6,566c-1-0.5-2.1-0.9-3.1-1.5c-1.4-0.8-2.8-1.8-4.3-2.5c-6.2-2.8-10.5-2-15.3,2.9c-1.5,1.5-3,2.9-4.5,4.4
		c-0.1,0.1-0.4,0-0.8,0.1c-0.1-0.7-0.5-1.4-0.3-2c1.9-6.2,6.5-10,12.2-11.9c4.3-1.4,8.9,0,12.3,3.5c1.8,1.8,3.2,4,4.8,6
		C341.3,565.4,341,565.7,340.6,566z"/>
	<path class="st2" d="M667.3,487.9c-3.2-5.5-2.3-10.2,0.8-14.3c2.7-3.7,7.1-4.8,11.4-4.1c3.5,0.5,5.3,3.4,7,6.9
		c-3.8,0.8-6.3-1.9-9.7-1.9C672,477.1,671.1,483.1,667.3,487.9z"/>
	<path class="st2" d="M358.7,649.2c-5.1,0.7-9.7-0.4-13.9-2.6c-6-3.1-10.3-8.3-14.4-13.5c-1.3-1.6-2.2-3.6-1.5-6.1
		c0.7,0.3,1.5,0.5,1.9,0.9c1.4,1.6,2.6,3.4,3.9,5.1c1.5,1.8,2.9,3.8,4.7,5.4c4.2,3.9,8.8,7.3,14.9,7.6
		C356.3,646.1,358,646.6,358.7,649.2z"/>
	<path class="st2" d="M449.8,639.3c1.9,2.8,1.6,6.6-0.5,8.3c-0.5,0.4-1.2,0.8-1.9,0.9c-4.7,0.9-9.1-3.3-8.5-7.9
		c0.3-2.3,2.2-3.9,4.4-3.7c1.4,0.2,2.8,0.4,4.1,0.9C448.5,638.1,449.4,639,449.8,639.3z"/>
	<path class="st2" d="M440.6,359.6c0.8-1.8,1.2-3.6,2.2-4.6c3.5-3.4,7.1-6.8,8.5-11.7c0.2-0.7,2.1-0.8,2.4-0.1
		c0.6,1.2,1.3,2.6,1.3,3.8c0,4.7-3.2,7.7-6.5,10.3C446.7,358.9,444.6,360.8,440.6,359.6z"/>
	<path class="st2" d="M575.9,354.8c3.6,4.9,2.3,9.9,1,14.9c-2.3,2.4-4,6.1-8.8,5c0.2-1,0.3-1.9,0.7-2.7c0.7-1.2,1.5-2.4,2.4-3.5
		c1.8-2.3,2.7-4.9,2.6-7.9C573.6,358.5,573.5,356.4,575.9,354.8z"/>
	<path class="st2" d="M471.4,321.7c-0.9-1-1.6-1.4-1.8-1.9c-0.6-3.1-0.4-6,1.6-8.7c1.2-1.7,2.3-3.6,3.6-5.3c1.9-2.5,3.5-2.7,7.4-1.1
		c0,3.8-3.9,5.1-5.4,7.9C475.3,315.4,473.5,318.2,471.4,321.7z"/>
	<path class="st2" d="M463.8,609.9c0.4,0.5,1,1.1,1.1,1.6c0.2,2.1,0.5,4.3,0.3,6.4c-0.3,2.6-0.4,5.1,0.4,7.7c0.6,2,0.5,4.2-0.5,6.2
		c-2.8-1.9-4.4-3.5-4.6-5.6c-0.4-4-0.6-8-0.6-12C459.8,612,460.1,611.9,463.8,609.9z"/>
	<path class="st2" d="M695.8,604.1c-0.8-1.1-1.3-1.5-1.2-1.8c0.2-4.1,1.8-7.8,3.5-11.4c1.8-3.7,2.6-8.1,5.8-10.8
		c1.7,0.4,1.7,1.6,1.4,2.3C703,589.8,701.2,597.4,695.8,604.1z"/>
	<path class="st2" d="M686.5,529c2-1.5,4.1-3,6.1-4.6c1.8-1.5,1.3-4.6,4-5.7c1.8,1.1,2.2,2.8,2.1,4.8c-0.1,1.9-0.4,3.8-2,5.1
		c-1.8,1.5-3.6,3.1-6.2,3.1C688.8,531.6,687.2,531.2,686.5,529z"/>
	<path class="st2" d="M488.3,663.8c-2.5-0.7-4.9-1.3-7.3-2.2c-3.3-1.2-5.9-5.4-5.8-8.9c0-0.6,0.4-1.5,0.9-1.8c0.4-0.3,1.3,0,1.9,0.1
		c0.2,0,0.4,0.2,0.6,0.4c3.5,3.8,7,7.6,10.5,11.4C488.8,663.2,488.6,663.5,488.3,663.8z"/>
	<path class="st2" d="M543,677c-0.3,0-0.5,0-0.8,0.1c0.1-0.1,0.3-0.3,0.4-0.3c0.2,0.1,0.3,0.3,0.4,0.4L543,677z"/>
</g>
</svg>
