<?xml version="1.0" encoding="utf-8"?>
<!-- Generator: Adobe Illustrator 25.2.3, SVG Export Plug-In . SVG Version: 6.00 Build 0)  -->
<svg version="1.0" id="Layer_1" xmlns="http://www.w3.org/2000/svg" xmlns:xlink="http://www.w3.org/1999/xlink" x="0px" y="0px"
	 viewBox="0 0 1024 1024" style="enable-background:new 0 0 1024 1024;" xml:space="preserve">
<style type="text/css">
	.st0{opacity:0.17;fill:#F2F2F2;}
	.st1{fill-rule:evenodd;clip-rule:evenodd;fill:#FFFFFF;}
	.st2{fill-rule:evenodd;clip-rule:evenodd;fill:#2D224C;}
</style>
<g>
	<circle class="st0" cx="350.8" cy="576.3" r="160"/>
	<g>
		<path class="st1" d="M601.3,373c1.9-0.2,3.2,1.1,4.6,2.2c2.3,1.8,4.5,3.7,7.1,4.9c2.6,2.9,6.3,4.6,8.6,7.9c0.8,1.2,2.1,1.9,3.1,3
			c3.8,4,7.8,7.8,11.3,12c0.3,0.3,0.6,0.7,0.8,1c2.3,3.5,4.5,7.1,6.8,10.6c1.8,2.8,2.9,6,4.1,9.1c0.2,0.4,0.1,0.8,0.2,1.3
			c-0.7,0.4-1.1,0.1-1.5-0.4c-1.4-2-2.9-4-4.3-6c-0.9-1.3-2.1-2-3.6-2.2c-0.2,0-0.5,0.2-0.7,0.4c-0.1,0.2-0.2,0.5-0.2,0.8
			c0,0.1,0.1,0.3,0.2,0.4c3,2.7,4.8,6.2,6.7,9.6c3.4,6.1,6.7,12.2,9.4,18.7c1.5,3.8,2.9,7.5,2.9,11.7c0,1.8,0.9,3.6,1.6,5.3
			c0.6,1.6,1.3,3.2,1.2,5c0,0.6,0.3,1.1,0.4,1.7c0.8,3.7,1,7.4,1.3,11.2c0.2,4.1,0.2,8-0.4,12.1c-1,5.8-0.9,11.8-2.1,17.7
			c0.3,5.9-1.7,11.4-2.1,17.2c-0.1,1.4-0.6,2.8-1.2,4.1c-1.4,3.3-2,7-4,10c-0.6,0.9-1,2.1-1.4,3.2c-1.2,3.2-3,6.2-4.8,9.1
			c-1.5,2.5-3.1,4.9-4.9,7.1c-0.4,0.4-0.6,1-0.9,1.5c-2,4.6-4.9,8.6-7.8,12.5c-2.2,3-4.5,6-7.7,8.2c-0.9,0.7-1.8,1.5-2.6,2.3
			c-0.4,0.4-0.7,1-1.2,1.2c-3.2,1.5-5.4,4.2-8.2,6.2c-0.3,0.3-0.6,0.7-1,0.8c-3.7,1.2-6.3,4-9.7,5.7c-2.7,1.4-5.5,2.4-7.5,4.8
			c-0.5,0.6-1.5,1-2.3,1.2c-4.2,1.2-7.9,3.5-11.6,5.7c-0.7,0.4-1.6,0.7-2.4,1c-5.1,2-10,4.5-15.5,5.5c-0.4,0.1-0.9,0.2-1.2,0.5
			c-1.5,1.4-3.4,1.5-5.2,2c-5.2,1.4-10.3,2.7-15.5,4c-0.8,0.2-1.7,0.2-2.6,0.3c-0.7,0.1-1.5,0-2.1,0.2c-3.8,1.6-7.9,1.5-11.9,1.7
			c-3.3,0.2-6.6,0.9-9.9,0.3c-5.6,0.7-10.9-0.9-16.2-1.8c-4.8-0.8-9.5-2.1-14.2-3.6c-1.9-0.6-3.8-1.4-5.7-2c-1.2-0.4-2.4-1-3.8-0.7
			c-0.7,0.2-1.7-0.3-2.4-0.7c-2.6-1.5-5.5-1.8-8.3-2.4c-0.1,0-0.3-0.1-0.4-0.1c-2.6,0.7-5.1,0-7.7-0.4c-0.4-0.1-1-0.2-1.3,0
			c-2.5,1.7-4.7,0-7-0.6c-0.7-1.1-0.5-2.5-1.8-3.4c-1.8-1.2-3.3-2.8-5.1-4c-5.5-3.8-11.3-7.2-17.3-10c-2.3-1.1-3.8-2.7-4.5-4.9
			c-0.7-2-1.1-4.2-1.6-6.3c0-0.2,0.2-0.6,0.4-0.7c0.2-0.1,0.6-0.2,0.8-0.1c0.7,0.5,1.3,1.1,2,1.7c1.9,1.7,3.4,2.2,6.7,2.5
			c0.3-0.9-0.4-1.3-0.9-1.7c-2.7-2.4-5.5-4.7-8.3-7c-3.3-2.6-5.7-6.1-8.4-9.3c-0.4-0.4-0.7-1-0.8-1.5c-0.9-3.3-2.9-6-4.7-8.8
			c-1.2-1.9-2.3-3.7-2.4-6c0-0.7-0.4-1.4-0.7-2c-1.7-3.3-3.7-6.5-4.4-10.3c-0.1-0.6-0.4-1.1-0.7-1.6c-1.5-1.9-2-4.2-2.5-6.4
			c-0.9-3.6-1.6-7.3-2.3-11c-0.4-2.2-1.2-4.3-1-6.7c0.2-2.1-0.3-4.3-0.5-6.4c-0.3-2.7-0.7-5.4-0.8-8.1c-0.3-7.8-1.2-15.6-0.5-23.4
			c0.2-2.3-0.2-4.6,0.5-6.9c0.6-2,0.1-4.3,0.8-6.4c0.3-1,0.4-2,0.9-2.9c0.7-1.6,1.1-3.3,1.4-5c0.5-2.5,1.2-5.1,2-7.5
			c1.7-5.1,3.4-10.1,6-14.9c0.3-3.3,2.8-5.6,3.9-8.7c1-3,2.8-5.7,4.4-8.4c0.7-1.3,1.6-2.4,2.4-3.6c1.8-2.5,3.5-5,5.3-7.4
			c1.1-1.5,2.5-2.8,3.6-4.2c4.8-6,9.9-11.6,16.2-16.1c3.9-2.8,8-5.2,11.6-8.3c0.3-0.3,0.7-0.5,1.1-0.6c4.3-1.4,7.8-4.3,11.9-6.1
			c1.3-0.6,2.5-1.5,3.7-2.3c0.4-0.2,0.7-0.6,1.1-0.7c3.2-0.5,5.8-2.5,8.8-3.5c2.9-1,5.8-2,8.7-2.8c1.7-0.5,3.4-0.8,5.1-0.9
			c1.8-0.2,3.4-0.6,5-1.5c2.3-1.3,4.7-1.9,7.3-2.5c4-0.9,8.1-1,12-1.7c2.3-0.4,4.6-0.4,6.9-0.5c2.6-0.1,5.2,0.2,7.8,0
			c6.1-0.5,12.1,0.3,18.2,0.8c5.9,0.5,11.8,1.1,17.6,2.5c2.7,0.6,5.4,1.1,8,1.9c5.5,1.8,10.7,4.2,16,6.7c3.1,1.5,6.2,3.1,9.3,4.6
			c2.5,1.2,4.9,2.4,7.2,4c0.6,0.4,1.3,0.6,2.2,1c-0.1-0.7-0.1-1.1-0.3-1.4c-0.7-0.9-1.5-1.7-2.3-2.6
			C601.1,373.3,601.2,373.1,601.3,373z M545.7,608.5c-1.2-0.8-2.5-0.7-3.8-0.6c-2.7,0.3-5.2-0.2-7.6-1.2c-1.8-0.7-3.3-2-3.7-4
			c-0.3-1.8-0.1-3.7,1-5.4c2.5-3.6,5.9-5.9,9.7-7.7c4.6-2.1,9.4-3.7,14.5-4.1c3.9-0.3,7.7-1.2,11.6-0.2c2.2-0.4,4.3,0.4,6.3,1
			c2.6,0.8,4.7,2.1,5.9,4.7c0.1,0.3,0.3,0.6,0.5,0.6c0.4,0.1,1,0.1,1.1-0.1c0.4-0.6,0.8-1.3,0.8-1.9c-0.1-2.2-1.3-3.9-3.2-4.9
			c-1.9-1.1-3.8-1.9-6-2.4c-5.6-1.3-11.2-0.8-16.8-0.3c-7.4,0.8-14.4,3.2-20.8,7.1c-3.5,2.2-6.3,5-8,8.9c-0.8,1.9-1,3.8-0.4,5.9
			c0.8,2.9,2.4,4.9,5.2,5.8c1.5,0.5,3.1,0.9,4.6,1.3c3,0.9,5.7-0.1,8.2-1.6C545.3,609.3,545.5,608.8,545.7,608.5z M403.7,493.6
			c-0.3,0.9-0.6,1.5-0.7,2.2c-0.4,3.5,1,6.5,2.6,9.5c1.2,2.3,3.2,3.7,5.4,4.8c0.5,0.2,1.2,0.4,1.7,0.3c2.5-0.6,4.9-1.6,6.7-3.7
			c0.6-0.6,1.1-1.4,1.7-2c3.6-3.5,3.8-7.9,2.9-12.5c-0.3-1.7-1-3.3-1.8-4.9c-1-1.9-2.1-3.8-3.3-5.6c-0.6-1-1.7-1.5-2.9-1.7
			c-2.8-0.7-5.1,0.5-7.2,2.1c-0.3,0.2-0.5,0.7-0.6,1.1c-0.1,0.4,0,0.9,0.2,1.2c0.2,0.3,0.8,0.4,1.1,0.3c0.8-0.3,1.5-0.8,2.3-1.1
			c2.7-1.1,4.3-0.3,5.5,2.4c0.4,0.9,0.7,1.9,1.1,2.8c1.1,1.9,1.4,4.1,1.9,6.2c0.5,1.8,0,3.5-1,5c-1.3,1.9-2.9,3.6-4.8,4.9
			c-1,0.6-2,1.1-3.2,0.7c-2.2-1.3-2.6-3.8-3.9-5.7C406.4,498,405.8,495.5,403.7,493.6z M557.7,384.2c-0.1,0.8-0.2,1.1-0.1,1.3
			c0,0.3,0.2,0.6,0.4,0.8c2,2.2,4.5,3,7.4,3c3,0,5.6-1.4,8-3c2.2-1.4,2.6-2.6,1.9-5.2c-0.3-1.2-1-2.1-2-2.7c-2.1-1.3-4.3-2.4-6.7-3
			c-3.4-0.9-6.9-0.8-10.3-0.1c-1.8,0.4-3.1,1.3-3.5,3.8c3.4-1.2,6.6-2.3,10-1.5c3.2,0.8,6.5,1.3,8.8,4.1c-0.2,1.6-0.9,2.5-2.4,2.8
			c-2.4,0.6-4.8,0.9-7.3,0.2C560.6,384.4,559.2,384.4,557.7,384.2z M539.5,598.9c1-0.4,1.4-0.5,1.7-0.7c2.8-1.5,5.4-3.4,8.6-4.1
			c4.5-0.9,8.9-2.5,13.6-2.2c3.3-1.1,6.2,0.2,9.2,1.3c0.7,0.2,1.4,0.5,2,0.6c0.8,0.2,1.7-0.9,1.4-1.7c-0.3-0.6-0.7-1.3-1.2-1.7
			c-1.9-1.3-4-2.4-6.4-2.3c-2.6,0-5.2,0-7.8,0.2c-5.9,0.5-11.8,1.5-17,4.6C541.5,594.2,540,595.9,539.5,598.9z M425.7,508.4
			c-1.2,1.7-1.8,2.8-2.6,3.9c-2,2.6-4.5,3.8-7.8,3.9c-3.4,0.1-6.2-0.9-8.6-3.2c-2.5-2.4-4.2-5.1-5.1-8.4c-0.4-1.6-0.5-3.4-1.5-4.9
			c-1.3,1.8-1.6,2.7-1.3,4.4c0.6,2.9,0.8,6.1,3.3,8.3c0.2,0.2,0.3,0.5,0.4,0.8c0.6,2,2.2,3.1,3.8,4c4.1,2.2,8.4,3,13,1.6
			c1.9-0.6,3.3-1.5,4.5-3.2C425.1,513.4,425.7,512,425.7,508.4z M440.5,597.9c1,1,1.7,2,2.7,2.6c1,0.8,2.2,1.3,3.4,2
			c1.4,0.8,2.9,1.4,4.1,2.4c3,2.2,5.9,4.6,8.9,6.9c0.7,0.5,1.5,0.7,2.3,1c0.7,0.2,1.4-0.8,1.2-1.4c-0.2-0.4-0.3-0.9-0.6-1.1
			c-2.6-2.7-5.5-5.1-8.7-7c-1.8-1-3.5-2-5.2-3.1c-2.1-1.3-4.4-2.1-6.8-2.8C441.6,597.3,441.3,597.5,440.5,597.9z M650,450.5
			c-1.3-0.5-2.3-1-3.4-1.3c-0.3-0.1-0.9,0.2-1.1,0.5c-0.2,0.3-0.3,0.9-0.1,1.2c0.4,0.8,1,1.4,1.4,2.2c0.4,0.6-0.2,1.3-1.1,1.3
			c-1.5,0-2.1,0.4-2,1.3c0.1,1.1,0.2,2.3,0.6,3.4c0.8,2,3.5,2.5,5,0.9c1.8-1.9,2.8-4,1.7-6.7C650.7,452.5,650.5,451.7,650,450.5z
			 M525.3,590.6c-0.1-0.3-0.2-0.5-0.3-0.8c-1.5,0.5-3,0.8-4.5,1.4c-2.7,1.1-4.6,3.5-4.7,6.2c-0.2,3.6,0.9,7.1,4.1,9.5
			c0.3,0.2,0.8,0.2,1.2,0.2c0.1-0.2,0.2-0.4,0.1-0.5c-0.5-1.2-1-2.4-1.5-3.5c-1.7-3.8-1.2-6.5,1.7-9.4c0.7-0.7,1.6-1.2,2.4-1.9
			C524.3,591.6,524.8,591.1,525.3,590.6z M552.7,387.7c-1.9-3.2-5.1-5-5.6-8.4c0.7-2,2.8-2.8,3.2-5.1c-2.4,0.2-4.4,0.6-5.4,2.4
			c-1.3,2.3-1.7,5-0.2,7.4C546.4,386.8,548.9,388.3,552.7,387.7z M576.6,598.6c-1.6-0.1-2.3,0.7-2.8,1.8c-1.5,3.4-4.4,5.3-7.6,6.8
			c-1.3,0.6-2.7,1-4.1,1.5c-1.2,0.4-2.5,0.7-3.8,1.1c-0.3,0.1-0.6,0.5-0.9,0.9c1.3,0.9,2.6,0.9,3.8,0.5c3.9-1.2,7.8-2.5,10.8-5.2
			C574.2,604,575.9,601.7,576.6,598.6z M429.9,488.4c1.5-2,0.9-3.6,0.5-5c-0.8-2.4-1.8-4.9-4.4-6c-0.7-0.3-1.6-0.2-2.5-0.1
			c-0.5,0-0.9,1.1-0.5,1.4c2.5,1.9,3.6,4.7,4.8,7.4C428.1,486.9,429.1,487.5,429.9,488.4z M415.1,462.6c-1.5-2-2.7-3.6-4-5.1
			c-1.3-1.5-1.1-4-3.3-4.8c-1.8,1.9-2,2.8-1,4.5c0.7,1.1,1.5,2.1,2.2,3.2c1.1,1.7,2.7,2.5,4.6,2.8
			C414,463.2,414.4,462.9,415.1,462.6z M625,397c-2.6-4.5-6.6-7.2-10.2-10.2c-0.4-0.3-1-0.6-1.6,0.3c0.8,2.4,3.1,3.9,4.8,5.7
			c1.7,1.8,3.4,3.5,5.7,4.5C623.9,397.4,624.2,397.2,625,397z M580.3,385.8c1.4,0,2-0.8,2.4-1.7c0.6-1.4,0.1-2.8-0.4-4.2
			c-0.4-1.2-1.4-1.8-2.5-2.3c-1.1-0.5-2.2-0.6-3.2,0.1c0.1,1.8,1.9,2.2,2.4,3.6C579.5,382.8,579.8,384.4,580.3,385.8z"/>
		<path class="st1" d="M601.1,373.4c-0.2-0.2-0.5-0.4-0.7-0.6c0.3,0.1,0.6,0.1,0.9,0.2C601.2,373.1,601.1,373.3,601.1,373.4z"/>
		<path class="st2" d="M412.5,595.1c0.1-1.4,0.3-2.7,0.4-4.2c-1.1-1.5-2.4-3.2-2.7-5.5c-0.4-2.9-1.8-5.4-3.7-7.7
			c-1-1.2-1.8-2.6-2.9-3.8c-1-1.1-1.6-2.4-2.3-3.7c-0.6-1.2-1.3-2.2-2-3.4c-0.7-1.2-1.4-2.4-1.5-4c-0.1-1.4-0.5-3-1.3-4.1
			c-3.5-4.5-5-10.1-7.5-15.1c-1-1.9-1.3-4.1-2-6.2c-0.3-1.1-0.7-2.2-1.1-3.3c-0.2-0.8-0.5-1.7-0.6-2.5c-0.2-0.9-0.1-1.8-0.4-2.6
			c-1.4-4-1.4-8.3-1.8-12.4c-0.2-1.7-0.7-3.4-0.7-5.1c-0.1-3.3-0.3-6.6-0.9-9.9c-0.4-2.3-0.4-4.6-0.2-6.9c0.1-1.6,0.4-3.1-0.4-4.7
			c-0.2-0.4-0.2-0.8-0.2-1.3c0.2-4.3,0.5-8.6,0.7-13c0.1-1.9,0.6-3.7,1.5-5.4c1.6-3,2.4-6.1,2.1-9.6c-0.1-1.4,0.5-2.8,0.8-4.2
			c0.8-3.9,1.9-7.6,3.4-11.2c0.8-1.9,1.6-3.7,2.1-5.7c0.5-2.1,2.3-3.7,2.5-6c1.9-2.6,2.3-5.9,4.4-8.5c0.4-0.5,0.8-1.2,1-1.9
			c1.3-4.1,3.7-7.5,5.9-11.1c3.9-6.1,8.5-11.7,13.4-17c1.9-2.1,4.2-3.9,6.3-5.9c1.2-1.1,2.4-2,3.6-3.1c2.4-2.3,4.9-4.4,7.8-6.1
			c3.2-1.9,6-4.6,9.3-6.4c4.7-2.5,8.8-6.2,14.1-7.5c0.3-0.1,0.6-0.1,0.8-0.3c3.3-3,8-3.3,11.6-5.6c0.6-0.4,1.4-0.5,2.1-0.6
			c2.2-0.3,4.3-0.5,6.2-1.9c0.2-0.2,0.5-0.2,0.8-0.2c4-0.7,8-1.3,12-1.9c1.6-0.3,3.1-0.5,4.7-0.7c5-0.9,10-2,15-2.5
			c5-0.5,10.1-0.3,15.2-0.5c4-0.1,8.1-0.3,12.1-0.5c1.4,0,2.9,0,4.3,0.1c1.9,0.2,3.7,0.4,5.6,0.7c7.8,1,15.2,3.6,22.5,6.3
			c7.1,2.5,13.9,5.6,20.5,9.4c1.6,0.9,3.3,1.1,5,1.4c3.9,0.5,7.6,1.6,11.2,3.4c3,1.5,5.8,3.2,8.1,5.7c0.8,0.8,1.8,1.5,2.7,2.2
			c0.7,0.5,1.4,1,2,1.6c3.7,3.7,7.7,7,11,11.1c1.2,1.5,2.6,2.7,3.9,4c4.5,4.7,8.2,10.1,11,16c1.7,3.4,4.2,6.6,4.2,10.7
			c0.9,1.5,0.5,3.1,0.4,4.7c-0.1,1.6-0.5,3.1-0.7,4.7c0.8,1.4,1.5,2.6,2.2,3.9c0.6,1,1.1,2,1.1,3.2c0,0.7,0.3,1.4,0.7,2
			c1.4,2.7,2.5,5.5,3.3,8.4c0.9,3,2.3,5.9,3.3,8.9c0.4,1.2,0.6,2.5,0.9,3.8c0.5,2.5,1.1,5.1,1.4,7.7c0.5,3.7,0.8,7.5,1,11.2
			c0.2,4.8-0.1,9.5-0.9,14.3c-0.5,3-1,6-1,9c0,3.2-0.7,6.3-1,9.5c-0.2,1.3-0.6,2.6-0.4,3.9c0.5,3.2-0.2,6.4-0.7,9.5
			c-0.5,3-1.5,5.9-3,8.6c-0.6,1-1.3,2.1-1.4,3.1c-0.2,3.3-2.1,6-3.5,8.8c-1.1,2.3-2.1,4.7-3.4,6.9c-2.1,3.5-4.2,6.9-6.3,10.4
			c-1.1,2-3.3,3.4-4.2,5.4c-1.4,3.2-3.8,5.8-5.5,8.8c-2.1,3.8-5.2,7-8.8,9.5c-1.6,1.1-3,2.8-5,3.3c-0.3,0.1-0.5,0.2-0.7,0.5
			c-3.2,3.7-7.7,5.4-11.8,7.8c-0.1,0.1-0.2,0.2-0.4,0.2c-4.4,3.1-9.4,5-13.9,7.8c-4.2,2.6-8.7,4.5-13.1,6.7
			c-3.1,1.6-6.3,2.8-9.6,3.9c-1.5,0.5-3,1-4.5,1.6c-2,0.7-4.1,1.3-6.2,1.8c-5.8,1.4-11.2,3.8-17,5.1c-1.3,0.3-2.5,0.6-3.8,0.7
			c-3.1,0.4-6.4,0.3-9.4,1.4c-4.2-0.1-8.3,1.3-12.5,0.7c-0.6-0.1-1.2-0.1-1.7,0c-3.6,0.6-7.2,0.3-10.8-0.1c-4.2-0.5-8.3-1-12.2-2.7
			c-2-0.8-4.2-1.1-6.3-1.6c-0.3-0.1-0.6,0-0.9-0.1c-3.7-1.7-8-1.8-11.6-3.4c-3.5-1.6-7.2-2.2-10.7-3.6c-1.7-0.7-3.7-1-5.5-0.9
			c-2.1,0.1-4-0.2-6.1-0.3c-3.9-0.2-7.3-1.6-10.6-3.5c-3-1.7-5.9-3.7-8.8-5.6c-2.7-1.7-5.4-3.4-8-5.1c-1.8-1.2-3.5-2.5-5.3-3.7
			c-0.2-0.2-0.4-0.5-0.6-0.6C415.8,599.5,414.5,597,412.5,595.1z M601.3,373c-0.3-0.1-0.6-0.1-0.9-0.2c0.2,0.2,0.5,0.4,0.7,0.6
			c0.8,0.9,1.6,1.7,2.3,2.6c0.2,0.3,0.2,0.7,0.3,1.4c-0.9-0.4-1.7-0.6-2.2-1c-2.3-1.6-4.7-2.8-7.2-4c-3.1-1.5-6.2-3.2-9.3-4.6
			c-5.2-2.5-10.5-5-16-6.7c-2.6-0.8-5.3-1.3-8-1.9c-5.8-1.4-11.7-2-17.6-2.5c-6-0.5-12.1-1.4-18.2-0.8c-2.6,0.2-5.2-0.1-7.8,0
			c-2.3,0.1-4.6,0.1-6.9,0.5c-4,0.7-8,0.8-12,1.7c-2.6,0.6-5.1,1.1-7.3,2.5c-1.5,0.9-3.2,1.3-5,1.5c-1.7,0.2-3.5,0.5-5.1,0.9
			c-2.9,0.8-5.8,1.8-8.7,2.8c-3,1-5.6,3-8.8,3.5c-0.4,0.1-0.7,0.5-1.1,0.7c-1.2,0.8-2.4,1.7-3.7,2.3c-4.1,1.8-7.6,4.8-11.9,6.1
			c-0.4,0.1-0.8,0.4-1.1,0.6c-3.6,3.2-7.7,5.6-11.6,8.3c-6.3,4.5-11.4,10.1-16.2,16.1c-1.2,1.4-2.5,2.8-3.6,4.2
			c-1.8,2.4-3.6,4.9-5.3,7.4c-0.8,1.2-1.7,2.3-2.4,3.6c-1.6,2.8-3.4,5.5-4.4,8.4c-1,3-3.6,5.4-3.9,8.7c-2.6,4.7-4.3,9.8-6,14.9
			c-0.8,2.5-1.6,5-2,7.5c-0.3,1.7-0.7,3.4-1.4,5c-0.4,0.9-0.5,1.9-0.9,2.9c-0.7,2.1-0.2,4.3-0.8,6.4c-0.6,2.3-0.3,4.6-0.5,6.9
			c-0.7,7.8,0.2,15.6,0.5,23.4c0.1,2.7,0.5,5.4,0.8,8.1c0.2,2.1,0.7,4.3,0.5,6.4c-0.2,2.4,0.7,4.5,1,6.7c0.7,3.7,1.4,7.4,2.3,11
			c0.5,2.2,1,4.5,2.5,6.4c0.3,0.4,0.6,1,0.7,1.6c0.6,3.8,2.7,7,4.4,10.3c0.3,0.6,0.7,1.3,0.7,2c0.1,2.3,1.2,4.1,2.4,6
			c1.8,2.8,3.8,5.5,4.7,8.8c0.1,0.5,0.5,1.1,0.8,1.5c2.7,3.2,5.1,6.7,8.4,9.3c2.8,2.2,5.6,4.6,8.3,7c0.5,0.4,1.3,0.8,0.9,1.7
			c-3.2-0.3-4.7-0.9-6.7-2.5c-0.7-0.6-1.3-1.2-2-1.7c-0.2-0.1-0.6,0-0.8,0.1c-0.2,0.1-0.4,0.5-0.4,0.7c0.5,2.1,0.9,4.3,1.6,6.3
			c0.8,2.2,2.2,3.8,4.5,4.9c6,2.8,11.8,6.2,17.3,10c1.8,1.2,3.3,2.8,5.1,4c1.3,0.9,1.1,2.3,1.8,3.4c2.3,0.6,4.4,2.3,7,0.6
			c0.3-0.2,0.9-0.1,1.3,0c2.5,0.4,5.1,1.2,7.7,0.4c0.1,0,0.3,0,0.4,0.1c2.8,0.7,5.7,0.9,8.3,2.4c0.7,0.4,1.7,0.8,2.4,0.7
			c1.4-0.3,2.6,0.3,3.8,0.7c1.9,0.6,3.8,1.4,5.7,2c4.7,1.5,9.4,2.7,14.2,3.6c5.4,0.9,10.7,2.5,16.2,1.8c3.3,0.7,6.6,0,9.9-0.3
			c4-0.3,8.1-0.1,11.9-1.7c0.6-0.3,1.4-0.2,2.1-0.2c0.9-0.1,1.7-0.1,2.6-0.3c5.2-1.3,10.4-2.6,15.5-4c1.8-0.5,3.7-0.6,5.2-2
			c0.3-0.3,0.8-0.4,1.2-0.5c5.5-1,10.4-3.5,15.5-5.5c0.8-0.3,1.7-0.6,2.4-1c3.7-2.2,7.4-4.5,11.6-5.7c0.8-0.2,1.8-0.6,2.3-1.2
			c2-2.4,4.9-3.5,7.5-4.8c3.3-1.7,6-4.5,9.7-5.7c0.4-0.1,0.6-0.6,1-0.8c2.8-2,5-4.7,8.2-6.2c0.5-0.2,0.8-0.8,1.2-1.2
			c0.9-0.8,1.7-1.6,2.6-2.3c3.1-2.2,5.5-5.2,7.7-8.2c2.9-4,5.8-8,7.8-12.5c0.2-0.5,0.5-1.1,0.9-1.5c1.8-2.3,3.4-4.6,4.9-7.1
			c1.8-3,3.5-5.9,4.8-9.1c0.4-1.1,0.8-2.2,1.4-3.2c2.1-3.1,2.6-6.7,4-10c0.6-1.3,1.1-2.7,1.2-4.1c0.4-5.8,2.4-11.3,2.1-17.2
			c1.1-5.8,1.1-11.8,2.1-17.7c0.7-4,0.7-8,0.4-12.1c-0.2-3.8-0.5-7.5-1.3-11.2c-0.1-0.6-0.4-1.1-0.4-1.7c0.1-1.8-0.5-3.4-1.2-5
			c-0.7-1.7-1.6-3.6-1.6-5.3c0-4.2-1.3-8-2.9-11.7c-2.6-6.5-5.9-12.6-9.4-18.7c-1.9-3.4-3.7-6.9-6.7-9.6c-0.1-0.1-0.2-0.2-0.2-0.4
			c0-0.3,0-0.6,0.2-0.8c0.1-0.2,0.5-0.4,0.7-0.4c1.5,0.2,2.7,0.9,3.6,2.2c1.4,2,2.8,4,4.3,6c0.4,0.5,0.8,0.7,1.5,0.4
			c-0.1-0.4,0-0.9-0.2-1.3c-1.2-3.1-2.2-6.3-4.1-9.1c-2.3-3.5-4.5-7.1-6.8-10.6c-0.2-0.4-0.5-0.7-0.8-1c-3.5-4.2-7.5-8-11.3-12
			c-1-1-2.3-1.8-3.1-3c-2.3-3.3-5.9-5-8.6-7.9c-2.7-1.2-4.9-3.1-7.1-4.9C604.6,374.1,603.3,372.8,601.3,373z"/>
		<path class="st2" d="M545.7,608.5c-0.2,0.3-0.4,0.8-0.7,1c-2.5,1.5-5.2,2.5-8.2,1.6c-1.5-0.4-3.1-0.8-4.6-1.3
			c-2.8-1-4.4-2.9-5.2-5.8c-0.5-2.1-0.4-3.9,0.4-5.9c1.7-3.9,4.5-6.7,8-8.9c6.4-3.9,13.3-6.3,20.8-7.1c5.6-0.6,11.2-1,16.8,0.3
			c2.2,0.5,4.1,1.4,6,2.4c1.8,1,3.1,2.7,3.2,4.9c0,0.6-0.4,1.3-0.8,1.9c-0.1,0.2-0.8,0.2-1.1,0.1c-0.2,0-0.4-0.4-0.5-0.6
			c-1.1-2.6-3.3-3.9-5.9-4.7c-2.1-0.7-4.1-1.5-6.3-1c-3.9-1-7.8-0.1-11.6,0.2c-5.1,0.4-9.9,2-14.5,4.1c-3.8,1.8-7.3,4.1-9.7,7.7
			c-1.2,1.7-1.4,3.5-1,5.4c0.4,2,1.9,3.2,3.7,4c2.4,1,5,1.5,7.6,1.2C543.2,607.7,544.5,607.6,545.7,608.5z"/>
		<path class="st2" d="M403.7,493.6c2.1,2,2.7,4.4,4,6.5c1.3,1.9,1.7,4.4,3.9,5.7c1.2,0.4,2.3-0.1,3.2-0.7c1.9-1.3,3.5-3,4.8-4.9
			c0.9-1.5,1.4-3.2,1-5c-0.5-2.1-0.8-4.3-1.9-6.2c-0.5-0.9-0.8-1.9-1.1-2.8c-1.2-2.8-2.8-3.5-5.5-2.4c-0.8,0.3-1.5,0.8-2.3,1.1
			c-0.3,0.1-0.9-0.1-1.1-0.3c-0.2-0.3-0.3-0.8-0.2-1.2c0.1-0.4,0.3-0.9,0.6-1.1c2.1-1.6,4.4-2.8,7.2-2.1c1.2,0.3,2.2,0.7,2.9,1.7
			c1.1,1.8,2.3,3.7,3.3,5.6c0.8,1.6,1.4,3.2,1.8,4.9c0.9,4.5,0.7,8.9-2.9,12.5c-0.6,0.6-1.1,1.3-1.7,2c-1.8,2-4.2,3-6.7,3.7
			c-0.5,0.1-1.2,0-1.7-0.3c-2.2-1.1-4.2-2.6-5.4-4.8c-1.6-2.9-3-6-2.6-9.5C403.2,495.1,403.5,494.5,403.7,493.6z"/>
		<path class="st2" d="M557.7,384.2c1.5,0.2,2.8,0.2,4,0.6c2.5,0.7,4.9,0.4,7.3-0.2c1.5-0.4,2.2-1.2,2.4-2.8
			c-2.3-2.7-5.6-3.3-8.8-4.1c-3.4-0.8-6.5,0.2-10,1.5c0.4-2.5,1.7-3.5,3.5-3.8c3.4-0.7,6.9-0.8,10.3,0.1c2.4,0.6,4.6,1.8,6.7,3
			c1,0.6,1.7,1.5,2,2.7c0.6,2.5,0.3,3.7-1.9,5.2c-2.4,1.6-5,3-8,3c-2.9,0-5.4-0.8-7.4-3c-0.2-0.2-0.3-0.5-0.4-0.8
			C557.6,385.3,557.7,385,557.7,384.2z"/>
		<path class="st2" d="M539.5,598.9c0.5-3,2-4.7,4.1-5.9c5.3-3.1,11.1-4.1,17-4.6c2.6-0.2,5.2-0.2,7.8-0.2c2.4,0,4.5,1,6.4,2.3
			c0.5,0.4,0.9,1.1,1.2,1.7c0.4,0.8-0.6,1.9-1.4,1.7c-0.7-0.2-1.4-0.4-2-0.6c-3-1.1-5.9-2.4-9.2-1.3c-4.7-0.3-9.1,1.3-13.6,2.2
			c-3.1,0.6-5.8,2.5-8.6,4.1C540.9,598.4,540.5,598.5,539.5,598.9z"/>
		<path class="st2" d="M425.7,508.4c-0.1,3.6-0.6,5-2.1,7.1c-1.1,1.6-2.6,2.6-4.5,3.2c-4.6,1.4-8.9,0.6-13-1.6c-1.6-0.9-3.2-2-3.8-4
			c-0.1-0.3-0.2-0.6-0.4-0.8c-2.5-2.2-2.6-5.4-3.3-8.3c-0.4-1.7,0-2.6,1.3-4.4c1,1.5,1.1,3.3,1.5,4.9c0.8,3.3,2.6,6,5.1,8.4
			c2.5,2.3,5.2,3.4,8.6,3.2c3.3-0.1,5.9-1.4,7.8-3.9C423.9,511.2,424.6,510.1,425.7,508.4z"/>
		<path class="st2" d="M440.5,597.9c0.8-0.3,1.1-0.6,1.3-0.6c2.4,0.7,4.7,1.4,6.8,2.8c1.7,1.1,3.4,2.1,5.2,3.1
			c3.3,1.9,6.1,4.3,8.7,7c0.3,0.3,0.4,0.8,0.6,1.1c0.3,0.6-0.5,1.6-1.2,1.4c-0.8-0.3-1.7-0.5-2.3-1c-3-2.3-5.9-4.7-8.9-6.9
			c-1.3-0.9-2.7-1.6-4.1-2.4c-1.1-0.6-2.3-1.2-3.4-2C442.2,599.8,441.5,598.9,440.5,597.9z"/>
		<path class="st2" d="M650,450.5c0.4,1.2,0.7,2,1,2.8c1.1,2.7,0.1,4.8-1.7,6.7c-1.6,1.6-4.3,1.1-5-0.9c-0.4-1.1-0.5-2.2-0.6-3.4
			c-0.1-0.9,0.6-1.3,2-1.3c0.9,0,1.5-0.7,1.1-1.3c-0.4-0.7-1-1.4-1.4-2.2c-0.2-0.3-0.1-0.9,0.1-1.2c0.2-0.3,0.8-0.5,1.1-0.5
			C647.7,449.6,648.8,450,650,450.5z"/>
		<path class="st2" d="M525.3,590.6c-0.5,0.5-1,1-1.5,1.4c-0.8,0.6-1.6,1.2-2.4,1.9c-3,2.9-3.4,5.6-1.7,9.4c0.5,1.2,1,2.3,1.5,3.5
			c0,0.1-0.1,0.3-0.1,0.5c-0.4-0.1-0.9,0-1.2-0.2c-3.1-2.4-4.3-5.9-4.1-9.5c0.1-2.8,2-5.1,4.7-6.2c1.4-0.6,3-0.9,4.5-1.4
			C525.1,590.1,525.2,590.3,525.3,590.6z"/>
		<path class="st2" d="M552.7,387.7c-3.8,0.6-6.3-0.9-8-3.6c-1.5-2.4-1.2-5.1,0.2-7.4c1.1-1.9,3.1-2.3,5.4-2.4
			c-0.4,2.3-2.5,3.1-3.2,5.1C547.5,382.7,550.8,384.5,552.7,387.7z"/>
		<path class="st2" d="M576.6,598.6c-0.7,3.1-2.4,5.4-4.5,7.3c-3.1,2.7-7,4-10.8,5.2c-1.2,0.4-2.5,0.5-3.8-0.5
			c0.4-0.3,0.6-0.7,0.9-0.9c1.2-0.4,2.5-0.7,3.8-1.1c1.4-0.4,2.8-0.8,4.1-1.5c3.2-1.5,6.1-3.4,7.6-6.8
			C574.3,599.3,574.9,598.5,576.6,598.6z"/>
		<path class="st2" d="M429.9,488.4c-0.9-0.9-1.8-1.5-2.1-2.3c-1.2-2.8-2.3-5.5-4.8-7.4c-0.4-0.3,0-1.4,0.5-1.4
			c0.8-0.1,1.7-0.2,2.5,0.1c2.7,1.1,3.7,3.5,4.4,6C430.8,484.8,431.4,486.4,429.9,488.4z"/>
		<path class="st2" d="M415.1,462.6c-0.7,0.3-1.1,0.6-1.5,0.6c-1.9-0.3-3.5-1.1-4.6-2.8c-0.7-1.1-1.5-2.1-2.2-3.2
			c-1-1.6-0.8-2.6,1-4.5c2.2,0.8,2,3.3,3.3,4.8C412.4,459,413.6,460.6,415.1,462.6z"/>
		<path class="st2" d="M625,397c-0.8,0.2-1.1,0.4-1.3,0.3c-2.3-1-4.1-2.7-5.7-4.5c-1.7-1.8-4-3.3-4.8-5.7c0.6-0.9,1.3-0.6,1.6-0.3
			C618.4,389.8,622.4,392.5,625,397z"/>
		<path class="st2" d="M580.3,385.8c-0.4-1.5-0.8-3-1.3-4.5c-0.5-1.3-2.3-1.7-2.4-3.6c1-0.8,2.1-0.6,3.2-0.1c1.1,0.5,2.1,1,2.5,2.3
			c0.5,1.4,1,2.8,0.4,4.2C582.2,385.1,581.6,385.9,580.3,385.8z"/>
		<path class="st2" d="M632.9,499.9c0,0.2-0.1,0.3-0.1,0.5c0-0.1-0.1-0.2-0.1-0.3c0.1-0.1,0.2-0.1,0.3-0.1L632.9,499.9z"/>
	</g>
</g>
</svg>
